<?xml version="1.0" encoding="utf-8"?>
<!-- Generator: Adobe Illustrator 22.0.1, SVG Export Plug-In . SVG Version: 6.00 Build 0)  -->
<svg version="1.1" id="gift_1_" xmlns="http://www.w3.org/2000/svg" xmlns:xlink="http://www.w3.org/1999/xlink" x="0px" y="0px"
	 viewBox="0 0 500 500" style="enable-background:new 0 0 500 500;" xml:space="preserve">
<style type="text/css">
	.st0{fill:#FF224C;}
	.st1{filter:url(#Adobe_OpacityMaskFilter);}
	.st2{fill:#FFFFFF;}
	.st3{mask:url(#mask-2_1_);fill:#CE1D47;}
	.st4{filter:url(#Adobe_OpacityMaskFilter_1_);}
	.st5{mask:url(#mask-2_2_);fill:#FFCA36;}
	.st6{filter:url(#Adobe_OpacityMaskFilter_2_);}
	.st7{mask:url(#mask-2_3_);fill:#E8B434;}
	.st8{filter:url(#Adobe_OpacityMaskFilter_3_);}
	.st9{mask:url(#mask-2_4_);fill:#FFCA36;}
	.st10{filter:url(#Adobe_OpacityMaskFilter_4_);}
	.st11{mask:url(#mask-2_5_);fill:#FFCA36;}
	.st12{filter:url(#Adobe_OpacityMaskFilter_5_);}
	.st13{mask:url(#mask-2_6_);fill:#FFCA36;}
	.st14{filter:url(#Adobe_OpacityMaskFilter_6_);}
	.st15{mask:url(#mask-2_7_);fill:#FFCA36;}
	.st16{filter:url(#Adobe_OpacityMaskFilter_7_);}
	.st17{mask:url(#mask-2_8_);fill:none;stroke:#000000;stroke-width:14.5898;stroke-linecap:round;stroke-linejoin:round;}
	.st18{filter:url(#Adobe_OpacityMaskFilter_8_);}
	.st19{mask:url(#mask-2_9_);fill:none;stroke:#000000;stroke-width:14.5898;stroke-linecap:round;stroke-linejoin:round;}
	.st20{filter:url(#Adobe_OpacityMaskFilter_9_);}
	.st21{mask:url(#mask-2_10_);fill:none;stroke:#000000;stroke-width:14.5898;stroke-linecap:round;stroke-linejoin:round;}
	.st22{filter:url(#Adobe_OpacityMaskFilter_10_);}
	.st23{mask:url(#mask-2_11_);fill:none;stroke:#000000;stroke-width:14.5898;stroke-linecap:round;stroke-linejoin:round;}
	.st24{filter:url(#Adobe_OpacityMaskFilter_11_);}
	.st25{mask:url(#mask-2_12_);fill:none;stroke:#000000;stroke-width:14.5898;stroke-linecap:round;stroke-linejoin:round;}
	.st26{filter:url(#Adobe_OpacityMaskFilter_12_);}
	.st27{mask:url(#mask-2_13_);fill:none;stroke:#000000;stroke-width:14.5898;stroke-linecap:round;stroke-linejoin:round;}
	.st28{filter:url(#Adobe_OpacityMaskFilter_13_);}
	.st29{mask:url(#mask-2_14_);fill:#CE8900;}
	.st30{filter:url(#Adobe_OpacityMaskFilter_14_);}
	.st31{mask:url(#mask-2_15_);fill:#CE8900;}
	.st32{filter:url(#Adobe_OpacityMaskFilter_15_);}
	.st33{mask:url(#mask-2_16_);fill:none;stroke:#000000;stroke-width:14.5898;stroke-linecap:round;stroke-linejoin:round;}
	.st34{filter:url(#Adobe_OpacityMaskFilter_16_);}
	.st35{mask:url(#mask-2_17_);fill:none;stroke:#000000;stroke-width:14.5898;stroke-linecap:round;stroke-linejoin:round;}
	.st36{filter:url(#Adobe_OpacityMaskFilter_17_);}
	.st37{mask:url(#mask-2_18_);fill:none;stroke:#000000;stroke-width:14.5898;stroke-linecap:round;stroke-linejoin:round;}
</style>
<title>gift</title>
<desc>Created with Sketch.</desc>
<g id="Party">
	<g id="gift">
		<g transform="translate(1.000000, 25.000000)">
			<path id="Fill-1" class="st0" d="M433.3,442.9h-369c-6.1,0-11-4.9-11-11V193.2h391v238.7C444.3,438,439.4,442.9,433.3,442.9z"/>
			<path id="Fill-3" class="st0" d="M478.2,112H19.4c-6.7,0-12.1,5.4-12.1,12.2V181c0,6.7,5.4,12.2,12.1,12.2h458.8
				c6.7,0,12.1-5.4,12.1-12.2v-56.8C490.4,117.5,484.9,112,478.2,112"/>
			<g id="Clip-6">
			</g>
			<defs>
				<filter id="Adobe_OpacityMaskFilter" filterUnits="userSpaceOnUse" x="53.4" y="193.2" width="391" height="23.3">
					<feColorMatrix  type="matrix" values="1 0 0 0 0  0 1 0 0 0  0 0 1 0 0  0 0 0 1 0"/>
				</filter>
			</defs>
			<mask maskUnits="userSpaceOnUse" x="53.4" y="193.2" width="391" height="23.3" id="mask-2_1_">
				<g class="st1">
					<polygon id="path-1_1_" class="st2" points="0,450.2 497.7,450.2 497.7,0 0,0 					"/>
				</g>
			</mask>
			<polygon id="Fill-5" class="st3" points="53.4,216.5 444.3,216.5 444.3,193.2 53.4,193.2 			"/>
			<defs>
				<filter id="Adobe_OpacityMaskFilter_1_" filterUnits="userSpaceOnUse" x="210.9" y="193.2" width="75.9" height="249.8">
					<feColorMatrix  type="matrix" values="1 0 0 0 0  0 1 0 0 0  0 0 1 0 0  0 0 0 1 0"/>
				</filter>
			</defs>
			<mask maskUnits="userSpaceOnUse" x="210.9" y="193.2" width="75.9" height="249.8" id="mask-2_2_">
				<g class="st4">
					<polygon id="path-1_2_" class="st2" points="0,450.2 497.7,450.2 497.7,0 0,0 					"/>
				</g>
			</mask>
			<polygon id="Fill-7" class="st5" points="210.9,442.9 286.8,442.9 286.8,193.2 210.9,193.2 			"/>
			<defs>
				<filter id="Adobe_OpacityMaskFilter_2_" filterUnits="userSpaceOnUse" x="210.9" y="193.2" width="75.9" height="23.3">
					<feColorMatrix  type="matrix" values="1 0 0 0 0  0 1 0 0 0  0 0 1 0 0  0 0 0 1 0"/>
				</filter>
			</defs>
			<mask maskUnits="userSpaceOnUse" x="210.9" y="193.2" width="75.9" height="23.3" id="mask-2_3_">
				<g class="st6">
					<polygon id="path-1_3_" class="st2" points="0,450.2 497.7,450.2 497.7,0 0,0 					"/>
				</g>
			</mask>
			<polygon id="Fill-8" class="st7" points="210.9,216.5 286.8,216.5 286.8,193.2 210.9,193.2 			"/>
			<defs>
				<filter id="Adobe_OpacityMaskFilter_3_" filterUnits="userSpaceOnUse" x="196.8" y="112" width="104.1" height="81.1">
					<feColorMatrix  type="matrix" values="1 0 0 0 0  0 1 0 0 0  0 0 1 0 0  0 0 0 1 0"/>
				</filter>
			</defs>
			<mask maskUnits="userSpaceOnUse" x="196.8" y="112" width="104.1" height="81.1" id="mask-2_4_">
				<g class="st8">
					<polygon id="path-1_4_" class="st2" points="0,450.2 497.7,450.2 497.7,0 0,0 					"/>
				</g>
			</mask>
			<polygon id="Fill-9" class="st9" points="196.8,193.2 300.9,193.2 300.9,112 196.8,112 			"/>
			<defs>
				<filter id="Adobe_OpacityMaskFilter_4_" filterUnits="userSpaceOnUse" x="219.9" y="67" width="57.9" height="45">
					<feColorMatrix  type="matrix" values="1 0 0 0 0  0 1 0 0 0  0 0 1 0 0  0 0 0 1 0"/>
				</filter>
			</defs>
			<mask maskUnits="userSpaceOnUse" x="219.9" y="67" width="57.9" height="45" id="mask-2_5_">
				<g class="st10">
					<polygon id="path-1_5_" class="st2" points="0,450.2 497.7,450.2 497.7,0 0,0 					"/>
				</g>
			</mask>
			<polygon id="Fill-10" class="st11" points="219.9,112 277.8,112 277.8,67 219.9,67 			"/>
			<defs>
				<filter id="Adobe_OpacityMaskFilter_5_" filterUnits="userSpaceOnUse" x="77.2" y="7.3" width="142.7" height="104.7">
					<feColorMatrix  type="matrix" values="1 0 0 0 0  0 1 0 0 0  0 0 1 0 0  0 0 0 1 0"/>
				</filter>
			</defs>
			<mask maskUnits="userSpaceOnUse" x="77.2" y="7.3" width="142.7" height="104.7" id="mask-2_6_">
				<g class="st12">
					<polygon id="path-1_6_" class="st2" points="0,450.2 497.7,450.2 497.7,0 0,0 					"/>
				</g>
			</mask>
			<path id="Fill-11" class="st13" d="M219.9,67c0,0-66.7-84.8-115.5-52.2s-17,97.3-17,97.3h132.5V67z"/>
			<defs>
				<filter id="Adobe_OpacityMaskFilter_6_" filterUnits="userSpaceOnUse" x="277.8" y="7.3" width="142.7" height="104.7">
					<feColorMatrix  type="matrix" values="1 0 0 0 0  0 1 0 0 0  0 0 1 0 0  0 0 0 1 0"/>
				</filter>
			</defs>
			<mask maskUnits="userSpaceOnUse" x="277.8" y="7.3" width="142.7" height="104.7" id="mask-2_7_">
				<g class="st14">
					<polygon id="path-1_7_" class="st2" points="0,450.2 497.7,450.2 497.7,0 0,0 					"/>
				</g>
			</mask>
			<path id="Fill-12" class="st15" d="M277.8,67c0,0,66.7-84.8,115.5-52.2s17,97.3,17,97.3H277.8V67z"/>
			<defs>
				<filter id="Adobe_OpacityMaskFilter_7_" filterUnits="userSpaceOnUse" x="46.1" y="185.9" width="405.6" height="264.4">
					<feColorMatrix  type="matrix" values="1 0 0 0 0  0 1 0 0 0  0 0 1 0 0  0 0 0 1 0"/>
				</filter>
			</defs>
			<mask maskUnits="userSpaceOnUse" x="46.1" y="185.9" width="405.6" height="264.4" id="mask-2_8_">
				<g class="st16">
					<polygon id="path-1_8_" class="st2" points="0,450.2 497.7,450.2 497.7,0 0,0 					"/>
				</g>
			</mask>
			<path id="Stroke-13" class="st17" d="M433.3,442.9h-369c-6.1,0-11-4.9-11-11V193.2h391v238.7C444.3,438,439.4,442.9,433.3,442.9z
				"/>
			<defs>
				<filter id="Adobe_OpacityMaskFilter_8_" filterUnits="userSpaceOnUse" x="203.6" y="185.9" width="90.5" height="264.4">
					<feColorMatrix  type="matrix" values="1 0 0 0 0  0 1 0 0 0  0 0 1 0 0  0 0 0 1 0"/>
				</filter>
			</defs>
			<mask maskUnits="userSpaceOnUse" x="203.6" y="185.9" width="90.5" height="264.4" id="mask-2_9_">
				<g class="st18">
					<polygon id="path-1_9_" class="st2" points="0,450.2 497.7,450.2 497.7,0 0,0 					"/>
				</g>
			</mask>
			<polygon id="Stroke-14" class="st19" points="210.9,442.9 286.8,442.9 286.8,193.2 210.9,193.2 			"/>
			<defs>
				<filter id="Adobe_OpacityMaskFilter_9_" filterUnits="userSpaceOnUse" x="189.5" y="104.7" width="118.7" height="95.7">
					<feColorMatrix  type="matrix" values="1 0 0 0 0  0 1 0 0 0  0 0 1 0 0  0 0 0 1 0"/>
				</filter>
			</defs>
			<mask maskUnits="userSpaceOnUse" x="189.5" y="104.7" width="118.7" height="95.7" id="mask-2_10_">
				<g class="st20">
					<polygon id="path-1_10_" class="st2" points="0,450.2 497.7,450.2 497.7,0 0,0 					"/>
				</g>
			</mask>
			<polygon id="Stroke-15" class="st21" points="196.8,193.2 300.9,193.2 300.9,112 196.8,112 			"/>
			<defs>
				<filter id="Adobe_OpacityMaskFilter_10_" filterUnits="userSpaceOnUse" x="0" y="104.7" width="497.7" height="95.7">
					<feColorMatrix  type="matrix" values="1 0 0 0 0  0 1 0 0 0  0 0 1 0 0  0 0 0 1 0"/>
				</filter>
			</defs>
			<mask maskUnits="userSpaceOnUse" x="0" y="104.7" width="497.7" height="95.7" id="mask-2_11_">
				<g class="st22">
					<polygon id="path-1_11_" class="st2" points="0,450.2 497.7,450.2 497.7,0 0,0 					"/>
				</g>
			</mask>
			<path id="Stroke-16" class="st23" d="M478.2,112H19.4c-6.7,0-12.1,5.4-12.1,12.2V181c0,6.7,5.4,12.2,12.1,12.2h458.8
				c6.7,0,12.1-5.4,12.1-12.2v-56.8C490.4,117.5,484.9,112,478.2,112z"/>
			<defs>
				<filter id="Adobe_OpacityMaskFilter_11_" filterUnits="userSpaceOnUse" x="212.6" y="59.7" width="72.4" height="59.6">
					<feColorMatrix  type="matrix" values="1 0 0 0 0  0 1 0 0 0  0 0 1 0 0  0 0 0 1 0"/>
				</filter>
			</defs>
			<mask maskUnits="userSpaceOnUse" x="212.6" y="59.7" width="72.4" height="59.6" id="mask-2_12_">
				<g class="st24">
					<polygon id="path-1_12_" class="st2" points="0,450.2 497.7,450.2 497.7,0 0,0 					"/>
				</g>
			</mask>
			<polygon id="Stroke-17" class="st25" points="219.9,112 277.8,112 277.8,67 219.9,67 			"/>
			<defs>
				<filter id="Adobe_OpacityMaskFilter_12_" filterUnits="userSpaceOnUse" x="69.9" y="0" width="157.3" height="119.3">
					<feColorMatrix  type="matrix" values="1 0 0 0 0  0 1 0 0 0  0 0 1 0 0  0 0 0 1 0"/>
				</filter>
			</defs>
			<mask maskUnits="userSpaceOnUse" x="69.9" y="0" width="157.3" height="119.3" id="mask-2_13_">
				<g class="st26">
					<polygon id="path-1_13_" class="st2" points="0,450.2 497.7,450.2 497.7,0 0,0 					"/>
				</g>
			</mask>
			<path id="Stroke-18" class="st27" d="M219.9,67c0,0-66.7-84.8-115.5-52.2s-17,97.3-17,97.3h132.5V67z"/>
			<defs>
				<filter id="Adobe_OpacityMaskFilter_13_" filterUnits="userSpaceOnUse" x="87.4" y="66.9" width="132.5" height="45.1">
					<feColorMatrix  type="matrix" values="1 0 0 0 0  0 1 0 0 0  0 0 1 0 0  0 0 0 1 0"/>
				</filter>
			</defs>
			<mask maskUnits="userSpaceOnUse" x="87.4" y="66.9" width="132.5" height="45.1" id="mask-2_14_">
				<g class="st28">
					<polygon id="path-1_14_" class="st2" points="0,450.2 497.7,450.2 497.7,0 0,0 					"/>
				</g>
			</mask>
			<path id="Fill-19" class="st29" d="M87.4,112c0,0,2.2-42.7,33.3-45c31.1-2.4,99.2,45,99.2,45H87.4z"/>
			<defs>
				<filter id="Adobe_OpacityMaskFilter_14_" filterUnits="userSpaceOnUse" x="277.8" y="66.9" width="132.5" height="45.1">
					<feColorMatrix  type="matrix" values="1 0 0 0 0  0 1 0 0 0  0 0 1 0 0  0 0 0 1 0"/>
				</filter>
			</defs>
			<mask maskUnits="userSpaceOnUse" x="277.8" y="66.9" width="132.5" height="45.1" id="mask-2_15_">
				<g class="st30">
					<polygon id="path-1_15_" class="st2" points="0,450.2 497.7,450.2 497.7,0 0,0 					"/>
				</g>
			</mask>
			<path id="Fill-20" class="st31" d="M410.3,112c0,0-2.2-42.7-33.3-45c-31.1-2.4-99.2,45-99.2,45H410.3z"/>
			<defs>
				<filter id="Adobe_OpacityMaskFilter_15_" filterUnits="userSpaceOnUse" x="80.1" y="59.6" width="147.1" height="59.7">
					<feColorMatrix  type="matrix" values="1 0 0 0 0  0 1 0 0 0  0 0 1 0 0  0 0 0 1 0"/>
				</filter>
			</defs>
			<mask maskUnits="userSpaceOnUse" x="80.1" y="59.6" width="147.1" height="59.7" id="mask-2_16_">
				<g class="st32">
					<polygon id="path-1_16_" class="st2" points="0,450.2 497.7,450.2 497.7,0 0,0 					"/>
				</g>
			</mask>
			<path id="Stroke-21" class="st33" d="M87.4,112c0,0,2.2-42.7,33.3-45c31.1-2.4,99.2,45,99.2,45H87.4z"/>
			<defs>
				<filter id="Adobe_OpacityMaskFilter_16_" filterUnits="userSpaceOnUse" x="270.5" y="0" width="157.3" height="119.3">
					<feColorMatrix  type="matrix" values="1 0 0 0 0  0 1 0 0 0  0 0 1 0 0  0 0 0 1 0"/>
				</filter>
			</defs>
			<mask maskUnits="userSpaceOnUse" x="270.5" y="0" width="157.3" height="119.3" id="mask-2_17_">
				<g class="st34">
					<polygon id="path-1_17_" class="st2" points="0,450.2 497.7,450.2 497.7,0 0,0 					"/>
				</g>
			</mask>
			<path id="Stroke-22" class="st35" d="M277.8,67c0,0,66.7-84.8,115.5-52.2s17,97.3,17,97.3H277.8V67z"/>
			<defs>
				<filter id="Adobe_OpacityMaskFilter_17_" filterUnits="userSpaceOnUse" x="270.5" y="59.6" width="147.1" height="59.7">
					<feColorMatrix  type="matrix" values="1 0 0 0 0  0 1 0 0 0  0 0 1 0 0  0 0 0 1 0"/>
				</filter>
			</defs>
			<mask maskUnits="userSpaceOnUse" x="270.5" y="59.6" width="147.1" height="59.7" id="mask-2_18_">
				<g class="st36">
					<polygon id="path-1_18_" class="st2" points="0,450.2 497.7,450.2 497.7,0 0,0 					"/>
				</g>
			</mask>
			<path id="Stroke-23" class="st37" d="M410.3,112c0,0-2.2-42.7-33.3-45c-31.1-2.4-99.2,45-99.2,45H410.3z"/>
		</g>
	</g>
</g>
</svg>
