<?xml version="1.0" encoding="iso-8859-1"?>
<!-- Uploaded to: SVG Repo, www.svgrepo.com, Generator: SVG Repo Mixer Tools -->
<svg fill="#000000" height="800px" width="800px" version="1.1" id="Capa_1" xmlns="http://www.w3.org/2000/svg" xmlns:xlink="http://www.w3.org/1999/xlink" 
	 viewBox="0 0 463 463" xml:space="preserve">
<g>
	<path d="M367.5,0h-272C86.953,0,80,6.953,80,15.5v432c0,8.547,6.953,15.5,15.5,15.5h272c8.547,0,15.5-6.953,15.5-15.5v-432
		C383,6.953,376.047,0,367.5,0z M95,447.5v-432c0-0.276,0.224-0.5,0.5-0.5H200v433H95.5C95.224,448,95,447.776,95,447.5z M368,447.5
		c0,0.276-0.224,0.5-0.5,0.5H215V15h152.5c0.276,0,0.5,0.224,0.5,0.5V447.5z"/>
	<path d="M175.5,136c-4.142,0-7.5,3.358-7.5,7.5v176c0,4.142,3.358,7.5,7.5,7.5s7.5-3.358,7.5-7.5v-176
		C183,139.358,179.642,136,175.5,136z"/>
	<path d="M239.5,136c-4.142,0-7.5,3.358-7.5,7.5v176c0,4.142,3.358,7.5,7.5,7.5s7.5-3.358,7.5-7.5v-176
		C247,139.358,243.642,136,239.5,136z"/>
	<path d="M151.5,184h-40c-4.142,0-7.5,3.358-7.5,7.5v80c0,4.142,3.358,7.5,7.5,7.5h40c4.142,0,7.5-3.358,7.5-7.5v-80
		C159,187.358,155.642,184,151.5,184z M144,199v9h-25v-9H144z M119,264v-41h25v41H119z"/>
</g>
</svg>