<!--?xml version="1.0" encoding="utf-8"?-->
<!-- Generator: Adobe Illustrator 18.0.0, SVG Export Plug-In . SVG Version: 6.00 Build 0)  -->

<svg version="1.1" id="_x31_0" xmlns="http://www.w3.org/2000/svg" xmlns:xlink="http://www.w3.org/1999/xlink" x="0px" y="0px" viewBox="0 0 512 512" style="width: 256px; height: 256px; opacity: 1;" xml:space="preserve">
<style type="text/css">
	.st0{fill:#374149;}
</style>
<g>
	<path class="st0" d="M150.23,397.147c-5.523-4.172-12.262-10.161-18.965-16.859c-6.71-6.707-12.702-13.446-16.867-18.962
		c-0.898-1.175-2.078-2.789-3.234-4.613c-0.102-0.191-0.223-0.348-0.321-0.543c-0.008,0.008-0.015,0.016-0.023,0.023
		c-0.031-0.05-0.058-0.086-0.09-0.136c-27.805,27.351-57.938,44.562-80.977,54.667c-2.121,19.637-6.789,38.894-11.683,55.183
		c-3.586,11.614-7.301,21.61-10.305,28.661c-1.918-0.008-3.906,0.667-5.461,2.218c-2.691,2.687-2.985,6.672-0.926,9.293
		c0.102,0.145,0.148,0.34,0.258,0.473l0.027-0.027c0.039,0.042,0.047,0.102,0.086,0.141l10.438-10.43
		c-0.086-0.086-0.179-0.167-0.266-0.238l49.809-51.809c-2.79-5.582-1.5-12.969,3.644-18.11c6.274-6.269,15.898-6.812,21.496-1.214
		c5.606,5.602,5.066,15.218-1.206,21.492c-5.145,5.141-12.535,6.43-18.122,3.641l-59.25,56.902c0.184-0.074,0.394-0.161,0.586-0.238
		l-3.446,3.441l-0.012,0.008h0.004l-0.113,0.114c2.57,2.57,6.996,2.32,9.874-0.558c1.813-1.809,2.578-4.223,2.274-6.406
		c18.246-6.973,50.48-17.73,83.566-21.301c9.179-20.89,24.289-47.61,47.433-73.152c2.356-2.578,4.688-5.16,7.227-7.707
		c-0.012-0.008-0.02-0.015-0.028-0.019c0.035-0.039,0.07-0.082,0.11-0.122C153.535,399.635,151.605,398.186,150.23,397.147z" style="fill: rgb(0, 0, 0);"></path>
	<path class="st0" d="M499.647,13.102l-0.809-0.813C490.593,4.25,479.651,0,467.194,0c-6.898,0-14.386,1.289-22.262,3.82
		c-20.508,6.602-45.293,22.192-73.66,46.324c-19.633,16.699-38.519,35.481-56.109,55.801
		c-3.367,3.821-186.32,211.238-191.843,217.48c-9.742,10.336,0.062,23.332,3.289,27.598c3.973,5.258,9.645,11.64,15.973,17.961
		c6.324,6.32,12.707,11.992,17.973,15.969c3.476,2.617,9.953,7.503,17.214,7.503c3.918,0,7.414-1.414,10.293-4.117
		c4.89-4.317,217.866-191.624,217.866-191.624c20.352-17.602,39.149-36.477,55.855-56.102
		c24.149-28.351,39.738-53.121,46.348-73.625C517.186,38.902,508.514,22.18,499.647,13.102z M193.828,288.296l27.672,27.66
		l1.855,1.867l-47.308,41.621c-2.859-2.324-7.118-6.023-12.508-11.406c-5.375-5.375-9.078-9.633-11.402-12.492L193.828,288.296z
		 M242.398,301.073l-31.809-31.781l126.934-143.894c16.633-19.218,34.449-36.945,52.961-52.691
		c32.691-27.808,59.839-43.125,76.457-43.125c4.808,0,8.461,1.27,11.515,4.23c11.793,12.145-2.875,44.891-39.242,87.598
		c-15.746,18.496-33.48,36.301-52.812,53.019L242.398,301.073z" style="fill: rgb(0, 0, 0);"></path>
</g>
</svg>
