<?xml version="1.0" encoding="UTF-8" standalone="no"?>
<!-- Created with Inkscape (http://www.inkscape.org/) -->

<svg
   width="883.67267mm"
   height="251.6666mm"
   viewBox="0 0 883.67264 251.66659"
   version="1.1"
   id="svg5"
   xml:space="preserve"
   inkscape:export-filename="plate.svg"
   inkscape:export-xdpi="96"
   inkscape:export-ydpi="96"
   sodipodi:docname="logo_yd.svg"
   inkscape:version="1.2.2 (732a01da63, 2022-12-09)"
   xmlns:inkscape="http://www.inkscape.org/namespaces/inkscape"
   xmlns:sodipodi="http://sodipodi.sourceforge.net/DTD/sodipodi-0.dtd"
   xmlns="http://www.w3.org/2000/svg"
   xmlns:svg="http://www.w3.org/2000/svg"><sodipodi:namedview
     id="namedview7"
     pagecolor="#ffffff"
     bordercolor="#000000"
     borderopacity="0.25"
     inkscape:showpageshadow="2"
     inkscape:pageopacity="0"
     inkscape:pagecheckerboard="0"
     inkscape:deskcolor="#dcdcdc"
     inkscape:document-units="mm"
     showgrid="false"
     inkscape:zoom="0.36388287"
     inkscape:cx="1802.7779"
     inkscape:cy="380.61699"
     inkscape:window-width="1600"
     inkscape:window-height="822"
     inkscape:window-x="1792"
     inkscape:window-y="-8"
     inkscape:window-maximized="1"
     inkscape:current-layer="svg5"
     showguides="false" /><defs
     id="defs2"><clipPath
       clipPathUnits="userSpaceOnUse"
       id="clipPath8222"><g
         id="g8226"
         transform="matrix(2.8346458,0,0,-2.8346457,-4535.6156,1202.3129)"><path
           d="M -221.77512,-93.85702 H 2071.2803 V 1317.2541 H -221.77512 Z"
           id="path8224"
           style="stroke-width:0.352778" /></g></clipPath><clipPath
       clipPathUnits="userSpaceOnUse"
       id="clipPath8228"><g
         id="g8232"
         transform="matrix(2.8346458,0,0,-2.8346457,-820.11068,1871.3793)"><path
           d="M -221.77512,-93.85702 H 2071.2803 V 1317.2541 H -221.77512 Z"
           id="path8230"
           style="stroke-width:0.352778" /></g></clipPath><clipPath
       clipPathUnits="userSpaceOnUse"
       id="clipPath8234"><g
         id="g8238"
         transform="matrix(2.8346458,0,0,-2.8346457,-2294.5644,3438.7563)"><path
           d="M -221.77512,-93.85702 H 2071.2803 V 1317.2541 H -221.77512 Z"
           id="path8236"
           style="stroke-width:0.352778" /></g></clipPath><clipPath
       clipPathUnits="userSpaceOnUse"
       id="clipPath8240"><g
         id="g8244"
         transform="matrix(2.8346458,0,0,-2.8346457,-2927.8079,3438.7563)"><path
           d="M -221.77512,-93.85702 H 2071.2803 V 1317.2541 H -221.77512 Z"
           id="path8242"
           style="stroke-width:0.352778" /></g></clipPath><clipPath
       clipPathUnits="userSpaceOnUse"
       id="clipPath8246"><g
         id="g8250"
         transform="matrix(2.8346458,0,0,-2.8346457,-3048.2083,1531.8065)"><path
           d="M -221.77512,-93.85702 H 2071.2803 V 1317.2541 H -221.77512 Z"
           id="path8248"
           style="stroke-width:0.352778" /></g></clipPath><clipPath
       clipPathUnits="userSpaceOnUse"
       id="clipPath8252"><g
         id="g8256"
         transform="matrix(2.8346458,0,0,-2.8346457,-2928.6038,829.74401)"><path
           d="M -221.77512,-93.85702 H 2071.2803 V 1317.2541 H -221.77512 Z"
           id="path8254"
           style="stroke-width:0.352778" /></g></clipPath><clipPath
       clipPathUnits="userSpaceOnUse"
       id="clipPath8258"><g
         id="g8262"
         transform="matrix(2.8346458,0,0,-2.8346457,-3151.8177,1176.3954)"><path
           d="M -221.77512,-93.85702 H 2071.2803 V 1317.2541 H -221.77512 Z"
           id="path8260"
           style="stroke-width:0.352778" /></g></clipPath><clipPath
       clipPathUnits="userSpaceOnUse"
       id="clipPath8264"><g
         id="g8268"
         transform="matrix(2.8346458,0,0,-2.8346457,-2339.3056,1535.6141)"><path
           d="M -221.77512,-93.85702 H 2071.2803 V 1317.2541 H -221.77512 Z"
           id="path8266"
           style="stroke-width:0.352778" /></g></clipPath><clipPath
       clipPathUnits="userSpaceOnUse"
       id="clipPath8270"><g
         id="g8274"
         transform="matrix(2.8346458,0,0,-2.8346457,-2255.1415,1535.6141)"><path
           d="M -221.77512,-93.85702 H 2071.2803 V 1317.2541 H -221.77512 Z"
           id="path8272"
           style="stroke-width:0.352778" /></g></clipPath><clipPath
       clipPathUnits="userSpaceOnUse"
       id="clipPath8276"><g
         id="g8280"
         transform="matrix(2.8346458,0,0,-2.8346457,-2294.515,3549.1694)"><path
           d="M -221.77512,-93.85702 H 2071.2803 V 1317.2541 H -221.77512 Z"
           id="path8278"
           style="stroke-width:0.352778" /></g></clipPath><clipPath
       clipPathUnits="userSpaceOnUse"
       id="clipPath8282"><g
         id="g8286"
         transform="matrix(2.8346458,0,0,-2.8346457,-2425.0546,885.56632)"><path
           d="M -221.77512,-93.85702 H 2071.2803 V 1317.2541 H -221.77512 Z"
           id="path8284"
           style="stroke-width:0.352778" /></g></clipPath><clipPath
       clipPathUnits="userSpaceOnUse"
       id="clipPath8288"><g
         id="g8292"
         transform="matrix(2.8346458,0,0,-2.8346457,-2664.1645,2657.0179)"><path
           d="M -221.77512,-93.85702 H 2071.2803 V 1317.2541 H -221.77512 Z"
           id="path8290"
           style="stroke-width:0.352778" /></g></clipPath><clipPath
       clipPathUnits="userSpaceOnUse"
       id="clipPath8294"><g
         id="g8298"
         transform="matrix(2.8346458,0,0,-2.8346457,-1832.6488,998.53361)"><path
           d="M -221.77512,-93.85702 H 2071.2803 V 1317.2541 H -221.77512 Z"
           id="path8296"
           style="stroke-width:0.352778" /></g></clipPath><clipPath
       clipPathUnits="userSpaceOnUse"
       id="clipPath8300"><g
         id="g8304"
         transform="matrix(2.8346458,0,0,-2.8346457,-1673.8988,1918.9261)"><path
           d="M -221.77512,-93.85702 H 2071.2803 V 1317.2541 H -221.77512 Z"
           id="path8302"
           style="stroke-width:0.352778" /></g></clipPath><clipPath
       clipPathUnits="userSpaceOnUse"
       id="clipPath8306"><g
         id="g8310"
         transform="matrix(2.8346458,0,0,-2.8346457,-1673.9052,1903.684)"><path
           d="M -221.77512,-93.85702 H 2071.2803 V 1317.2541 H -221.77512 Z"
           id="path8308"
           style="stroke-width:0.352778" /></g></clipPath><clipPath
       clipPathUnits="userSpaceOnUse"
       id="clipPath8312"><g
         id="g8316"
         transform="matrix(2.8346458,0,0,-2.8346457,-2659.4174,51.513505)"><path
           d="M -221.77512,-93.85702 H 2071.2803 V 1317.2541 H -221.77512 Z"
           id="path8314"
           style="stroke-width:0.352778" /></g></clipPath><clipPath
       clipPathUnits="userSpaceOnUse"
       id="clipPath8318"><g
         id="g8322"
         transform="matrix(2.8346458,0,0,-2.8346457,-3533.8999,2921.2591)"><path
           d="M -221.77512,-93.85702 H 2071.2803 V 1317.2541 H -221.77512 Z"
           id="path8320"
           style="stroke-width:0.352778" /></g></clipPath></defs><g
     id="g896"
     transform="matrix(0.20100072,0,0,0.20100072,5.6142084e-7,6.2320555e-6)"><g
       id="g2814"
       transform="matrix(0.35277776,0,0,-0.35277778,938.18331,18.17282)"
       clip-path="url(#clipPath8312)"><path
         d="m 0,0 c -303.765,0 -600.892,-89.114 -859.627,-261.109 -715.706,-475.77 -910.907,-1445.106 -435.137,-2160.811 299.766,-450.941 795.604,-695.251 1300.351,-695.294 296.355,-0.027 595.695,84.155 860.46,260.158 346.701,230.472 582.9,582.162 665.086,990.286 82.186,408.123 0.522,823.822 -229.949,1170.524 C 1070.712,-349.544 719.021,-113.345 310.897,-31.158 207.347,-10.307 103.274,0 0,0 m 4.536,-3148.471 c -105.201,0 -210.451,10.53 -315.03,31.59 -202.319,40.741 -391.815,118.836 -563.223,232.112 -177.471,117.283 -327.67,267.331 -446.426,445.977 -118.756,178.647 -198.974,375.215 -238.424,584.248 -38.103,201.896 -36.765,406.847 3.977,609.165 40.742,202.319 118.837,391.814 232.114,563.223 117.283,177.471 267.331,327.67 445.978,446.426 178.645,118.756 375.215,198.973 584.248,238.423 201.89,38.104 406.843,36.766 609.164,-3.977 202.319,-40.74 391.814,-118.836 563.223,-232.114 177.47,-117.283 327.67,-267.331 446.426,-445.977 118.755,-178.645 198.973,-375.215 238.423,-584.248 38.104,-201.894 36.764,-406.845 -3.977,-609.165 -40.743,-202.318 -118.838,-391.812 -232.114,-563.221 -117.283,-177.471 -267.332,-327.669 -445.978,-446.426 -178.646,-118.756 -375.215,-198.973 -584.247,-238.423 -97.533,-18.407 -195.815,-27.613 -294.134,-27.613"
         style="fill:#000000;fill-opacity:1;fill-rule:nonzero;stroke:none"
         id="path2816" /></g><g
       id="g2818"
       transform="matrix(0.35277776,0,0,-0.35277778,590.51652,671.57742)"
       clip-path="url(#clipPath8306)"><path
         d="M 0,0 C -14.81,49.899 -25.68,100.491 -32.7,151.34"
         style="fill:#ffffff;fill-opacity:1;fill-rule:nonzero;stroke:none"
         id="path2820" /></g><g
       id="g2822"
       transform="matrix(0.35277776,0,0,-0.35277778,590.51426,676.95449)"
       clip-path="url(#clipPath8300)"><path
         d="m 0,0 c -6.572,0 -12.637,4.284 -14.602,10.906 -14.865,50.09 -26.031,101.765 -33.186,153.591 -1.151,8.335 4.674,16.026 13.01,17.178 8.332,1.137 16.028,-4.674 17.179,-13.011 C -10.654,118.356 0.185,68.196 14.614,19.578 17.008,11.509 12.409,3.028 4.342,0.635 2.896,0.205 1.436,0 0,0"
         style="fill:#000000;fill-opacity:1;fill-rule:nonzero;stroke:none"
         id="path2824" /></g><g
       id="g2830"
       transform="matrix(0.35277776,0,0,-0.35277778,939.85798,937.33688)"
       clip-path="url(#clipPath8288)"><path
         d="m 0,0 c -62.295,-0.002 -124.967,5.573 -187.408,16.853 -123.386,22.291 -240.45,65.865 -347.942,129.514 -135.859,80.448 -249.396,188.404 -337.454,320.873 -4.66,7.009 -2.755,16.465 4.254,21.125 7.008,4.659 16.467,2.755 21.125,-4.254 85.499,-128.618 195.721,-233.429 327.603,-311.52 104.362,-61.798 218.025,-104.105 337.832,-125.746 259.393,-46.87 523.177,7.718 742.761,153.689 225.946,150.199 379.877,379.395 433.438,645.367 53.561,265.974 0.34,536.888 -149.858,762.831 -310.059,466.422 -941.773,593.634 -1408.199,283.578 -99.339,-66.037 -185.27,-147.749 -255.403,-242.87 -4.993,-6.772 -14.533,-8.216 -21.307,-3.219 -6.774,4.992 -8.216,14.532 -3.222,21.305 72.247,97.986 160.754,182.154 263.061,250.162 232.723,154.704 511.76,209.529 785.717,154.356 273.953,-55.168 510.025,-213.716 664.731,-446.44 154.706,-232.725 209.524,-511.765 154.354,-785.717 C 968.916,565.932 810.367,329.859 577.643,175.155 404.328,59.941 204.263,0.002 0,0"
         style="fill:#000000;fill-opacity:1;fill-rule:nonzero;stroke:none"
         id="path2832" /></g><g
       id="g2838"
       transform="matrix(0.35277776,0,0,-0.35277778,809.45386,1252.0681)"
       clip-path="url(#clipPath8276)"><path
         d="m 0,0 c -25.797,0 -49.899,10.194 -67.866,28.706 -17.967,18.512 -27.438,42.906 -26.669,68.692 l 50.019,1675.022 0.315,1.326 c 0.826,4.375 1.099,25.377 0.782,62.283 -0.031,3.563 -0.054,6.281 -0.054,7.739 0,65.83 -23.864,99.209 -70.929,99.209 -4.69,0 -9.441,-0.344 -14.122,-1.025 l -15.249,-2.213 v 723.864 c 0,7.364 5.97,13.333 13.333,13.333 7.364,0 13.333,-5.969 13.333,-13.333 v -693.99 c 0.903,0.021 1.804,0.03 2.705,0.03 62.023,0 97.595,-45.879 97.595,-125.875 0,-1.415 0.023,-4.051 0.053,-7.509 0.352,-41.012 0.044,-59.483 -1.179,-67.018 L -67.881,96.603 C -68.434,78.087 -61.632,60.571 -48.732,47.278 -35.831,33.985 -18.523,26.665 0,26.665 c 18.54,0 35.857,7.331 48.76,20.642 12.904,13.31 19.694,30.847 19.118,49.376 L 16.215,1760.337 c -0.805,6.464 -0.576,22.805 0.837,66.25 0.267,8.179 0.497,15.243 0.497,17.181 0,81.579 36.298,128.604 99.658,129.238 v 690.597 c 0,7.364 5.969,13.333 13.333,13.333 7.364,0 13.333,-5.969 13.333,-13.333 v -719.268 l -14.67,1.477 c -3.514,0.353 -7.112,0.534 -10.691,0.534 -61.407,0 -74.297,-55.782 -74.297,-102.578 0,-2.264 -0.184,-8.037 -0.51,-18.048 -0.546,-16.755 -1.824,-55.99 -1.058,-61.923 l 0.223,-1.104 -0.025,-0.781 51.686,-1664.4 C 95.333,71.705 85.877,47.284 67.907,28.747 49.936,10.21 25.819,0 0,0"
         style="fill:#000000;fill-opacity:1;fill-rule:nonzero;stroke:none"
         id="path2840" /></g><g
       id="g2842"
       transform="matrix(0.35277776,0,0,-0.35277778,795.56376,541.73054)"
       clip-path="url(#clipPath8270)"><path
         d="m 0,0 c -7.364,0 -13.333,5.969 -13.333,13.333 v 636.715 c 0,7.364 5.969,13.333 13.333,13.333 7.364,0 13.333,-5.969 13.333,-13.333 V 13.333 C 13.333,5.969 7.364,0 0,0"
         style="fill:#000000;fill-opacity:1;fill-rule:nonzero;stroke:none"
         id="path2844" /></g><g
       id="g2846"
       transform="matrix(0.35277776,0,0,-0.35277778,825.25498,541.73054)"
       clip-path="url(#clipPath8264)"><path
         d="m 0,0 c -7.364,0 -13.333,5.969 -13.333,13.333 v 636.715 c 0,7.364 5.969,13.333 13.333,13.333 7.364,0 13.333,-5.969 13.333,-13.333 V 13.333 C 13.333,5.969 7.364,0 0,0"
         style="fill:#000000;fill-opacity:1;fill-rule:nonzero;stroke:none"
         id="path2848" /></g><g
       id="g2854"
       transform="matrix(0.35277776,0,0,-0.35277778,1033.1463,292.71525)"
       clip-path="url(#clipPath8252)"><path
         d="m 0,0 c -89.151,0 -185.316,-159.538 -209.993,-348.379 -17.016,-130.218 -14.112,-236.517 8.628,-315.946 27.274,-95.26 83.518,-149.061 167.174,-159.91 l 11.95,-1.55 -50.272,-1793.221 c -0.547,-19.536 6.655,-38.012 20.28,-52.025 13.625,-14.011 31.892,-21.729 51.436,-21.729 19.545,0 37.812,7.718 51.437,21.729 13.625,14.013 20.827,32.489 20.28,52.025 l -50.271,1793.186 11.791,1.67 c 218.391,30.95 191.116,371.984 177.552,475.771 C 185.317,-159.538 89.152,0 0,0 m -0.797,-2719.425 c -26.808,0 -51.865,10.585 -70.554,29.805 -18.689,19.22 -28.568,44.564 -27.816,71.362 l 49.603,1769.408 c -88.59,15.708 -148.255,75.261 -177.437,177.185 -23.75,82.955 -26.924,192.885 -9.433,326.741 23.352,178.707 120.387,371.59 236.434,371.59 116.047,0 213.081,-192.883 236.435,-371.59 11.623,-88.965 18.444,-217.846 -15.085,-326.618 -30.776,-99.832 -90.583,-160.785 -173.386,-177.023 l 49.611,-1769.693 c 0.751,-26.798 -9.129,-52.142 -27.817,-71.362 -18.69,-19.22 -43.746,-29.805 -70.555,-29.805"
         style="fill:#000000;fill-opacity:1;fill-rule:nonzero;stroke:none"
         id="path2856" /></g><g
       id="g2858"
       transform="matrix(0.35277776,0,0,-0.35277778,1075.3401,540.3873)"
       clip-path="url(#clipPath8246)"><path
         d="m 0,0 c -1.114,0 -2.247,0.195 -3.352,0.612 -4.922,1.853 -7.412,7.344 -5.559,12.267 100.574,267.32 -20.164,524.817 -21.396,527.388 -2.272,4.742 -0.269,10.429 4.473,12.702 4.744,2.269 10.432,0.271 12.705,-4.474 1.296,-2.706 31.98,-67.446 50.325,-166.986 C 54.136,289.598 62.98,149.87 8.915,6.172 7.479,2.353 3.853,0 0,0"
         style="fill:#000000;fill-opacity:1;fill-rule:nonzero;stroke:none"
         id="path2860" /></g><g
       id="g2862"
       transform="matrix(0.35277776,0,0,-0.35277778,1032.8655,1213.1168)"
       clip-path="url(#clipPath8240)"><path
         d="m 0,0 c -5.259,0 -9.523,4.264 -9.523,9.523 v 687.581 c 0,5.26 4.264,9.523 9.523,9.523 5.26,0 9.523,-4.263 9.523,-9.523 V 9.523 C 9.523,4.264 5.26,0 0,0"
         style="fill:#000000;fill-opacity:1;fill-rule:nonzero;stroke:none"
         id="path2864" /></g><g
       id="g2866"
       transform="matrix(0.35277776,0,0,-0.35277778,809.47128,1213.1168)"
       clip-path="url(#clipPath8234)"><path
         d="m 0,0 c -5.259,0 -9.523,4.264 -9.523,9.523 v 687.581 c 0,5.26 4.264,9.523 9.523,9.523 5.26,0 9.524,-4.263 9.524,-9.523 V 9.523 C 9.524,4.264 5.26,0 0,0"
         style="fill:#000000;fill-opacity:1;fill-rule:nonzero;stroke:none"
         id="path2868" /></g><g
       id="g2870"
       transform="matrix(0.35277776,0,0,-0.35277778,289.31681,660.18104)"
       clip-path="url(#clipPath8228)"><path
         d="M 0,0 C 31.731,8.104 48.964,30.36 56.799,59.486 58.931,67.41 54.297,82.471 48.067,86.032 39.572,90.89 9.771,104.409 0.606,100.405 -11.867,94.955 -19.341,87.913 -31.768,82.179 -49.914,73.803 -42.499,40.454 -36.568,18.217 -30.861,-3.186 -18.628,-7.923 0,0 m -220.934,-391.623 c 2.586,2.21 5.172,4.42 7.758,6.631 -13.007,21.092 -22.344,46.049 -39.713,62.549 -51.106,48.548 -103.844,95.505 -172.695,119.598 -29.221,10.225 -57.393,11.026 -91.729,6.14 120.707,-37.331 218.877,-100.176 296.379,-194.918 M -525.716,743.851 c 3.268,3.927 3.056,3.674 6.324,7.601 -8.663,13.488 -16.505,27.598 -26.151,40.342 -24.829,32.802 -47.876,67.536 -76.532,96.683 -25.732,26.174 -56.899,46.848 -73.644,81.256 -2.182,4.484 -7.758,7.316 -16.842,15.479 5.267,-16.772 6.843,-27.516 11.75,-36.426 21.427,-38.909 44.134,-77.11 65.757,-115.913 15.031,-26.974 28.511,-54.93 59.542,-67.773 16.674,-6.901 33.204,-14.15 49.796,-21.249 M -76.802,-652.436 c 4.49,38.536 10.023,79.081 13.695,119.793 2.801,31.057 15.255,59.302 22.337,88.608 8.906,36.848 25.948,68.063 44.25,98.951 27.858,47.013 59.638,91.692 89.255,137.684 3.142,4.88 2.963,11.9 4.325,17.926 -19.258,-12.024 -35.45,-25.486 -48.323,-41.6 -22.025,-27.57 -39.984,-58.555 -63.257,-84.921 -35.183,-39.862 -55.84,-88.004 -65.551,-137.072 -13.074,-66.056 -13.003,-134.664 3.269,-199.369 M -761.514,811.049 c -7.295,-26.289 13.975,-27.116 26.16,-33.62 39.561,-21.115 79.855,-40.851 119.79,-61.268 6.305,-3.223 12.375,-6.873 18.394,-10.603 27.189,-16.849 57.377,-30.46 80.588,-51.685 37.051,-33.881 69.716,-72.442 91.076,-119.366 6.905,-15.17 19.38,-27.805 29.306,-41.599 -12.599,32.675 -26.02,64.406 -40.323,95.736 -9.68,21.202 -18.999,42.837 -31.295,62.52 -26.312,42.122 -72.721,59.658 -111.376,86.515 -12.767,8.87 -28.148,14.032 -42.457,20.622 -22.13,10.191 -45.952,17.717 -66.133,30.861 -22.664,14.761 -46.087,21.064 -73.73,21.887 m 78.781,186.619 c -1.879,-2.229 -3.757,-4.459 -5.636,-6.689 14.993,-18.879 27.806,-40.154 45.399,-56.178 47.588,-43.343 92.631,-88.269 122.755,-146.133 13.184,-25.323 27.178,-50.224 40.804,-75.316 5.406,14.77 10.201,29.994 6.339,42.559 -12.77,41.55 -27.06,82.827 -44.128,122.773 -7.08,16.568 -20.311,32.678 -34.855,43.446 -32.545,24.098 -67.395,45.161 -101.943,66.425 -8.302,5.111 -19.09,6.184 -28.735,9.113 M 2.729,506.375 c -1.995,3.165 -1.46,2.316 -3.456,5.481 -11.345,-4.653 -22.348,-10.459 -34.042,-13.947 -64.947,-19.375 -120.198,-54.726 -161.153,-107.979 -40.133,-52.182 -79.719,-105.201 -106.198,-166.71 -11.752,-27.3 -25.459,-53.031 -19.958,-84.285 6.718,13.308 8.9,29.12 17.043,40.761 26.183,37.432 53.608,74.105 82.426,109.548 20.682,25.437 47.162,46.443 66.062,72.981 29.891,41.969 66.008,75.196 110.154,101.454 18.348,10.913 32.873,28.253 49.122,42.696 m -51.167,638.696 c -0.625,0.774 -1.251,1.548 -1.877,2.322 -4.609,-3.965 -10.761,-7.083 -13.498,-12.074 -5.19,-9.465 -8.597,-19.908 -12.657,-29.992 -7.799,-19.374 0.807,-42.581 20.158,-50.435 71.238,-28.913 155.013,24.567 156.911,100.273 0.135,5.407 -1.788,12.358 -5.361,16.103 -13.812,14.471 -55.309,20.549 -73.782,11.092 -23.502,-12.031 -46.613,-24.824 -69.894,-37.289 m -707.437,-791.74 c 1.102,-3.509 5.282,-11.111 5.631,-18.886 1.851,-41.123 25.482,-68.806 54.52,-94.299 16.99,-14.916 35.472,-13.821 52.099,-5 22.393,11.879 42.512,28.042 59.858,39.821 -4.013,10.894 -9.955,18.894 -7.944,22.913 11.256,22.497 -2.305,38.479 -14.955,51.648 -37.113,38.635 -81.552,52.346 -130.176,32.168 z m 240.587,832.954 c 57.775,13.742 77.009,62.882 54.933,103.879 -15.681,29.121 -38.13,46.848 -67.661,58.925 -19.28,7.884 -32.835,15.209 -55.891,-1.27 -30.386,-21.716 -43.703,-47.451 -49.024,-81.359 -3.102,-19.768 0.195,-36.36 14.721,-51.806 33.012,-35.103 73.888,-30.075 102.922,-28.369 M 101.967,-243.261 c -3.328,0.808 -3.166,0.768 -6.494,1.575 -13.549,-22.378 -26.993,-44.821 -41.169,-66.826 -6.5,-10.089 -12.794,-20.3 -18.502,-30.857 -16.216,-29.996 -39.122,-57.975 -50.025,-89.947 -15.435,-45.263 -26.198,-92.403 -35.237,-139.458 -5.664,-29.48 -4.549,-60.26 -6.894,-97.015 10.154,7.566 15.261,9.64 17.631,13.426 13.018,20.793 25.221,42.094 38.006,63.035 6.24,10.22 13.935,19.608 19.577,30.121 13.111,24.428 26.39,48.854 37.725,74.122 14.243,31.752 31.621,63.317 38.489,96.84 8.078,39.429 6.517,80.86 8.7,121.446 0.419,7.791 -1.139,15.689 -1.807,23.538 M 46.431,506.545 c -82.52,-63.668 -168.866,-122.2 -232.688,-206.046 -34.081,-44.775 -68.295,-89.463 -101.396,-134.957 -6.477,-8.902 -8.109,-21.33 -11.976,-32.131 31.652,16.108 58.198,36.553 86.43,54.318 46.116,29.016 84.064,66.858 120.278,106.717 23.494,25.859 44.337,54.313 69.259,78.643 37.765,36.866 53.284,84.541 70.093,133.456 m -597.623,-717.11 c 0.761,-2.422 1.378,-6.22 3.058,-9.469 40.342,-78.013 106.995,-133.33 174.77,-183.152 56.274,-41.366 124.883,-65.958 188.049,-97.935 5.41,-2.738 10.987,-5.148 16.486,-7.709 2.763,3.118 2.588,2.921 5.35,6.039 -91.317,145.83 -211.655,254.6 -387.713,292.226 m 221.148,816.535 8.529,-4.824 c 7.779,9.815 19.188,18.481 22.72,29.64 17.166,54.234 60.38,87.98 96.54,127.336 0.279,0.303 0.585,0.58 0.915,0.827 27.139,20.247 55.974,38.481 81.826,60.256 34.205,28.81 64.523,63.081 113.92,65.548 6.198,0.309 11.885,6.442 18.253,8.499 36.201,11.691 68.339,35.836 108.641,35.096 11.878,-0.219 25.98,-2.76 35.291,2.474 36.744,20.653 75.758,29.716 117.337,31.06 5.233,0.17 10.321,4.827 15.477,7.405 -0.429,1.994 -0.859,3.989 -1.288,5.983 -10.746,1.897 -22.66,1.445 -32.033,6.105 -36.111,17.956 -74.21,17.933 -112.663,14.7 -30.015,-2.524 -61.522,-1.995 -89.373,-11.549 -28.996,-9.945 -63.066,-10.661 -85.892,-36.4 -2.493,-2.81 -8.44,-2.812 -12.877,-3.605 -55.11,-9.851 -92.071,-45.317 -126.174,-86.457 -18.805,-22.685 -41.697,-41.983 -62.755,-62.798 -4.178,-4.129 -9.668,-7.514 -12.39,-12.437 -18.77,-33.952 -38.07,-67.685 -54.963,-102.573 -11.552,-23.856 -19.489,-49.462 -29.041,-74.286 m 6.437,751.191 c -3.039,-8.348 -5.998,-14.498 -7.522,-20.984 -9.41,-40.048 10.9,-75.25 19.151,-112.381 1.18,-5.305 7.223,-9.529 11.014,-14.254 3.895,4.69 9.52,8.769 11.425,14.162 30.868,87.362 61.272,174.889 91.761,262.386 12.901,37.025 23.343,75.138 39.204,110.846 23.015,51.816 49.927,101.902 76.873,156.143 -47.496,-29.317 -100.513,-45.487 -124.548,-100.725 -7.172,-16.485 -24.476,-28.259 -34.924,-43.689 -18.523,-27.355 -41.058,-53.887 -51.572,-84.333 -16.314,-47.242 -24.324,-97.399 -34.85,-146.536 -1.468,-6.855 2.774,-14.932 3.988,-20.635 m 51.62,-728.017 c 209.761,24.729 356.677,152.898 494.453,297.132 -14.321,-0.944 -27.248,-5.285 -40.341,-9.045 -16.385,-4.705 -32.758,-11.796 -49.407,-12.665 -22.566,-1.177 -43.97,-1.844 -65.055,-12.582 -25.267,-12.866 -51.591,-28.318 -78.78,-31.563 -33.207,-3.962 -53.34,-26.119 -77.377,-41.913 -28.488,-18.72 -52.319,-44.489 -78.385,-66.95 -17.373,-14.971 -35.547,-29.031 -52.606,-44.34 -24.376,-21.875 -47.689,-44.76 -52.502,-78.074 m -515.848,147.765 c 2.906,-24.404 4.003,-45.187 8.312,-65.281 2.433,-11.349 10.747,-21.315 15.388,-32.334 28.221,-67.008 76.879,-116.232 136.234,-155.755 31.913,-21.251 63.931,-42.74 97.742,-60.647 45.34,-24.014 95.903,-23.857 150.379,-28.489 -20.425,28.38 -40.169,50.567 -53.917,75.996 -29.753,55.032 -63.678,106.269 -115.954,142.114 -35.884,24.604 -73.704,46.388 -110.731,69.317 -2.519,1.56 -5.703,2.002 -8.472,3.207 -37.038,16.116 -74.058,32.276 -118.981,51.872 m 500.717,400.703 c 81.609,29.166 202.839,162.97 241.091,264.837 40.841,108.761 43.701,220.734 28.656,340.181 -29.136,-28.252 -52.701,-51.093 -76.222,-73.979 -0.451,-0.439 -0.294,-1.447 -0.575,-2.126 -16.172,-39.064 -33.758,-77.612 -48.216,-117.299 -21.087,-57.884 -39.532,-116.723 -59.845,-174.896 -17.052,-48.835 -35.25,-97.269 -52.777,-145.94 -10.398,-28.872 -20.48,-57.859 -32.112,-90.778 M -81.714,-0.971 c -1.558,0.163 -3.133,0.139 -4.725,-0.131 -7.467,-1.265 -12.903,-7.553 -17.663,-13.444 -54.46,-67.401 -109.847,-141.143 -117.324,-227.474 -10.797,-124.665 79.909,-233.645 111.022,-354.846 -9.842,178.666 81.687,359.509 231.489,457.376 5.142,-116.89 9.317,-238.992 -39.817,-345.18 -39.836,-86.091 -114.904,-166.107 -101.94,-260.078 7.238,-52.466 41.414,-96.672 74.372,-138.13 84.647,-106.478 169.293,-212.957 253.94,-319.435 -27.529,8.379 -48.694,30.024 -68.131,51.244 -122.879,134.157 -228.218,284.361 -312.496,445.59 -32.712,62.583 -63.872,128.891 -118.317,173.861 -37.641,31.089 -83.748,49.639 -126.885,72.497 -117.849,62.445 -216.627,160.325 -280.146,277.598 122.325,27.435 257.873,-15.027 342.683,-107.35 -37.525,97.506 -65.869,198.543 -84.536,301.339 -8.009,44.102 -14.658,89.726 -37.305,128.409 -32.277,55.131 -91.717,87.61 -148.693,116.508 -7.66,3.885 -15.724,7.849 -24.311,7.675 -10.587,-0.215 -19.936,-6.645 -28.308,-13.128 -26.411,-20.45 -53.928,-45.355 -87.322,-44.603 -35.433,0.799 -63.059,30.482 -82.498,60.116 -19.647,29.953 -35.987,67.605 -22.248,100.687 15.524,37.38 64.848,50.988 103.511,39.013 38.663,-11.975 68.36,-42.653 94.247,-73.767 25.886,-31.114 50.602,-64.576 85.058,-85.812 43.665,-26.912 105.126,-37.293 123.574,-85.152 l -4.213,185.6 c -1.09,48.046 -23.901,58.043 -65.996,66.495 -46.068,9.249 -90.711,24.751 -132.611,46.024 -83.689,42.49 -156.204,107.467 -205.729,187.355 -26.921,43.427 -47.666,92.61 -47.066,143.7 0.218,18.59 5.983,40.587 23.589,46.557 7.986,2.708 16.72,1.366 25.001,-0.225 49.4,-9.492 97.263,-26.94 141.182,-51.466 -57.012,81.832 -99.93,173.456 -126.303,269.64 75.087,-28.488 152.631,-59.251 212.921,-113.969 59.865,-54.334 80.525,-126.492 93.265,-204.04 12.024,-73.194 23.146,-151.67 72.661,-206.898 12.541,78.066 18.976,157.112 19.227,236.179 0.265,83.06 -6.719,167.929 -39.588,244.209 -32.869,76.279 -95.212,143.406 -175.441,164.903 -19.74,5.289 -41.325,8.328 -56.523,21.989 -22.899,20.582 -22.122,56.641 -14.879,86.566 8.529,35.235 26.245,71.733 59.322,86.571 38.55,17.292 85.348,-1.663 114.091,-32.629 21.963,-23.662 36.697,-54.746 37.472,-87.021 0.775,-32.275 -13.461,-65.332 -39.614,-84.261 40.364,-72.477 81.956,-144.265 123.178,-216.259 -10.139,16.563 -1.105,81.243 4.317,100.969 9.322,33.919 29.651,64.08 26.878,100.675 -2.529,33.388 -12.706,65.651 -19.44,98.451 -38.792,188.932 48.794,397.453 210.863,502.018 22.604,14.584 46.669,27.459 65.992,46.173 19.323,18.715 33.665,44.962 30.375,71.661 15.404,-4.533 21.226,-22.909 24.372,-38.654 19.427,-97.224 27.085,-197.855 10.344,-295.577 -16.742,-97.722 -59.149,-192.657 -129.612,-262.405 -40.889,-40.474 -90.311,-71.849 -129.217,-114.232 -38.904,-42.384 -67.038,-101.448 -51.757,-156.914 37.9,36.847 88.022,60.907 140.478,67.433 14.59,1.815 29.856,2.463 42.779,9.475 21.491,11.66 30.48,37.078 41.879,58.708 18.326,34.778 48.592,64.867 86.515,75.221 37.922,10.353 83.212,-2.853 103.735,-36.381 18.963,-30.98 13.121,-73.413 -9.393,-101.917 -22.513,-28.504 -58.98,-43.79 -95.233,-46.05 -57.098,-3.559 -112.99,22.128 -170.1,18.753 -123.81,-7.316 -163.607,-125.774 -163.071,-230.835 0.312,-61.233 4.818,-124.925 -19.169,-181.266 56.178,124.045 140.725,238.504 256.328,310.47 115.602,71.965 264.646,96.673 390.94,45.753 5.429,-2.189 11.199,-4.855 13.982,-10.004 5.382,-9.96 -3.372,-21.439 -11.491,-29.329 C 155.798,812.762 -3.187,675.37 -197.134,618.44 c -55.569,-16.311 -119.791,-30.393 -148.59,-80.64 -29.021,-50.633 -8.466,-111.049 -6.375,-165.298 1.105,-28.651 -2.209,-57.215 -1.36,-85.958 0.481,-16.285 1.109,-32.71 3.961,-48.787 1.4,-7.894 15.416,-38.177 13.495,-43.658 67.305,192.033 240.132,343.241 439.405,384.438 C 43.25,399.028 -81.121,241.784 -241.95,141.905 c -31.265,-19.416 -66.33,-39.624 -78.45,-74.375 -7.999,-22.931 -4.285,-48.128 0.252,-71.986 15.433,-81.168 39.389,-160.712 71.346,-236.902 38.249,101.504 88.914,198.324 150.507,287.613 16.325,23.665 33.973,47.342 58.139,62.914 24.167,15.572 56.39,21.642 81.863,8.312 38.4,-20.094 43.638,-79.775 14.248,-111.628 -29.39,-31.854 -81.82,-35.102 -119.82,-14.26 -5.665,3.106 -11.618,6.781 -17.849,7.436"
         style="fill:#000000;fill-opacity:1;fill-rule:nonzero;stroke:none"
         id="path2872" /></g><g
       id="g2874"
       transform="matrix(0.35277776,0,0,-0.35277778,1600.0643,424.14928)"
       clip-path="url(#clipPath8222)"><path
         d="m 0,0 c -31.731,-8.104 -48.965,-30.36 -56.8,-59.487 -2.131,-7.924 2.503,-22.984 8.733,-26.546 8.495,-4.857 38.296,-18.376 47.461,-14.372 12.473,5.449 19.948,12.491 32.374,18.226 18.146,8.376 10.731,41.724 4.8,63.962 C 30.861,3.186 18.628,7.923 0,0 m 220.934,391.623 c -2.586,-2.21 -5.172,-4.42 -7.758,-6.631 13.007,-21.093 22.344,-46.049 39.713,-62.549 51.106,-48.549 103.844,-95.505 172.695,-119.598 29.221,-10.225 57.394,-11.026 91.729,-6.14 C 396.606,234.036 298.437,296.88 220.934,391.623 M 525.717,-743.852 c -3.269,-3.927 -3.058,-3.673 -6.325,-7.601 8.663,-13.487 16.504,-27.598 26.151,-40.342 24.829,-32.802 47.876,-67.535 76.532,-96.683 25.733,-26.173 56.899,-46.847 73.644,-81.255 2.182,-4.484 7.758,-7.317 16.843,-15.479 -5.268,16.772 -6.844,27.516 -11.751,36.426 -21.427,38.908 -44.134,77.11 -65.757,115.913 -15.031,26.974 -28.511,54.93 -59.542,67.772 -16.674,6.902 -33.203,14.151 -49.795,21.249 M 76.802,652.435 C 72.312,613.9 66.778,573.355 63.106,532.643 60.306,501.585 47.852,473.34 40.77,444.035 31.864,407.187 14.822,375.972 -3.48,345.084 -31.338,298.071 -63.118,253.391 -92.734,207.4 c -3.143,-4.88 -2.964,-11.9 -4.326,-17.927 19.257,12.025 35.45,25.487 48.324,41.601 22.024,27.569 39.982,58.554 63.256,84.921 35.183,39.862 55.839,88.004 65.551,137.072 13.074,66.056 13.003,134.664 -3.269,199.368 M 761.514,-811.049 c 7.295,26.288 -13.975,27.116 -26.16,33.619 -39.561,21.115 -79.855,40.852 -119.79,61.268 -6.304,3.224 -12.375,6.873 -18.394,10.603 -27.189,16.85 -57.377,30.461 -80.588,51.686 -37.052,33.881 -69.716,72.442 -91.075,119.365 -6.905,15.171 -19.38,27.805 -29.308,41.6 12.6,-32.675 26.021,-64.406 40.324,-95.736 9.68,-21.202 18.999,-42.837 31.295,-62.52 26.312,-42.123 72.72,-59.658 111.376,-86.515 12.768,-8.871 28.148,-14.032 42.457,-20.622 22.129,-10.192 45.953,-17.717 66.133,-30.861 22.663,-14.762 46.087,-21.064 73.73,-21.887 m -78.781,-186.62 c 1.879,2.23 3.757,4.46 5.636,6.69 -14.993,18.879 -27.806,40.154 -45.399,56.178 -47.588,43.343 -92.631,88.269 -122.755,146.132 -13.184,25.323 -27.178,50.225 -40.804,75.317 -5.406,-14.77 -10.2,-29.995 -6.339,-42.559 12.77,-41.551 27.06,-82.827 44.128,-122.774 7.079,-16.568 20.312,-32.677 34.855,-43.445 32.546,-24.099 67.394,-45.161 101.942,-66.426 8.303,-5.11 19.091,-6.183 28.736,-9.113 M -2.729,-506.375 c 1.996,-3.165 1.46,-2.316 3.456,-5.482 11.345,4.654 22.347,10.46 34.042,13.948 64.948,19.375 120.198,54.726 161.153,107.978 40.134,52.183 79.72,105.202 106.198,166.711 11.752,27.299 25.459,53.031 19.958,84.285 -6.718,-13.309 -8.899,-29.12 -17.043,-40.762 -26.183,-37.431 -53.608,-74.104 -82.426,-109.547 -20.682,-25.437 -47.162,-46.443 -66.062,-72.982 -29.891,-41.969 -66.009,-75.195 -110.154,-101.453 -18.348,-10.914 -32.873,-28.254 -49.122,-42.696 m 51.167,-638.696 c 0.625,-0.775 1.251,-1.548 1.877,-2.322 4.609,3.964 10.761,7.082 13.498,12.074 5.19,9.465 8.597,19.908 12.657,29.992 7.799,19.374 -0.807,42.58 -20.158,50.434 -71.238,28.914 -155.013,-24.567 -156.911,-100.272 -0.135,-5.407 1.787,-12.358 5.362,-16.103 13.81,-14.471 55.308,-20.549 73.781,-11.093 23.502,12.032 46.613,24.825 69.894,37.29 m 707.437,791.74 c -1.102,3.508 -5.281,11.111 -5.632,18.886 -1.85,41.123 -25.48,68.806 -54.519,94.299 -16.99,14.916 -35.471,13.82 -52.099,5 -22.393,-11.879 -42.512,-28.043 -59.858,-39.822 4.012,-10.894 9.955,-18.893 7.944,-22.913 -11.256,-22.496 2.305,-38.478 14.955,-51.647 37.113,-38.635 81.552,-52.346 130.177,-32.168 z m -240.587,-832.954 c -57.775,-13.743 -77.01,-62.882 -54.934,-103.879 15.682,-29.121 38.13,-46.849 67.662,-58.925 19.28,-7.885 32.835,-15.209 55.891,1.269 30.386,21.717 43.703,47.452 49.024,81.36 3.101,19.768 -0.195,36.359 -14.72,51.806 -33.013,35.102 -73.889,30.075 -102.923,28.369 M -101.967,243.26 c 3.328,-0.807 3.166,-0.767 6.494,-1.575 13.548,22.379 26.993,44.821 41.168,66.826 6.5,10.09 12.795,20.301 18.503,30.858 16.216,29.996 39.122,57.974 50.026,89.947 15.434,45.263 26.197,92.402 35.237,139.458 5.663,29.479 4.548,60.26 6.893,97.015 C 46.2,658.223 41.093,656.149 38.723,652.362 25.705,631.57 13.503,610.269 0.717,589.328 -5.522,579.108 -13.218,569.72 -18.86,559.207 c -13.111,-24.428 -26.39,-48.854 -37.725,-74.123 -14.243,-31.751 -31.621,-63.317 -38.489,-96.839 -8.078,-39.429 -6.518,-80.86 -8.7,-121.447 -0.419,-7.791 1.139,-15.688 1.807,-23.538 m 55.536,-749.806 c 82.521,63.669 168.866,122.201 232.688,206.047 34.081,44.774 68.295,89.463 101.396,134.956 6.478,8.902 8.11,21.33 11.976,32.132 -31.652,-16.108 -58.197,-36.554 -86.431,-54.318 -46.115,-29.016 -84.063,-66.858 -120.277,-106.718 -23.494,-25.858 -44.337,-54.313 -69.26,-78.642 -37.765,-36.866 -53.283,-84.542 -70.092,-133.457 m 597.623,717.111 c -0.76,2.422 -1.379,6.22 -3.058,9.469 -40.342,78.012 -106.995,133.33 -174.771,183.152 -56.273,41.366 -124.882,65.957 -188.049,97.935 -5.409,2.738 -10.986,5.147 -16.486,7.709 -2.762,-3.119 -2.587,-2.921 -5.349,-6.04 91.317,-145.83 211.655,-254.6 387.713,-292.225 M 330.045,-605.971 c -2.844,1.609 -5.688,3.216 -8.53,4.825 -7.779,-9.816 -19.189,-18.481 -22.72,-29.64 -17.166,-54.235 -60.38,-87.98 -96.54,-127.336 -0.279,-0.304 -0.585,-0.58 -0.915,-0.827 -27.14,-20.247 -55.975,-38.481 -81.826,-60.256 -34.205,-28.811 -64.524,-63.081 -113.92,-65.548 -6.198,-0.309 -11.884,-6.442 -18.253,-8.499 -36.2,-11.691 -68.339,-35.837 -108.642,-35.096 -11.877,0.218 -25.978,2.759 -35.29,-2.474 -36.745,-20.653 -75.758,-29.716 -117.337,-31.061 -5.233,-0.169 -10.321,-4.826 -15.476,-7.404 0.428,-1.994 0.858,-3.989 1.287,-5.984 10.746,-1.896 22.66,-1.444 32.033,-6.104 36.111,-17.956 74.21,-17.933 112.662,-14.7 30.017,2.524 61.523,1.995 89.374,11.548 28.995,9.946 63.066,10.662 85.893,36.4 2.492,2.811 8.439,2.813 12.876,3.606 55.11,9.85 92.071,45.317 126.174,86.457 18.805,22.685 41.697,41.982 62.755,62.798 4.178,4.129 9.668,7.513 12.39,12.437 18.77,33.951 38.07,67.685 54.963,102.572 11.552,23.857 19.488,49.463 29.042,74.286 m -6.438,-751.19 c 3.039,8.348 5.998,14.498 7.523,20.983 9.408,40.048 -10.901,75.251 -19.152,112.382 -1.179,5.305 -7.222,9.529 -11.014,14.254 -3.895,-4.69 -9.52,-8.77 -11.425,-14.162 -30.868,-87.363 -61.272,-174.89 -91.761,-262.386 -12.901,-37.025 -23.343,-75.139 -39.204,-110.847 -23.014,-51.816 -49.927,-101.902 -76.874,-156.142 47.496,29.316 100.514,45.487 124.548,100.725 7.173,16.485 24.477,28.258 34.925,43.689 18.523,27.355 41.058,53.886 51.572,84.333 16.315,47.242 24.324,97.399 34.85,146.536 1.468,6.855 -2.775,14.932 -3.988,20.635 m -51.62,728.017 C 62.226,-653.873 -84.69,-782.043 -222.466,-926.276 c 14.32,0.944 27.248,5.285 40.341,9.045 16.386,4.705 32.758,11.796 49.407,12.665 22.567,1.177 43.97,1.844 65.055,12.582 25.267,12.866 51.591,28.318 78.78,31.562 33.206,3.963 53.34,26.119 77.376,41.913 28.489,18.721 52.319,44.489 78.386,66.951 17.373,14.97 35.547,29.031 52.606,44.34 24.375,21.874 47.689,44.759 52.502,78.074 m 515.848,-147.765 c -2.906,24.404 -4.003,45.186 -8.312,65.28 -2.433,11.35 -10.747,21.316 -15.388,32.335 -28.221,67.008 -76.879,116.232 -136.234,155.755 -31.913,21.25 -63.931,42.739 -97.742,60.647 -45.34,24.014 -95.902,23.857 -150.379,28.489 20.424,-28.38 40.169,-50.567 53.917,-75.996 29.753,-55.032 63.678,-106.27 115.953,-142.114 35.885,-24.604 73.705,-46.388 110.732,-69.317 2.518,-1.56 5.703,-2.002 8.472,-3.207 37.039,-16.116 74.058,-32.277 118.981,-51.872 m -500.717,-400.703 c -81.609,-29.166 -202.839,-162.97 -241.091,-264.837 -40.841,-108.762 -43.701,-220.735 -28.656,-340.182 29.136,28.253 52.7,51.094 76.222,73.98 0.451,0.439 0.294,1.447 0.575,2.126 16.172,39.063 33.758,77.612 48.216,117.299 21.087,57.883 39.532,116.723 59.845,174.896 17.052,48.835 35.25,97.269 52.778,145.939 10.397,28.873 20.479,57.86 32.111,90.779 M 81.714,0.971 c 1.558,-0.164 3.134,-0.139 4.725,0.131 7.467,1.265 12.903,7.553 17.663,13.443 54.46,67.402 109.847,141.144 117.325,227.475 10.797,124.665 -79.91,233.645 -111.023,354.846 C 120.246,418.2 28.717,237.357 -121.085,139.49 c -5.142,116.89 -9.317,238.992 39.817,345.179 39.835,86.091 114.904,166.108 101.94,260.078 -7.238,52.466 -41.413,96.672 -74.372,138.131 -84.647,106.478 -169.293,212.956 -253.94,319.435 27.53,-8.38 48.695,-30.024 68.131,-51.244 C -116.63,1016.912 -11.29,866.707 72.987,705.478 105.699,642.896 136.858,576.587 191.305,531.618 228.944,500.529 275.052,481.979 318.189,459.121 436.038,396.676 534.816,298.796 598.336,181.523 476.01,154.087 340.462,196.549 255.652,288.873 293.178,191.367 321.521,90.33 340.188,-12.466 c 8.008,-44.103 14.658,-89.727 37.305,-128.409 32.277,-55.131 91.718,-87.61 148.693,-116.508 7.66,-3.886 15.723,-7.85 24.311,-7.675 10.587,0.215 19.936,6.644 28.309,13.127 26.411,20.451 53.927,45.356 87.322,44.603 35.433,-0.798 63.058,-30.481 82.497,-60.116 19.646,-29.953 35.987,-67.605 22.248,-100.687 -15.524,-37.379 -64.849,-50.987 -103.512,-39.013 -38.662,11.975 -68.359,42.654 -94.246,73.768 -25.886,31.114 -50.601,64.576 -85.058,85.812 -43.665,26.911 -105.126,37.293 -123.575,85.152 l 4.213,-185.6 c 1.091,-48.046 23.903,-58.044 65.997,-66.495 46.069,-9.249 90.711,-24.751 132.611,-46.024 83.688,-42.49 156.204,-107.467 205.728,-187.356 26.922,-43.426 47.667,-92.609 47.068,-143.7 -0.219,-18.59 -5.984,-40.586 -23.59,-46.557 -7.986,-2.708 -16.72,-1.365 -25.001,0.226 -49.401,9.492 -97.263,26.939 -141.183,51.466 57.013,-81.832 99.931,-173.456 126.304,-269.64 -75.087,28.488 -152.632,59.25 -212.92,113.969 -59.865,54.334 -80.526,126.492 -93.266,204.04 -12.023,73.193 -23.146,151.67 -72.661,206.897 -12.541,-78.066 -18.976,-157.112 -19.227,-236.178 -0.265,-83.06 6.719,-167.929 39.589,-244.209 32.868,-76.28 95.21,-143.406 175.441,-164.904 19.739,-5.289 41.323,-8.328 56.522,-21.989 22.899,-20.582 22.122,-56.64 14.878,-86.565 -8.528,-35.236 -26.244,-71.734 -59.322,-86.572 -38.549,-17.292 -85.347,1.664 -114.09,32.63 -21.963,23.661 -36.697,54.745 -37.472,87.021 -0.775,32.274 13.461,65.332 39.614,84.261 -40.364,72.477 -81.956,144.265 -123.178,216.258 10.139,-16.562 1.105,-81.243 -4.317,-100.968 -9.322,-33.919 -29.651,-64.08 -26.878,-100.675 2.529,-33.388 12.706,-65.652 19.44,-98.451 38.792,-188.932 -48.794,-397.453 -210.862,-502.018 -22.605,-14.584 -46.669,-27.459 -65.993,-46.174 -19.323,-18.714 -33.665,-44.962 -30.375,-71.66 -15.404,4.532 -21.226,22.908 -24.372,38.653 -19.426,97.224 -27.085,197.856 -10.343,295.578 16.741,97.721 59.148,192.657 129.611,262.405 40.889,40.473 90.312,71.848 129.217,114.232 38.904,42.384 67.038,101.448 51.757,156.914 -37.901,-36.847 -88.022,-60.907 -140.478,-67.433 -14.59,-1.815 -29.856,-2.463 -42.78,-9.476 -21.49,-11.66 -30.479,-37.078 -41.878,-58.708 -18.325,-34.777 -48.593,-64.866 -86.515,-75.22 -37.921,-10.353 -83.211,2.853 -103.735,36.38 -18.964,30.98 -13.121,73.413 9.393,101.917 22.513,28.504 58.98,43.791 95.232,46.051 57.1,3.559 112.991,-22.129 170.101,-18.754 123.81,7.317 163.607,125.775 163.071,230.835 -0.312,61.234 -4.818,124.926 19.169,181.267 -56.178,-124.045 -140.725,-238.504 -256.328,-310.47 -115.603,-71.966 -264.646,-96.673 -390.941,-45.753 -5.428,2.189 -11.198,4.855 -13.981,10.004 -5.382,9.96 3.372,21.439 11.491,29.329 144.959,140.866 303.944,278.258 497.891,335.188 55.569,16.31 119.791,30.393 148.591,80.639 29.02,50.634 8.465,111.049 6.374,165.298 -1.105,28.651 2.209,57.216 1.36,85.959 -0.48,16.284 -1.109,32.709 -3.961,48.787 -1.4,7.893 -15.416,38.177 -13.495,43.658 -67.305,-192.034 -240.132,-343.242 -439.404,-384.438 60.15,179.508 184.522,336.753 345.35,436.631 31.266,19.417 66.331,39.625 78.451,74.375 7.998,22.932 4.285,48.128 -0.252,71.987 C 304.715,85.623 280.759,165.167 248.802,241.358 210.553,139.853 159.888,43.034 98.295,-46.255 81.971,-69.92 64.322,-93.597 40.155,-109.169 c -24.166,-15.572 -56.389,-21.642 -81.861,-8.312 -38.401,20.094 -43.639,79.775 -14.249,111.628 29.391,31.854 81.82,35.102 119.82,14.26 C 69.529,5.3 75.483,1.625 81.714,0.971"
         style="fill:#000000;fill-opacity:1;fill-rule:nonzero;stroke:none"
         id="path2876" /></g></g><path
     id="text1006"
     style="font-style:normal;font-variant:normal;font-weight:normal;font-stretch:normal;font-size:152.65px;font-family:Yeongdo;-inkscape-font-specification:Yeongdo;fill:#010000;stroke-width:1.00966"
     d="m 518.43461,42.271484 c 0.005,12.42751 -0.0104,24.856818 0.008,37.283204 0.43347,2.089614 -1.87929,4.00663 -3.875,3.474609 -5.91732,-0.0013 -11.83463,-0.0028 -17.75195,-0.0039 0,1.898437 0,3.796875 0,5.695312 7.20703,0 14.41406,0 21.62109,0 0,7.931641 0,15.863281 0,23.794921 -7.20703,0 -14.41406,1e-5 -21.62109,0 0,1.89779 0,3.79558 0,5.69336 7.41211,0 14.82422,0 22.23633,0 1.09387,5.20794 2.73367,10.59717 6.50947,14.52485 3.67664,3.84434 9.19361,5.47215 14.41514,5.16053 17.52056,-0.0193 35.04114,-0.028 52.56171,-0.0252 0,11.6862 0,23.3724 0,35.05859 1.79493,0 3.58985,0 5.38477,0 0,-11.68619 0,-23.37239 0,-35.05859 17.99135,-0.0298 35.98535,0.10497 53.97474,-0.14302 9.30044,-0.61615 18.56043,-4.36864 25.04643,-11.17635 3.5627,-3.70538 6.23077,-8.20477 8.07935,-12.9827 1.04894,-1.78734 4.11662,-1.58979 4.89604,0.35308 1.93006,4.73312 4.723,9.14089 8.39557,12.71752 4.44615,4.41432 10.08346,7.60034 16.15556,9.13906 2.4003,0.65938 4.8654,1.05934 7.34489,1.26233 -2.9e-4,-1.79687 -0.005,-3.59375 -0.006,-5.39062 -2.83453,-0.26862 -5.68331,-0.85009 -8.38086,-1.76758 -5.19457,-1.75424 -10.20526,-4.86039 -13.85586,-9.09452 -4.81351,-5.48567 -7.67644,-12.48721 -8.78118,-19.62849 -0.63195,-3.928347 -0.65939,-7.819486 -0.71059,-11.825018 -0.009,-5.644864 0.0663,-11.289568 0.0117,-16.934398 0.066,-0.643755 0.0916,-1.247039 -0.7293,-1.003907 -1.59999,0 -3.2,0 -4.79999,0 -0.0811,8.839657 0.22576,17.691663 -0.30426,26.520983 -0.83135,8.97651 -4.14579,17.95805 -10.60331,24.40036 -6.30124,6.29974 -15.25639,9.66835 -24.06793,9.7775 -6.19799,0.23219 -12.401,-0.0207 -18.60107,0.0805 -31.55651,0 -63.11302,0 -94.66953,0 -4.3874,-1.13245 -7.87112,-4.72821 -9.63258,-8.86832 -2.35931,-5.61926 -2.81332,-11.78683 -2.85961,-17.79574 0.002,-21.255835 -0.004,-42.511731 -0.006,-63.767586 -1.79492,0 -3.58984,-1e-6 -5.38476,0 0,0.176432 0,0.352864 0,0.529296 z m 224.73047,0 c 0.0105,20.334414 -0.021,40.669194 0.0157,61.003376 0.10881,7.422 0.77195,15.0185 3.69522,21.92241 2.15623,4.88996 5.83831,9.38117 10.88197,11.43778 2.86118,1.18641 6.00313,1.34841 9.06255,1.25981 22.87849,-0.0456 45.75704,-0.0242 68.63555,-0.0257 0,-1.89844 0,-3.79687 0,-5.69531 -12.46911,-0.0137 -24.94064,0.0728 -37.40795,-0.12072 -4.26468,-0.42952 -8.11111,-3.825 -8.83035,-8.09036 -1.1966,-4.76267 -0.50219,-9.7034 -0.70115,-14.55103 0,-1.1086 0,-2.21719 0,-3.32578 12.80208,0 25.60417,0 38.40625,0 0,-1.84375 0,-3.6875 0,-5.53125 -12.80208,0 -25.60417,0 -38.40625,0 0,-7.822268 0,-15.644534 0,-23.466799 13.27539,0 26.55078,0 39.82617,0 0,-1.897787 0,-3.795573 0,-5.69336 -15.06966,0 -30.13932,0 -45.20898,0 0.029,16.487467 -0.098,32.977519 0.14052,49.463069 0.17727,2.72042 1.16432,5.42158 3.02365,7.44505 0.96611,1.29039 1.93222,2.58079 2.89833,3.87118 -8.9681,0 -17.9362,0 -26.9043,0 -5.32438,-2.07984 -9.11423,-6.96593 -10.97921,-12.24368 -2.33287,-6.57735 -2.68582,-13.61232 -2.7411,-20.513402 -0.03,-19.224787 -0.0111,-38.449718 -0.0219,-57.67456 -1.79492,0 -3.58984,-10e-7 -5.38476,0 0,0.176432 0,0.352864 0,0.529296 z m 115.21094,0 c 0.0104,21.861946 -0.0208,43.724158 0.0156,65.585936 0.13944,6.59642 0.92975,13.3861 3.96431,19.33846 2.31334,4.44181 6.27773,8.16576 11.16532,9.53288 2.77311,0.87781 5.69766,1.14934 8.59498,1.14624 -0.002,-1.89258 -0.005,-3.78516 -0.01,-5.67773 -2.08755,-0.0293 -4.00922,-0.20807 -6.05144,-0.78357 -2.05199,-0.55958 -4.09765,-1.60656 -5.60526,-2.9585 -3.59057,-3.20247 -5.21437,-7.97535 -5.94605,-12.60559 -1.22676,-7.62861 -0.57143,-15.36871 -0.7449,-23.07461 0,-2.826042 0,-5.652083 0,-8.478125 6.63802,0 13.27604,0 19.91406,0 0,-1.898438 0,-3.796875 0,-5.695313 -6.63802,0 -13.27604,10e-7 -19.91406,0 0,-12.286458 0,-24.572916 0,-36.859374 -1.79427,0 -3.58854,-10e-7 -5.38281,0 0,0.176432 -10e-6,0.352864 0,0.529296 z M 560.11039,58.162109 c 0,1.722006 0,3.444011 0,5.166016 9.94401,0 19.88802,0 29.83203,0 0.15797,6.499574 0.11879,13.085842 -1.91135,19.335315 -2.78425,8.931049 -9.81272,16.414276 -18.56896,19.71583 -3.65489,1.46199 -7.56498,2.34761 -11.48649,2.80628 0,1.89192 0,3.78385 0,5.67578 8.13445,-0.92962 16.24057,-3.5676 22.77337,-8.6172 4.12923,-3.139152 7.3504,-7.347577 9.63767,-11.981205 0.3539,-1.153011 1.56874,-1.830176 2.73901,-1.664907 1.26795,0.08153 2.36946,0.978079 2.76143,2.174704 3.42744,6.958822 9.59173,12.359758 16.61848,15.513848 4.64464,2.10699 9.65371,3.30939 14.70442,3.91851 0.0159,-1.78383 0.0198,-3.56768 0.0137,-5.35156 -6.80225,-0.80344 -13.52462,-3.01912 -18.98047,-7.216801 -2.64257,-2.034882 -5.04486,-4.623012 -6.85547,-7.425781 -3.6999,-5.67041 -5.46683,-12.508213 -5.53385,-19.205929 -0.0435,-1.944997 -0.22985,-3.928374 0.10956,-5.849382 0.6681,-1.624029 2.67648,-2.111513 4.26257,-1.821667 8.28829,-0.0019 16.57657,-0.0041 24.86485,-0.0058 0,-1.898438 0,-3.796875 0,-5.695313 -21.66016,0 -43.32031,1e-6 -64.98047,0 0,0.176433 0,0.352865 0,0.529297 z m -112.93555,0.65625 c 0.017,7.056802 -0.034,14.119585 0.0254,21.172655 0.33957,2.056737 -1.93513,3.882635 -3.89261,3.368361 -9.18881,-0.0019 -18.37761,-0.0041 -27.56641,-0.0059 0,1.897786 0,3.795573 0,5.693359 6.41601,0 12.83203,0 19.24805,0 -3.48194,4.114825 -7.08289,8.484942 -8.32916,13.858906 -1.09836,4.457 -1.45502,9.26061 0.0108,13.68016 1.69528,-0.016 3.39058,-0.02 5.08593,-0.0156 -1.1264,-5.30103 -0.89103,-10.90759 1.22389,-15.94053 2.032,-5.059322 6.27759,-9.254229 11.52418,-10.871593 3.2818,-0.981686 6.71952,-0.958963 10.02617,-0.01908 3.29831,0.971787 6.22992,2.812231 8.43348,5.498495 3.16204,3.736285 4.89751,8.543478 5.20548,13.403548 0.3807,5.714 -0.90682,11.68013 -4.32335,16.35299 -1.52175,2.07726 -3.65241,4.01809 -6.04382,5.22872 -3.09873,1.63108 -6.66727,2.15217 -10.13392,1.93186 -15.33593,0.017 -30.67187,0.0225 -46.00781,0.0191 0,1.89844 0,3.79687 0,5.69531 16.79734,-0.0149 33.59657,0.0685 50.39253,-0.11677 8.0356,-0.65776 15.33985,-6.11439 18.60162,-13.43434 3.26317,-6.93257 3.784,-15.05553 1.72954,-22.4114 -0.97061,-3.250111 -2.72536,-6.208211 -4.79595,-8.871477 -0.94537,-1.793255 0.7224,-4.36449 2.78789,-4.011111 4.3962,0.01681 8.79243,0.0233 13.18867,0.02283 0,-1.897786 0,-3.795573 0,-5.693359 -10.33529,0 -20.67057,0 -31.00586,0 0,-8.354818 0,-16.709636 0,-25.064454 -1.79492,0 -3.58984,0 -5.38477,0 0,0.176433 0,0.352865 0,0.529297 z M 860.50687,159.52148 c -16.06666,0.0314 -32.14267,0.005 -48.21289,0.0137 0,1.89713 0,3.79427 0,5.6914 15.31315,0 30.62631,0 45.93946,0 0,13.43425 0,26.86849 0,40.30274 1.79492,0 3.58984,0 5.38476,0 -0.0183,-14.4899 0.0765,-28.98314 -0.11914,-43.47071 -0.20487,-1.41954 -1.53211,-2.62354 -2.99219,-2.53711 z m -116.1582,0.006 c -3.87629,0.0316 -7.76243,-0.0139 -11.64258,0.008 -12.30143,0 -24.60286,0 -36.90429,0 0,1.89713 0,3.79427 0,5.6914 15.40885,0 30.8177,0 46.22656,0 0,15.07227 0,30.14453 0,45.2168 1.79492,0 3.58984,0 5.38476,0 -0.011,-16.09286 0.0583,-32.18808 -0.10156,-48.2793 -0.16837,-1.4337 -1.47585,-2.72713 -2.96289,-2.63672 z M 469.3643,162.8478 c 0.0134,12.18234 -0.0267,24.36565 0.0199,36.54739 -0.003,1.31133 0.47697,2.9645 1.9339,3.2841 2.28703,0.55609 4.65168,0.0235 6.96959,0.22905 15.03464,0 30.06927,0 45.10391,0 0,-1.89778 0,-3.79557 0,-5.69336 -16.21484,0 -32.42969,0 -48.64453,0 0,-11.63216 0,-23.26432 0,-34.89648 -1.79427,0 -3.58854,0 -5.38281,0 0,0.17643 0,0.35286 0,0.5293 z m 92.31054,3.11328 c 0.0138,12.61076 -0.0274,25.22243 0.0205,37.83262 -0.039,1.4236 0.60207,3.2082 2.22559,3.39012 1.9694,0.3966 3.98293,-0.0212 5.9707,0.13479 17.83073,0.004 35.66146,0.008 53.49219,0.0116 0,-1.89779 0,-3.79557 0,-5.69336 -18.77539,0 -37.55078,0 -56.32617,0 0,-12.06836 0,-24.13672 0,-36.20508 -1.79428,0 -3.58855,0 -5.38282,0 0,0.17643 0,0.35287 0,0.5293 z" /></svg>
