<?xml version="1.0" encoding="UTF-8" standalone="no"?>
<!-- Created with Inkscape (http://www.inkscape.org/) -->

<svg
   width="883.67267mm"
   height="251.6666mm"
   viewBox="0 0 883.67264 251.66659"
   version="1.1"
   id="svg5"
   xml:space="preserve"
   inkscape:export-filename="plate.svg"
   inkscape:export-xdpi="96"
   inkscape:export-ydpi="96"
   sodipodi:docname="logo_yd.svg"
   inkscape:version="1.2.2 (732a01da63, 2022-12-09)"
   xmlns:inkscape="http://www.inkscape.org/namespaces/inkscape"
   xmlns:sodipodi="http://sodipodi.sourceforge.net/DTD/sodipodi-0.dtd"
   xmlns="http://www.w3.org/2000/svg"
   xmlns:svg="http://www.w3.org/2000/svg"><sodipodi:namedview
     id="namedview7"
     pagecolor="#ffffff"
     bordercolor="#000000"
     borderopacity="0.25"
     inkscape:showpageshadow="2"
     inkscape:pageopacity="0"
     inkscape:pagecheckerboard="0"
     inkscape:deskcolor="#dcdcdc"
     inkscape:document-units="mm"
     showgrid="false"
     inkscape:zoom="0.41986485"
     inkscape:cx="372.73899"
     inkscape:cy="479.91634"
     inkscape:window-width="1600"
     inkscape:window-height="822"
     inkscape:window-x="1792"
     inkscape:window-y="-8"
     inkscape:window-maximized="1"
     inkscape:current-layer="svg5"
     showguides="false" /><defs
     id="defs2"><clipPath
       clipPathUnits="userSpaceOnUse"
       id="clipPath8222"><g
         id="g8226"
         transform="matrix(2.8346458,0,0,-2.8346457,-4535.6156,1202.3129)"><path
           d="M -221.77512,-93.85702 H 2071.2803 V 1317.2541 H -221.77512 Z"
           id="path8224"
           style="stroke-width:0.352778" /></g></clipPath><clipPath
       clipPathUnits="userSpaceOnUse"
       id="clipPath8228"><g
         id="g8232"
         transform="matrix(2.8346458,0,0,-2.8346457,-820.11068,1871.3793)"><path
           d="M -221.77512,-93.85702 H 2071.2803 V 1317.2541 H -221.77512 Z"
           id="path8230"
           style="stroke-width:0.352778" /></g></clipPath><clipPath
       clipPathUnits="userSpaceOnUse"
       id="clipPath8234"><g
         id="g8238"
         transform="matrix(2.8346458,0,0,-2.8346457,-2294.5644,3438.7563)"><path
           d="M -221.77512,-93.85702 H 2071.2803 V 1317.2541 H -221.77512 Z"
           id="path8236"
           style="stroke-width:0.352778" /></g></clipPath><clipPath
       clipPathUnits="userSpaceOnUse"
       id="clipPath8240"><g
         id="g8244"
         transform="matrix(2.8346458,0,0,-2.8346457,-2927.8079,3438.7563)"><path
           d="M -221.77512,-93.85702 H 2071.2803 V 1317.2541 H -221.77512 Z"
           id="path8242"
           style="stroke-width:0.352778" /></g></clipPath><clipPath
       clipPathUnits="userSpaceOnUse"
       id="clipPath8246"><g
         id="g8250"
         transform="matrix(2.8346458,0,0,-2.8346457,-3048.2083,1531.8065)"><path
           d="M -221.77512,-93.85702 H 2071.2803 V 1317.2541 H -221.77512 Z"
           id="path8248"
           style="stroke-width:0.352778" /></g></clipPath><clipPath
       clipPathUnits="userSpaceOnUse"
       id="clipPath8252"><g
         id="g8256"
         transform="matrix(2.8346458,0,0,-2.8346457,-2928.6038,829.74401)"><path
           d="M -221.77512,-93.85702 H 2071.2803 V 1317.2541 H -221.77512 Z"
           id="path8254"
           style="stroke-width:0.352778" /></g></clipPath><clipPath
       clipPathUnits="userSpaceOnUse"
       id="clipPath8258"><g
         id="g8262"
         transform="matrix(2.8346458,0,0,-2.8346457,-3151.8177,1176.3954)"><path
           d="M -221.77512,-93.85702 H 2071.2803 V 1317.2541 H -221.77512 Z"
           id="path8260"
           style="stroke-width:0.352778" /></g></clipPath><clipPath
       clipPathUnits="userSpaceOnUse"
       id="clipPath8264"><g
         id="g8268"
         transform="matrix(2.8346458,0,0,-2.8346457,-2339.3056,1535.6141)"><path
           d="M -221.77512,-93.85702 H 2071.2803 V 1317.2541 H -221.77512 Z"
           id="path8266"
           style="stroke-width:0.352778" /></g></clipPath><clipPath
       clipPathUnits="userSpaceOnUse"
       id="clipPath8270"><g
         id="g8274"
         transform="matrix(2.8346458,0,0,-2.8346457,-2255.1415,1535.6141)"><path
           d="M -221.77512,-93.85702 H 2071.2803 V 1317.2541 H -221.77512 Z"
           id="path8272"
           style="stroke-width:0.352778" /></g></clipPath><clipPath
       clipPathUnits="userSpaceOnUse"
       id="clipPath8276"><g
         id="g8280"
         transform="matrix(2.8346458,0,0,-2.8346457,-2294.515,3549.1694)"><path
           d="M -221.77512,-93.85702 H 2071.2803 V 1317.2541 H -221.77512 Z"
           id="path8278"
           style="stroke-width:0.352778" /></g></clipPath><clipPath
       clipPathUnits="userSpaceOnUse"
       id="clipPath8282"><g
         id="g8286"
         transform="matrix(2.8346458,0,0,-2.8346457,-2425.0546,885.56632)"><path
           d="M -221.77512,-93.85702 H 2071.2803 V 1317.2541 H -221.77512 Z"
           id="path8284"
           style="stroke-width:0.352778" /></g></clipPath><clipPath
       clipPathUnits="userSpaceOnUse"
       id="clipPath8288"><g
         id="g8292"
         transform="matrix(2.8346458,0,0,-2.8346457,-2664.1645,2657.0179)"><path
           d="M -221.77512,-93.85702 H 2071.2803 V 1317.2541 H -221.77512 Z"
           id="path8290"
           style="stroke-width:0.352778" /></g></clipPath><clipPath
       clipPathUnits="userSpaceOnUse"
       id="clipPath8294"><g
         id="g8298"
         transform="matrix(2.8346458,0,0,-2.8346457,-1832.6488,998.53361)"><path
           d="M -221.77512,-93.85702 H 2071.2803 V 1317.2541 H -221.77512 Z"
           id="path8296"
           style="stroke-width:0.352778" /></g></clipPath><clipPath
       clipPathUnits="userSpaceOnUse"
       id="clipPath8300"><g
         id="g8304"
         transform="matrix(2.8346458,0,0,-2.8346457,-1673.8988,1918.9261)"><path
           d="M -221.77512,-93.85702 H 2071.2803 V 1317.2541 H -221.77512 Z"
           id="path8302"
           style="stroke-width:0.352778" /></g></clipPath><clipPath
       clipPathUnits="userSpaceOnUse"
       id="clipPath8306"><g
         id="g8310"
         transform="matrix(2.8346458,0,0,-2.8346457,-1673.9052,1903.684)"><path
           d="M -221.77512,-93.85702 H 2071.2803 V 1317.2541 H -221.77512 Z"
           id="path8308"
           style="stroke-width:0.352778" /></g></clipPath><clipPath
       clipPathUnits="userSpaceOnUse"
       id="clipPath8312"><g
         id="g8316"
         transform="matrix(2.8346458,0,0,-2.8346457,-2659.4174,51.513505)"><path
           d="M -221.77512,-93.85702 H 2071.2803 V 1317.2541 H -221.77512 Z"
           id="path8314"
           style="stroke-width:0.352778" /></g></clipPath><clipPath
       clipPathUnits="userSpaceOnUse"
       id="clipPath8318"><g
         id="g8322"
         transform="matrix(2.8346458,0,0,-2.8346457,-3533.8999,2921.2591)"><path
           d="M -221.77512,-93.85702 H 2071.2803 V 1317.2541 H -221.77512 Z"
           id="path8320"
           style="stroke-width:0.352778" /></g></clipPath></defs><path
     id="text1006"
     style="font-style:normal;font-variant:normal;font-weight:normal;font-stretch:normal;font-size:152.65px;font-family:Yeongdo;-inkscape-font-specification:Yeongdo;fill:#010000;stroke-width:1.00966"
     d="m 518.43461,42.271484 c 0.005,12.42751 -0.0104,24.856818 0.008,37.283204 0.43347,2.089614 -1.87929,4.00663 -3.875,3.474609 -5.91732,-0.0013 -11.83463,-0.0028 -17.75195,-0.0039 0,1.898437 0,3.796875 0,5.695312 7.20703,0 14.41406,0 21.62109,0 0,7.931641 0,15.863281 0,23.794921 -7.20703,0 -14.41406,1e-5 -21.62109,0 0,1.89779 0,3.79558 0,5.69336 7.41211,0 14.82422,0 22.23633,0 1.09387,5.20794 2.73367,10.59717 6.50947,14.52485 3.67664,3.84434 9.19361,5.47215 14.41514,5.16053 17.52056,-0.0193 35.04114,-0.028 52.56171,-0.0252 0,11.6862 0,23.3724 0,35.05859 1.79493,0 3.58985,0 5.38477,0 0,-11.68619 0,-23.37239 0,-35.05859 17.99135,-0.0298 35.98535,0.10497 53.97474,-0.14302 9.30044,-0.61615 18.56043,-4.36864 25.04643,-11.17635 3.5627,-3.70538 6.23077,-8.20477 8.07935,-12.9827 1.04894,-1.78734 4.11662,-1.58979 4.89604,0.35308 1.93006,4.73312 4.723,9.14089 8.39557,12.71752 4.44615,4.41432 10.08346,7.60034 16.15556,9.13906 2.4003,0.65938 4.8654,1.05934 7.34489,1.26233 -2.9e-4,-1.79687 -0.005,-3.59375 -0.006,-5.39062 -2.83453,-0.26862 -5.68331,-0.85009 -8.38086,-1.76758 -5.19457,-1.75424 -10.20526,-4.86039 -13.85586,-9.09452 -4.81351,-5.48567 -7.67644,-12.48721 -8.78118,-19.62849 -0.63195,-3.928347 -0.65939,-7.819486 -0.71059,-11.825018 -0.009,-5.644864 0.0663,-11.289568 0.0117,-16.934398 0.066,-0.643755 0.0916,-1.247039 -0.7293,-1.003907 -1.59999,0 -3.2,0 -4.79999,0 -0.0811,8.839657 0.22576,17.691663 -0.30426,26.520983 -0.83135,8.97651 -4.14579,17.95805 -10.60331,24.40036 -6.30124,6.29974 -15.25639,9.66835 -24.06793,9.7775 -6.19799,0.23219 -12.401,-0.0207 -18.60107,0.0805 -31.55651,0 -63.11302,0 -94.66953,0 -4.3874,-1.13245 -7.87112,-4.72821 -9.63258,-8.86832 -2.35931,-5.61926 -2.81332,-11.78683 -2.85961,-17.79574 0.002,-21.255835 -0.004,-42.511731 -0.006,-63.767586 -1.79492,0 -3.58984,-1e-6 -5.38476,0 0,0.176432 0,0.352864 0,0.529296 z m 224.73047,0 c 0.0105,20.334414 -0.021,40.669194 0.0157,61.003376 0.10881,7.422 0.77195,15.0185 3.69522,21.92241 2.15623,4.88996 5.83831,9.38117 10.88197,11.43778 2.86118,1.18641 6.00313,1.34841 9.06255,1.25981 22.87849,-0.0456 45.75704,-0.0242 68.63555,-0.0257 0,-1.89844 0,-3.79687 0,-5.69531 -12.46911,-0.0137 -24.94064,0.0728 -37.40795,-0.12072 -4.26468,-0.42952 -8.11111,-3.825 -8.83035,-8.09036 -1.1966,-4.76267 -0.50219,-9.7034 -0.70115,-14.55103 0,-1.1086 0,-2.21719 0,-3.32578 12.80208,0 25.60417,0 38.40625,0 0,-1.84375 0,-3.6875 0,-5.53125 -12.80208,0 -25.60417,0 -38.40625,0 0,-7.822268 0,-15.644534 0,-23.466799 13.27539,0 26.55078,0 39.82617,0 0,-1.897787 0,-3.795573 0,-5.69336 -15.06966,0 -30.13932,0 -45.20898,0 0.029,16.487467 -0.098,32.977519 0.14052,49.463069 0.17727,2.72042 1.16432,5.42158 3.02365,7.44505 0.96611,1.29039 1.93222,2.58079 2.89833,3.87118 -8.9681,0 -17.9362,0 -26.9043,0 -5.32438,-2.07984 -9.11423,-6.96593 -10.97921,-12.24368 -2.33287,-6.57735 -2.68582,-13.61232 -2.7411,-20.513402 -0.03,-19.224787 -0.0111,-38.449718 -0.0219,-57.67456 -1.79492,0 -3.58984,-10e-7 -5.38476,0 0,0.176432 0,0.352864 0,0.529296 z m 115.21094,0 c 0.0104,21.861946 -0.0208,43.724158 0.0156,65.585936 0.13944,6.59642 0.92975,13.3861 3.96431,19.33846 2.31334,4.44181 6.27773,8.16576 11.16532,9.53288 2.77311,0.87781 5.69766,1.14934 8.59498,1.14624 -0.002,-1.89258 -0.005,-3.78516 -0.01,-5.67773 -2.08755,-0.0293 -4.00922,-0.20807 -6.05144,-0.78357 -2.05199,-0.55958 -4.09765,-1.60656 -5.60526,-2.9585 -3.59057,-3.20247 -5.21437,-7.97535 -5.94605,-12.60559 -1.22676,-7.62861 -0.57143,-15.36871 -0.7449,-23.07461 0,-2.826042 0,-5.652083 0,-8.478125 6.63802,0 13.27604,0 19.91406,0 0,-1.898438 0,-3.796875 0,-5.695313 -6.63802,0 -13.27604,10e-7 -19.91406,0 0,-12.286458 0,-24.572916 0,-36.859374 -1.79427,0 -3.58854,-10e-7 -5.38281,0 0,0.176432 -10e-6,0.352864 0,0.529296 z M 560.11039,58.162109 c 0,1.722006 0,3.444011 0,5.166016 9.94401,0 19.88802,0 29.83203,0 0.15797,6.499574 0.11879,13.085842 -1.91135,19.335315 -2.78425,8.931049 -9.81272,16.414276 -18.56896,19.71583 -3.65489,1.46199 -7.56498,2.34761 -11.48649,2.80628 0,1.89192 0,3.78385 0,5.67578 8.13445,-0.92962 16.24057,-3.5676 22.77337,-8.6172 4.12923,-3.139152 7.3504,-7.347577 9.63767,-11.981205 0.3539,-1.153011 1.56874,-1.830176 2.73901,-1.664907 1.26795,0.08153 2.36946,0.978079 2.76143,2.174704 3.42744,6.958822 9.59173,12.359758 16.61848,15.513848 4.64464,2.10699 9.65371,3.30939 14.70442,3.91851 0.0159,-1.78383 0.0198,-3.56768 0.0137,-5.35156 -6.80225,-0.80344 -13.52462,-3.01912 -18.98047,-7.216801 -2.64257,-2.034882 -5.04486,-4.623012 -6.85547,-7.425781 -3.6999,-5.67041 -5.46683,-12.508213 -5.53385,-19.205929 -0.0435,-1.944997 -0.22985,-3.928374 0.10956,-5.849382 0.6681,-1.624029 2.67648,-2.111513 4.26257,-1.821667 8.28829,-0.0019 16.57657,-0.0041 24.86485,-0.0058 0,-1.898438 0,-3.796875 0,-5.695313 -21.66016,0 -43.32031,1e-6 -64.98047,0 0,0.176433 0,0.352865 0,0.529297 z m -112.93555,0.65625 c 0.017,7.056802 -0.034,14.119585 0.0254,21.172655 0.33957,2.056737 -1.93513,3.882635 -3.89261,3.368361 -9.18881,-0.0019 -18.37761,-0.0041 -27.56641,-0.0059 0,1.897786 0,3.795573 0,5.693359 6.41601,0 12.83203,0 19.24805,0 -3.48194,4.114825 -7.08289,8.484942 -8.32916,13.858906 -1.09836,4.457 -1.45502,9.26061 0.0108,13.68016 1.69528,-0.016 3.39058,-0.02 5.08593,-0.0156 -1.1264,-5.30103 -0.89103,-10.90759 1.22389,-15.94053 2.032,-5.059322 6.27759,-9.254229 11.52418,-10.871593 3.2818,-0.981686 6.71952,-0.958963 10.02617,-0.01908 3.29831,0.971787 6.22992,2.812231 8.43348,5.498495 3.16204,3.736285 4.89751,8.543478 5.20548,13.403548 0.3807,5.714 -0.90682,11.68013 -4.32335,16.35299 -1.52175,2.07726 -3.65241,4.01809 -6.04382,5.22872 -3.09873,1.63108 -6.66727,2.15217 -10.13392,1.93186 -15.33593,0.017 -30.67187,0.0225 -46.00781,0.0191 0,1.89844 0,3.79687 0,5.69531 16.79734,-0.0149 33.59657,0.0685 50.39253,-0.11677 8.0356,-0.65776 15.33985,-6.11439 18.60162,-13.43434 3.26317,-6.93257 3.784,-15.05553 1.72954,-22.4114 -0.97061,-3.250111 -2.72536,-6.208211 -4.79595,-8.871477 -0.94537,-1.793255 0.7224,-4.36449 2.78789,-4.011111 4.3962,0.01681 8.79243,0.0233 13.18867,0.02283 0,-1.897786 0,-3.795573 0,-5.693359 -10.33529,0 -20.67057,0 -31.00586,0 0,-8.354818 0,-16.709636 0,-25.064454 -1.79492,0 -3.58984,0 -5.38477,0 0,0.176433 0,0.352865 0,0.529297 z M 860.50687,159.52148 c -16.06666,0.0314 -32.14267,0.005 -48.21289,0.0137 0,1.89713 0,3.79427 0,5.6914 15.31315,0 30.62631,0 45.93946,0 0,13.43425 0,26.86849 0,40.30274 1.79492,0 3.58984,0 5.38476,0 -0.0183,-14.4899 0.0765,-28.98314 -0.11914,-43.47071 -0.20487,-1.41954 -1.53211,-2.62354 -2.99219,-2.53711 z m -116.1582,0.006 c -3.87629,0.0316 -7.76243,-0.0139 -11.64258,0.008 -12.30143,0 -24.60286,0 -36.90429,0 0,1.89713 0,3.79427 0,5.6914 15.40885,0 30.8177,0 46.22656,0 0,15.07227 0,30.14453 0,45.2168 1.79492,0 3.58984,0 5.38476,0 -0.011,-16.09286 0.0583,-32.18808 -0.10156,-48.2793 -0.16837,-1.4337 -1.47585,-2.72713 -2.96289,-2.63672 z M 469.3643,162.8478 c 0.0134,12.18234 -0.0267,24.36565 0.0199,36.54739 -0.003,1.31133 0.47697,2.9645 1.9339,3.2841 2.28703,0.55609 4.65168,0.0235 6.96959,0.22905 15.03464,0 30.06927,0 45.10391,0 0,-1.89778 0,-3.79557 0,-5.69336 -16.21484,0 -32.42969,0 -48.64453,0 0,-11.63216 0,-23.26432 0,-34.89648 -1.79427,0 -3.58854,0 -5.38281,0 0,0.17643 0,0.35286 0,0.5293 z m 92.31054,3.11328 c 0.0138,12.61076 -0.0274,25.22243 0.0205,37.83262 -0.039,1.4236 0.60207,3.2082 2.22559,3.39012 1.9694,0.3966 3.98293,-0.0212 5.9707,0.13479 17.83073,0.004 35.66146,0.008 53.49219,0.0116 0,-1.89779 0,-3.79557 0,-5.69336 -18.77539,0 -37.55078,0 -56.32617,0 0,-12.06836 0,-24.13672 0,-36.20508 -1.79428,0 -3.58855,0 -5.38282,0 0,0.17643 0,0.35287 0,0.5293 z" /><g
     id="g4535"
     transform="matrix(1.1340794,0,0,1.1340794,393.5606,-17.423375)"><path
       fill-rule="nonzero"
       fill="#000000"
       fill-opacity="1"
       d="m -180.4965,19.426154 c -18.92646,0 -37.43918,5.552305 -53.55992,16.26872 -44.59295,29.643367 -56.75506,90.038956 -27.1117,134.631666 18.67725,28.09642 49.57088,43.31835 81.01991,43.32102 18.46452,0.002 37.11523,-5.2432 53.61176,-16.20933 21.60173,-14.35986 36.318398,-36.2724 41.438941,-61.70086 5.120787,-25.42869 0.03262,-51.32931 -14.327249,-72.930803 -14.359622,-21.601737 -36.272152,-36.3184 -61.700852,-41.439187 -6.45185,-1.299181 -12.93631,-1.941226 -19.37089,-1.941226 m 0.28257,196.168966 c -6.55455,0 -13.11228,-0.65592 -19.62814,-1.96824 -12.6058,-2.53849 -24.41257,-7.40421 -35.09223,-14.46209 -11.05764,-7.30734 -20.41598,-16.65618 -27.81508,-27.78708 -7.39934,-11.13065 -12.39746,-23.37819 -14.85539,-36.40212 -2.37396,-12.57928 -2.29072,-25.34912 0.24777,-37.954672 2.53849,-12.605799 7.4042,-24.412571 14.46208,-35.092234 7.30759,-11.057639 16.65643,-20.415974 27.78732,-27.815316 11.13066,-7.399099 23.3782,-12.39722 36.40213,-14.855149 12.57902,-2.373962 25.34887,-2.290724 37.95467,0.247765 12.6058,2.538488 24.41257,7.404209 35.09223,14.462328 11.05764,7.307343 20.41598,16.656186 27.815073,27.787083 7.399342,11.13065 12.397223,23.378195 14.855394,36.402124 2.373964,12.579271 2.29048,25.348871 -0.247767,37.954671 -2.538732,12.6058 -7.40445,24.41233 -14.462329,35.09223 -7.307341,11.0574 -16.656431,20.41573 -27.787081,27.81507 -11.13065,7.39934 -23.37819,12.39723 -36.40212,14.85515 -6.07705,1.14682 -12.20057,1.72048 -18.32653,1.72048"
       id="path1542"
       style="stroke-width:0.0623062" /><path
       fill-rule="nonzero"
       fill="#ffffff"
       fill-opacity="1"
       d="m -241.89994,134.82761 c -0.92267,-3.10898 -1.6,-6.26104 -2.03736,-9.42941"
       id="path1544"
       style="stroke-width:0.0623062" /><path
       fill-rule="nonzero"
       fill="#000000"
       fill-opacity="1"
       d="m -241.90042,135.77729 c -0.40937,0 -0.78735,-0.26675 -0.90977,-0.67953 -0.92608,-3.1209 -1.62191,-6.34062 -2.06755,-9.56959 -0.0718,-0.51938 0.29109,-0.9986 0.81047,-1.0704 0.51914,-0.0708 0.99861,0.29133 1.0704,0.81071 0.43274,3.13454 1.10813,6.25983 2.00719,9.28897 0.14919,0.50284 -0.13752,1.03122 -0.64011,1.18042 -0.09,0.0268 -0.18107,0.0394 -0.27063,0.0394"
       id="path1546"
       style="stroke-width:0.0623062" /><path
       fill-rule="nonzero"
       fill="#000000"
       fill-opacity="1"
       d="m -180.20054,181.76507 c -3.88148,0 -7.78632,-0.34731 -11.67681,-1.0502 -7.68775,-1.38874 -14.98147,-4.10368 -21.67889,-8.06938 -8.46487,-5.01248 -15.53881,-11.73886 -21.02541,-19.99248 -0.29035,-0.43663 -0.17182,-1.02586 0.26505,-1.31622 0.43663,-0.29011 1.02586,-0.17158 1.31622,0.26504 5.32693,8.01389 12.19448,14.54411 20.41159,19.40959 6.50248,3.85056 13.5842,6.48641 21.04901,7.83476 16.16188,2.92035 32.59707,-0.48069 46.27862,-9.57568 14.07779,-9.35834 23.66855,-23.63862 27.00583,-40.21035 3.33727,-16.57173 0.0212,-33.451339 -9.33716,-47.529127 -19.31856,-29.060949 -58.67828,-36.986973 -87.73947,-17.668659 -6.18924,4.114642 -11.54344,9.205733 -15.91314,15.132363 -0.31105,0.422024 -0.90538,0.511839 -1.32741,0.200551 -0.42203,-0.311045 -0.51208,-0.905389 -0.20079,-1.327414 4.50137,-6.105031 10.01595,-11.349215 16.39017,-15.586519 14.50029,-9.639199 31.8859,-13.055085 48.9551,-9.617537 17.06897,3.437304 31.7776,13.315993 41.4168,27.816042 9.6392,14.500298 13.0546,31.88615 9.61729,48.95511 -3.4373,17.06897 -13.31599,31.77784 -27.81604,41.4168 -10.79868,7.17859 -23.2638,10.91307 -35.99056,10.91331"
       id="path1550"
       style="stroke-width:0.0623062" /><path
       fill-rule="nonzero"
       fill="#000000"
       fill-opacity="1"
       d="m -203.23216,237.35141 c -1.6073,0 -3.10898,-0.63499 -4.2283,-1.78839 -1.11956,-1.15339 -1.70977,-2.67332 -1.66182,-4.27989 l 3.11652,-104.36426 0.0197,-0.0825 c 0.0514,-0.27259 0.0684,-1.58126 0.0487,-3.88075 -0.002,-0.22197 -0.003,-0.39136 -0.003,-0.48214 0,-4.10174 -1.48683,-6.18145 -4.41936,-6.18145 -0.29206,0 -0.58826,0.0214 -0.87983,0.064 l -0.95017,0.13776 V 71.392648 c 0,-0.458779 0.37214,-0.830666 0.83092,-0.830666 0.45878,0 0.83066,0.371887 0.83066,0.830666 v 43.239982 c 0.0562,-0.002 0.11245,-0.002 0.16842,-0.002 3.86445,0 6.08094,2.85854 6.08094,7.84278 0,0.0881 0.001,0.25239 0.003,0.46779 0.0219,2.55528 0.003,3.70624 -0.0735,4.17573 l -3.1119,104.21555 c -0.0346,1.15364 0.38918,2.24497 1.19307,3.0732 0.80389,0.82824 1.88208,1.28434 3.03621,1.28434 1.15509,0 2.23425,-0.45659 3.03815,-1.28604 0.80389,-0.8292 1.2269,-1.922 1.19112,-3.07636 l -3.21899,-103.65602 c -0.0501,-0.4028 -0.0358,-1.42087 0.0523,-4.12778 0.0165,-0.50965 0.0309,-0.94969 0.0309,-1.07041 0,-5.08281 2.26151,-8.0129 6.20919,-8.05234 V 71.392666 c 0,-0.458779 0.3719,-0.830665 0.83067,-0.830665 0.45902,0 0.83091,0.371886 0.83091,0.830665 v 44.814914 l -0.91414,-0.092 c -0.21881,-0.0221 -0.44296,-0.0333 -0.66614,-0.0333 -3.82599,0 -4.62916,3.47552 -4.62916,6.39124 0,0.14092 -0.0114,0.50065 -0.0316,1.12444 -0.0341,1.04387 -0.11366,3.48866 -0.066,3.85811 l 0.0139,0.0689 -0.001,0.0487 3.2202,103.70225 c 0.0499,1.60804 -0.53909,3.12967 -1.6589,4.28453 -1.11956,1.15509 -2.62221,1.79106 -4.23097,1.79106"
       id="path1554"
       style="stroke-width:0.0623062" /><path
       fill-rule="nonzero"
       fill="#000000"
       fill-opacity="1"
       d="m -205.68522,111.89457 c -0.45902,0 -0.83091,-0.3719 -0.83091,-0.83067 V 71.392648 c 0,-0.458779 0.37189,-0.830666 0.83091,-0.830666 0.45878,0 0.83067,0.371887 0.83067,0.830666 V 111.0639 c 0,0.45877 -0.37189,0.83067 -0.83067,0.83067"
       id="path1556"
       style="stroke-width:0.0623062" /><path
       fill-rule="nonzero"
       fill="#000000"
       fill-opacity="1"
       d="m -200.44128,111.89457 c -0.45902,0 -0.83091,-0.3719 -0.83091,-0.83067 V 71.392648 c 0,-0.458779 0.37189,-0.830666 0.83091,-0.830666 0.45878,0 0.83067,0.371887 0.83067,0.830666 V 111.0639 c 0,0.45877 -0.37189,0.83067 -0.83067,0.83067"
       id="path1558"
       style="stroke-width:0.0623062" /><path
       fill-rule="nonzero"
       fill="#000000"
       fill-opacity="1"
       d="m -163.72446,67.9147 c -5.55474,0 -11.54635,9.940017 -13.08381,21.706148 -1.06017,8.113182 -0.87934,14.736372 0.53764,19.685332 1.6993,5.93515 5.20354,9.28727 10.41583,9.96339 l 0.74451,0.0966 -3.1321,111.72856 c -0.0341,1.21716 0.41448,2.36836 1.2634,3.24162 0.84893,0.87277 1.98723,1.3537 3.20488,1.3537 1.21765,0 2.35595,-0.48093 3.20487,-1.3537 0.84892,-0.87326 1.29772,-2.02446 1.26365,-3.24162 l -3.13234,-111.72637 0.73477,-0.10417 c 13.60707,-1.92832 11.90753,-23.176912 11.0625,-29.643362 -1.53745,-11.766131 -7.52906,-21.706148 -13.0838,-21.706148 m -0.0497,169.43671 c -1.67034,0 -3.2314,-0.65933 -4.39599,-1.85702 -1.16435,-1.19745 -1.77987,-2.77652 -1.73314,-4.44613 l 3.09073,-110.24513 c -5.51969,-0.97865 -9.23737,-4.68927 -11.05545,-11.03963 -1.47977,-5.16873 -1.67764,-12.01803 -0.58777,-20.358045 1.45495,-11.134551 7.50083,-23.152336 14.73127,-23.152336 7.23043,0 13.27632,12.017785 14.73127,23.152336 0.7243,5.543054 1.14925,13.573245 -0.93971,20.350255 -1.91762,6.22015 -5.64406,10.01791 -10.80305,11.02965 l 3.09096,110.2629 c 0.0467,1.66961 -0.56879,3.24868 -1.73313,4.44613 -1.16459,1.19769 -2.72565,1.85702 -4.39599,1.85702"
       id="path1562"
       style="stroke-width:0.0623062" /><path
       fill-rule="nonzero"
       fill="#000000"
       fill-opacity="1"
       d="m -156.2723,111.65751 c -0.0694,0 -0.13995,-0.0122 -0.20883,-0.0382 -0.30666,-0.11537 -0.46194,-0.45757 -0.34633,-0.76422 6.26614,-16.655702 -1.25635,-32.699536 -1.33326,-32.859688 -0.1414,-0.295462 -0.0168,-0.649828 0.27867,-0.791238 0.29572,-0.141404 0.65008,-0.01703 0.79174,0.278677 0.0808,0.168663 1.99257,4.202257 3.1355,10.404155 1.05556,5.726807 1.60658,14.432634 -1.7621,23.385974 -0.0896,0.23779 -0.31542,0.38455 -0.55539,0.38455"
       id="path1564"
       style="stroke-width:0.0623062" /><path
       fill-rule="nonzero"
       fill="#000000"
       fill-opacity="1"
       d="m -163.77411,230.47217 c -0.3276,0 -0.59337,-0.26577 -0.59337,-0.59336 v -42.8406 c 0,-0.32759 0.26577,-0.59336 0.59337,-0.59336 0.32784,0 0.59337,0.26577 0.59337,0.59336 v 42.8406 c 0,0.32759 -0.26553,0.59336 -0.59337,0.59336"
       id="path1566"
       style="stroke-width:0.0623062" /><path
       fill-rule="nonzero"
       fill="#000000"
       fill-opacity="1"
       d="m -203.22899,230.47217 c -0.3276,0 -0.59337,-0.26577 -0.59337,-0.59336 v -42.8406 c 0,-0.32759 0.26577,-0.59336 0.59337,-0.59336 0.32759,0 0.59337,0.26577 0.59337,0.59336 v 42.8406 c 0,0.32759 -0.26578,0.59336 -0.59337,0.59336"
       id="path1568"
       style="stroke-width:0.0623062" /><path
       fill-rule="nonzero"
       fill="#000000"
       fill-opacity="1"
       d="m -295.09649,132.81483 c 1.977,-0.50478 3.05081,-1.89158 3.53879,-3.70624 0.13289,-0.49383 -0.15576,-1.43207 -0.54396,-1.65404 -0.52936,-0.30276 -2.38613,-1.14488 -2.95711,-0.89541 -0.77712,0.33953 -1.24295,0.77834 -2.01716,1.13539 -1.13051,0.52206 -0.66857,2.59982 -0.29912,3.9854 0.35558,1.3335 1.11786,1.62873 2.27856,1.1349 m -13.76553,24.40065 c 0.16113,-0.13776 0.32225,-0.27552 0.48336,-0.41327 -0.81046,-1.31403 -1.39215,-2.869 -2.47447,-3.89706 -3.18419,-3.02501 -6.4701,-5.95072 -10.75998,-7.45167 -1.82051,-0.63717 -3.57579,-0.68707 -5.71513,-0.3826 7.52079,2.32578 13.63726,6.24157 18.46622,12.1446 M -327.852,86.4683 c 0.20371,-0.244602 0.19057,-0.228776 0.39403,-0.473377 -0.53958,-0.840405 -1.02829,-1.71975 -1.6292,-2.513667 -1.54695,-2.043692 -2.98315,-4.207852 -4.76837,-6.023983 -1.60341,-1.630664 -3.54537,-2.918894 -4.58851,-5.062618 -0.13605,-0.279406 -0.48336,-0.455857 -1.04947,-0.964524 0.32808,1.045086 0.42641,1.714391 0.7321,2.269545 1.33496,2.424345 2.74975,4.80439 4.09712,7.222161 0.93654,1.680566 1.77645,3.422459 3.70989,4.2227 1.03876,0.429819 2.06876,0.881539 3.10241,1.323763 m 27.9701,86.9974 c 0.27989,-2.40098 0.62453,-4.9273 0.85331,-7.46384 0.1745,-1.93514 0.95065,-3.69481 1.39191,-5.52091 0.55491,-2.29584 1.61655,-4.24072 2.75704,-6.16515 1.73557,-2.92936 3.71574,-5.71294 5.56107,-8.57853 0.19568,-0.30423 0.18448,-0.74159 0.26942,-1.11688 -1.19987,0.74913 -2.2087,1.58783 -3.01089,2.59178 -1.37219,1.7178 -2.49103,3.64832 -3.94111,5.29116 -2.19215,2.48373 -3.47916,5.48318 -4.08422,8.54032 -0.8146,4.11586 -0.81022,8.3904 0.20347,12.42205 m -42.6617,-91.184081 c -0.4544,1.637973 0.87083,1.689326 1.62994,2.094559 2.46499,1.315731 4.97549,2.545306 7.4636,3.817466 0.39282,0.200794 0.77103,0.428355 1.14609,0.660545 1.69419,1.049958 3.57506,1.897902 5.02124,3.220449 2.30849,2.110864 4.34366,4.513545 5.67448,7.437068 0.43031,0.945304 1.20743,1.732644 1.82611,2.592034 -0.78516,-2.0359 -1.62142,-4.012907 -2.51245,-5.965083 -0.6031,-1.320847 -1.18381,-2.668947 -1.94998,-3.895356 -1.63943,-2.624404 -4.53083,-3.716948 -6.93935,-5.390454 -0.79538,-0.552481 -1.75382,-0.87423 -2.64534,-1.284821 -1.37876,-0.634987 -2.86316,-1.103741 -4.12048,-1.922731 -1.41211,-0.919744 -2.87143,-1.312566 -4.59386,-1.363676 m 4.90856,-11.627642 c -0.11707,0.138974 -0.23414,0.277948 -0.3512,0.416915 0.9341,1.176272 1.73264,2.501742 2.8286,3.500098 2.96514,2.700586 5.77159,5.499733 7.64856,9.104972 0.82142,1.577854 1.69322,3.129426 2.54239,4.692675 0.3366,-0.92023 0.63547,-1.868698 0.39477,-2.651662 -0.79563,-2.588864 -1.68592,-5.1607 -2.74926,-7.649538 -0.44126,-1.032189 -1.2656,-2.035903 -2.17171,-2.706909 -2.02787,-1.501435 -4.1991,-2.813759 -6.35182,-4.138736 -0.51719,-0.318347 -1.18942,-0.385277 -1.79033,-0.567815 m 42.70843,30.610573 c -0.12413,-0.19714 -0.0908,-0.14432 -0.21515,-0.34147 -0.70703,0.28988 -1.3924,0.65179 -2.12109,0.86912 -4.04673,1.20719 -7.48915,3.40957 -10.04078,6.72761 -2.50052,3.25136 -4.96697,6.5548 -6.61687,10.38712 -0.73209,1.701 -1.58612,3.30417 -1.24344,5.25148 0.41862,-0.82921 0.55443,-1.81442 1.06188,-2.5397 1.6314,-2.33235 3.33995,-4.61723 5.13564,-6.82545 1.28846,-1.58491 2.93836,-2.89383 4.1161,-4.54713 1.86237,-2.61491 4.11269,-4.68538 6.86316,-6.3214 1.14318,-0.67977 2.04832,-1.76015 3.06055,-2.66018 m -3.18784,-39.794645 c -0.0389,-0.04819 -0.0781,-0.09638 -0.11706,-0.144569 -0.2872,0.247034 -0.67052,0.441254 -0.84089,0.752299 -0.32346,0.589715 -0.53569,1.240279 -0.78881,1.868699 -0.48579,1.206938 0.0504,2.652877 1.2561,3.142323 4.43859,1.80152 9.65818,-1.530638 9.77647,-6.247654 0.009,-0.336843 -0.11147,-0.770065 -0.33392,-1.003227 -0.86061,-0.901735 -3.44607,-1.28044 -4.59727,-0.691208 -1.46419,0.74962 -2.90405,1.546701 -4.35462,2.323337 m -44.0777,49.330415 c 0.0686,0.21855 0.32905,0.69217 0.35071,1.17651 0.11537,2.56234 1.58784,4.2872 3.3969,5.87552 1.05872,0.92923 2.21017,0.86109 3.24625,0.31153 1.39508,-0.74013 2.64874,-1.74725 3.72937,-2.48106 -0.24996,-0.67879 -0.62014,-1.17724 -0.4948,-1.42768 0.70119,-1.40164 -0.1436,-2.39757 -0.93192,-3.21802 -2.31238,-2.40706 -5.08111,-3.26133 -8.11075,-2.00426 z m 14.98998,-51.898353 c 3.59964,-0.856223 4.79806,-3.917742 3.4227,-6.472295 -0.97694,-1.814423 -2.37566,-2.918896 -4.21564,-3.671438 -1.20134,-0.491148 -2.04588,-0.947492 -3.48233,0.07934 -1.89328,1.352968 -2.72298,2.956378 -3.05471,5.068946 -0.19324,1.231763 0.0122,2.265656 0.91732,3.227994 2.05683,2.187044 4.60359,1.873809 6.41266,1.76745 m 38.45872,89.069566 c -0.20737,-0.0504 -0.19715,-0.048 -0.40451,-0.0981 -0.8443,1.39434 -1.68178,2.79258 -2.56502,4.16356 -0.40499,0.62866 -0.79732,1.26486 -1.1529,1.92273 -1.01028,1.86894 -2.43749,3.61205 -3.11677,5.60414 -0.96185,2.82008 -1.63237,5.75723 -2.19556,8.68903 -0.35291,1.83682 -0.28354,3.75467 -0.42957,6.04467 0.63279,-0.47143 0.9509,-0.60067 1.09863,-0.83651 0.81095,-1.29553 1.57128,-2.6227 2.36788,-3.92748 0.38892,-0.63668 0.86839,-1.22154 1.21983,-1.87673 0.8168,-1.52187 1.6443,-3.04374 2.35036,-4.6182 0.88762,-1.97822 1.97019,-3.945 2.39829,-6.03371 0.50333,-2.45671 0.40597,-5.03804 0.54202,-7.56679 0.026,-0.48555 -0.0711,-0.97767 -0.11268,-1.46663 m -3.46019,-46.71745 c -5.14147,3.96691 -10.52146,7.61377 -14.49786,12.83799 -2.12352,2.78966 -4.25532,5.57397 -6.3175,8.40866 -0.40378,0.55443 -0.50527,1.32887 -0.74622,2.00182 1.97214,-1.00371 3.62593,-2.27758 5.38511,-3.38424 2.87314,-1.80785 5.23761,-4.16575 7.49402,-6.64923 1.4637,-1.6112 2.7624,-3.38401 4.31518,-4.90005 2.35303,-2.2968 3.31999,-5.2673 4.36727,-8.31495 m -37.23547,44.68033 c 0.0472,0.1509 0.0857,0.38746 0.19033,0.58996 2.51366,4.86061 6.66651,8.30717 10.88946,11.41152 3.50618,2.57743 7.78097,4.10953 11.71648,6.10187 0.33708,0.17061 0.68463,0.32077 1.02732,0.48043 0.17207,-0.19422 0.16112,-0.18205 0.33319,-0.37626 -5.68957,-9.08624 -13.18749,-15.86325 -24.15678,-18.20752 m 13.77867,-50.875167 0.53155,0.300584 c 0.48457,-0.611622 1.1955,-1.151449 1.41552,-1.846798 1.06966,-3.379131 3.76198,-5.48172 6.01497,-7.93381 0.0175,-0.01899 0.0365,-0.03602 0.0572,-0.0516 1.69078,-1.261456 3.48744,-2.397571 5.09815,-3.754188 2.13131,-1.795196 4.0202,-3.930403 7.09803,-4.084218 0.38601,-0.01923 0.74038,-0.401339 1.13709,-0.529359 2.25568,-0.728447 4.25799,-2.232797 6.76922,-2.186803 0.73989,0.01363 1.6185,0.172077 2.19873,-0.154058 2.28927,-1.286772 4.72018,-1.851421 7.31075,-1.935385 0.32613,-0.01047 0.64302,-0.300577 0.96429,-0.461215 -0.0265,-0.124369 -0.0533,-0.248489 -0.0801,-0.372859 -0.66955,-0.118045 -1.41186,-0.09006 -1.99598,-0.38041 -2.24984,-1.118588 -4.62381,-1.117373 -7.01943,-0.91585 -1.87015,0.157223 -3.83328,0.124369 -5.56861,0.719685 -1.80663,0.619654 -3.92942,0.66419 -5.35151,2.267845 -0.15552,0.174993 -0.52595,0.175236 -0.80244,0.224644 -3.43365,0.613809 -5.73654,2.823491 -7.86128,5.386803 -1.17165,1.413328 -2.59812,2.615887 -3.9102,3.912633 -0.26018,0.257256 -0.60237,0.468268 -0.77201,0.774933 -1.16946,2.115487 -2.37177,4.217105 -3.42441,6.391004 -0.71968,1.486344 -1.21424,3.081718 -1.80955,4.628418 m 0.4011,-46.803842 c -0.18936,0.520111 -0.3736,0.903439 -0.46852,1.307456 -0.58631,2.495166 0.67904,4.688538 1.19307,7.001897 0.0735,0.330758 0.45001,0.593855 0.68634,0.888349 0.24265,-0.292303 0.59312,-0.546396 0.7119,-0.882508 1.92321,-5.44327 3.81746,-10.896761 5.71731,-16.348307 0.80365,-2.306787 1.45422,-4.681479 2.4426,-6.906247 1.43401,-3.22848 3.11068,-6.349142 4.78954,-9.728764 -2.9593,1.826592 -6.2625,2.834199 -7.76004,6.275884 -0.44684,1.027078 -1.52503,1.760636 -2.17609,2.722 -1.15388,1.704414 -2.55795,3.357474 -3.21315,5.254404 -1.01636,2.943479 -1.51554,6.068522 -2.17146,9.130041 -0.0913,0.427138 0.17304,0.930456 0.2485,1.285795 m 3.2163,45.359854 c 13.06945,-1.54062 22.2231,-9.526274 30.80748,-18.512958 -0.89224,0.05866 -1.6976,0.329294 -2.51343,0.563428 -1.02099,0.293281 -2.04101,0.735019 -3.07831,0.789051 -1.40602,0.0735 -2.73977,0.114874 -4.05355,0.783936 -1.5742,0.801706 -3.21436,1.764529 -4.90831,1.966538 -2.069,0.247038 -3.3234,1.627505 -4.82118,2.611506 -1.77499,1.166533 -3.25964,2.771895 -4.88373,4.171347 -1.08257,0.932892 -2.2148,1.808823 -3.27764,2.762642 -1.51897,1.362947 -2.97148,2.788936 -3.27133,4.86451 m -32.14048,-9.206469 c 0.18108,1.520419 0.24947,2.815216 0.51792,4.067183 0.15163,0.707268 0.66955,1.328143 0.95869,2.014726 1.75845,4.174998 4.79003,7.241875 8.48824,9.704419 1.98844,1.32425 3.98321,2.66311 6.08994,3.77878 2.82495,1.49607 5.97531,1.48634 9.36953,1.77499 -1.27265,-1.76818 -2.50271,-3.1506 -3.35942,-4.73502 -1.85361,-3.428786 -3.96739,-6.621247 -7.22459,-8.85453 -2.23572,-1.533074 -4.59216,-2.890176 -6.89919,-4.318838 -0.15698,-0.09735 -0.35534,-0.124855 -0.5279,-0.199822 -2.30776,-1.004201 -4.61431,-2.011074 -7.41322,-3.231888 m 31.19786,-24.966267 c 5.08452,-1.817344 12.63793,-10.154199 15.02138,-16.501151 2.54457,-6.776524 2.72273,-13.753109 1.78546,-21.195287 -1.8154,1.760149 -3.28373,3.183455 -4.74914,4.609438 -0.0282,0.02726 -0.0183,0.09005 -0.0358,0.132401 -1.00761,2.433834 -2.10333,4.835785 -3.00433,7.308316 -1.31378,3.606699 -2.46304,7.27254 -3.72863,10.897249 -1.06237,3.042779 -2.19629,6.06049 -3.28836,9.092804 -0.64788,1.79909 -1.27606,3.604995 -2.00061,5.65623 m 12.79783,73.432905 c -0.0971,-0.0102 -0.19519,-0.009 -0.29449,0.008 -0.46511,0.0789 -0.8039,0.47069 -1.10034,0.83772 -3.39325,4.19958 -6.84418,8.79417 -7.31002,14.17294 -0.67271,7.76759 4.97865,14.5575 6.9172,22.1092 -0.61308,-11.13212 5.08964,-22.39955 14.42315,-28.49728 0.32053,7.283 0.58071,14.89068 -2.48081,21.50682 -2.48203,5.36392 -7.15913,10.34939 -6.35133,16.20446 0.45098,3.26888 2.58034,6.02326 4.63377,8.60628 5.27412,6.63415 10.54799,13.26854 15.82211,19.90268 -1.71536,-0.52205 -3.03402,-1.87064 -4.24509,-3.1927 -7.65612,-8.35876 -14.21943,-17.71734 -19.47043,-27.76299 -2.03809,-3.89925 -3.97956,-8.03068 -7.37184,-10.83275 -2.34524,-1.93685 -5.21814,-3.09267 -7.90582,-4.51695 -7.34263,-3.89073 -13.49707,-9.98919 -17.45473,-17.29605 7.62155,-1.70928 16.06696,0.9363 21.3513,6.68867 -2.33819,-6.07534 -4.10418,-12.37045 -5.26707,-18.77533 -0.49917,-2.7478 -0.91341,-5.59051 -2.32431,-8.00074 -2.01107,-3.43487 -5.71464,-5.4586 -9.26463,-7.25915 -0.47727,-0.24192 -0.97962,-0.48896 -1.51457,-0.47825 -0.65982,0.0134 -1.24223,0.41423 -1.7638,0.81801 -1.64576,1.27411 -3.36015,2.82593 -5.44084,2.7792 -2.20773,-0.0499 -3.92894,-1.89937 -5.14001,-3.74567 -1.22422,-1.86627 -2.24229,-4.21224 -1.38632,-6.27346 0.96721,-2.32893 4.04041,-3.17688 6.44942,-2.43066 2.40901,0.74596 4.25921,2.6575 5.87211,4.59605 1.6129,1.93855 3.15279,4.02337 5.29968,5.34664 2.72054,1.67667 6.54993,2.32359 7.69943,5.30551 l -0.26237,-11.56411 c -0.0679,-2.99362 -1.48926,-3.61644 -4.11196,-4.14312 -2.87046,-0.57608 -5.65185,-1.54207 -8.26262,-2.86754 -5.21425,-2.64728 -9.73242,-6.695718 -12.81803,-11.673394 -1.6774,-2.705694 -2.97001,-5.770135 -2.93253,-8.953344 0.0134,-1.158265 0.37262,-2.528757 1.46955,-2.900644 0.49772,-0.168912 1.04192,-0.08518 1.5579,0.01387 3.07782,0.591422 6.06,1.678614 8.79636,3.206822 -3.55218,-5.098643 -6.22623,-10.807444 -7.86932,-16.800274 4.67832,1.774997 9.50972,3.69164 13.2661,7.100958 3.7301,3.385217 5.01735,7.881242 5.81102,12.71289 0.74914,4.560518 1.44229,9.450086 4.52742,12.891043 0.78126,-4.864017 1.18211,-9.789125 1.19793,-14.715448 0.0163,-5.175061 -0.41861,-10.463053 -2.46668,-15.215598 -2.04783,-4.752794 -5.93223,-8.935093 -10.93108,-10.274675 -1.22982,-0.329541 -2.57476,-0.518893 -3.52176,-1.370005 -1.42671,-1.282387 -1.37828,-3.529059 -0.92705,-5.393619 0.53155,-2.195319 1.63529,-4.46925 3.69627,-5.393864 2.40195,-1.077457 5.31768,0.103682 7.10849,2.032982 1.36855,1.474417 2.28635,3.411018 2.33478,5.422096 0.0482,2.010833 -0.8387,4.070587 -2.46815,5.249779 2.51488,4.515733 5.10618,8.988636 7.67461,13.474435 -0.63158,-1.031945 -0.0689,-5.062131 0.26894,-6.29097 0.58095,-2.113543 1.84752,-3.992709 1.67472,-6.272724 -0.15747,-2.080441 -0.79173,-4.090545 -1.21108,-6.134235 -2.41704,-11.771481 3.0401,-24.763774 13.13784,-31.278661 1.40846,-0.908794 2.90794,-1.710985 4.11172,-2.877035 1.20402,-1.16605 2.09772,-2.801343 1.89254,-4.464869 0.95991,0.282569 1.32255,1.427444 1.51872,2.408523 1.21034,6.057569 1.68738,12.327612 0.64448,18.416091 -1.04314,6.088723 -3.68531,12.003913 -8.07571,16.349523 -2.54773,2.521696 -5.62702,4.476551 -8.05112,7.117261 -2.42385,2.640954 -4.1767,6.320911 -3.22458,9.776709 2.3613,-2.295589 5.48415,-3.794831 8.75255,-4.201285 0.90904,-0.113173 1.86018,-0.153572 2.66529,-0.590444 1.33909,-0.726502 1.89912,-2.310194 2.60956,-3.65781 1.14171,-2.166842 3.02744,-4.041625 5.39021,-4.686835 2.36277,-0.644965 5.18479,0.177914 6.46353,2.266874 1.18138,1.930273 0.81729,4.573906 -0.58534,6.349874 -1.40261,1.775969 -3.67484,2.728567 -5.93368,2.869249 -3.55754,0.221716 -7.03987,-1.378773 -10.59813,-1.16849 -7.71428,0.455863 -10.19387,7.836706 -10.16053,14.382502 0.0195,3.81528 0.30034,7.783646 -1.19428,11.293962 3.50034,-7.728642 8.76813,-14.86026 15.97081,-19.344109 7.2027,-4.483856 16.48923,-6.023254 24.35806,-2.85075 0.3383,0.136538 0.69778,0.302522 0.87107,0.623305 0.33538,0.620625 -0.21004,1.335931 -0.71579,1.827321 -9.03196,8.776893 -18.93766,17.337415 -31.02189,20.884485 -3.46213,1.016127 -7.4636,1.893522 -9.25806,5.024163 -1.8081,3.154975 -0.52742,6.919145 -0.3972,10.299255 0.0689,1.78497 -0.13752,3.56483 -0.0847,5.35565 0.0299,1.01467 0.0691,2.03809 0.24679,3.03962 0.0874,0.49187 0.96063,2.37883 0.84089,2.72029 4.19349,-11.96497 14.96175,-21.386098 27.37771,-23.952819 -3.74786,11.184439 -11.49695,20.981839 -21.51753,27.204909 -1.94804,1.20961 -4.13289,2.46864 -4.88811,4.63402 -0.4982,1.42866 -0.26699,2.99848 0.0158,4.48507 0.96161,5.05726 2.45404,10.01328 4.44515,14.76047 2.38321,-6.32431 5.5399,-12.35682 9.37757,-17.92007 1.0171,-1.47442 2.1167,-2.94981 3.62252,-3.91994 1.50581,-0.97012 3.51348,-1.34834 5.10059,-0.51792 2.39245,1.25197 2.71883,4.97062 0.88762,6.95517 -1.83123,1.98479 -5.09792,2.18704 -7.46555,0.88835 -0.3529,-0.19349 -0.72382,-0.42227 -1.11202,-0.46316"
       id="path1570"
       style="stroke-width:0.0623062" /><path
       fill-rule="nonzero"
       fill="#000000"
       fill-opacity="1"
       d="m -63.59775,91.127878 c -1.976999,0.505022 -3.050808,1.891577 -3.539039,3.706487 -0.132644,0.493576 0.156015,1.432063 0.544207,1.654028 0.529359,0.302528 2.386132,1.144876 2.957112,0.895408 0.77712,-0.339518 1.242958,-0.778341 2.017162,-1.135623 1.130514,-0.521814 0.668569,-2.59958 0.29887,-3.985163 -0.355581,-1.333495 -1.117617,-1.62872 -2.278312,-1.135137 m 13.765522,-24.400403 c -0.161117,0.137752 -0.322241,0.275268 -0.483359,0.413021 0.810466,1.314267 1.392157,2.869248 2.474483,3.897299 3.184181,3.024771 6.470101,5.950481 10.759736,7.451666 1.820748,0.63718 3.576031,0.687075 5.715368,0.382604 -7.520788,-2.32602 -13.637258,-6.241569 -18.466228,-12.14459 m 18.989993,70.746925 c -0.203717,0.24485 -0.19057,0.22903 -0.39428,0.47363 0.53982,0.8404 1.028294,1.7195 1.629449,2.51366 1.546943,2.04369 2.982907,4.20786 4.768365,6.02399 1.603411,1.63066 3.545126,2.91865 4.588511,5.06261 0.136052,0.2794 0.483359,0.45586 1.049466,0.96453 -0.328322,-1.04509 -0.426404,-1.71464 -0.732097,-2.2698 -1.335202,-2.42409 -2.749988,-4.80438 -4.097115,-7.22191 -0.936537,-1.68081 -1.776455,-3.42246 -3.709896,-4.2227 -1.038755,-0.43006 -2.068757,-0.88178 -3.102403,-1.32401 M -58.812588,50.477251 c -0.279648,2.400977 -0.624519,4.927053 -0.853301,7.463839 -0.174507,1.935141 -0.950412,3.694803 -1.391664,5.520664 -0.554917,2.295838 -1.616801,4.240712 -2.757047,6.165393 -1.735812,2.929118 -3.71574,5.712938 -5.561067,8.578529 -0.195928,0.303991 -0.184732,0.741349 -0.269431,1.116887 1.199637,-0.749132 2.20871,-1.587828 3.010902,-2.592029 1.372193,-1.717556 2.491024,-3.648318 3.941106,-5.290914 2.192155,-2.483729 3.479163,-5.483184 4.084212,-8.540565 0.81461,-4.115615 0.810223,-8.390401 -0.20371,-12.421804 m 42.66195,91.184079 c 0.454392,-1.63797 -0.870829,-1.68957 -1.629942,-2.0948 -2.464987,-1.31549 -4.975489,-2.54531 -7.46384,-3.81723 -0.392579,-0.20103 -0.771039,-0.42836 -1.145848,-0.66078 -1.694191,-1.04972 -3.575058,-1.89791 -5.02124,-3.22021 -2.308493,-2.11111 -4.343667,-4.51354 -5.674489,-7.43731 -0.430299,-0.94506 -1.207425,-1.7324 -1.826106,-2.59179 0.785157,2.0359 1.621181,4.01291 2.512452,5.96484 0.603105,1.32108 1.183817,2.66895 1.94974,3.89535 1.63943,2.62465 4.531071,3.7172 6.93959,5.39046 0.795382,0.55272 1.753825,0.87423 2.645339,1.28482 1.378766,0.63499 2.863161,1.10398 4.12048,1.92297 1.411864,0.91975 2.871435,1.31232 4.593864,1.36368 m -4.90856,11.62764 c 0.117067,-0.13897 0.233891,-0.27795 0.350958,-0.41691 -0.934106,-1.17628 -1.732404,-2.50199 -2.828599,-3.50034 -2.964901,-2.70035 -5.771351,-5.49974 -7.648323,-9.10473 -0.82142,-1.57786 -1.693463,-3.12943 -2.542384,-4.69293 -0.336846,0.92024 -0.635473,1.86894 -0.395015,2.65167 0.795868,2.58911 1.68616,5.1607 2.749502,7.64978 0.441015,1.03219 1.265594,2.03591 2.171712,2.70691 2.027872,1.50144 4.199092,2.81376 6.351576,4.13874 0.517434,0.31835 1.189661,0.38503 1.790573,0.56781 m -42.708673,-30.61082 c 0.12437,0.19739 0.09102,0.14433 0.215393,0.34172 0.706782,-0.29012 1.392393,-0.65179 2.121088,-0.86913 4.046735,-1.20718 7.489149,-3.4098 10.040779,-6.7276 2.500521,-3.25136 4.966972,-6.5548 6.616864,-10.38712 0.732097,-1.701 1.586134,-3.30417 1.24345,-5.251482 -0.418623,0.829212 -0.554432,1.814182 -1.061884,2.539702 -1.631399,2.3321 -3.340195,4.61699 -5.135634,6.82545 -1.288716,1.58491 -2.938614,2.89358 -4.1161,4.54713 -1.862368,2.61491 -4.112692,4.68513 -6.863166,6.32115 -1.143175,0.68001 -2.048315,1.7604 -3.06079,2.66018 m 3.188075,39.79465 c 0.03894,0.0484 0.07788,0.0966 0.117067,0.14481 0.287194,-0.24703 0.670277,-0.44125 0.84089,-0.7523 0.323456,-0.58971 0.53569,-1.24052 0.788566,-1.86869 0.486037,-1.20719 -0.05014,-2.65312 -1.255862,-3.14233 -4.438584,-1.80152 -9.658182,1.53064 -9.776464,6.24766 -0.0085,0.33684 0.111223,0.76982 0.333917,1.00322 0.860604,0.9015 3.446066,1.2802 4.597029,0.69121 1.464438,-0.74986 2.904295,-1.54695 4.354857,-2.32358 m 44.077707,-49.33017 c -0.06863,-0.21855 -0.329051,-0.69218 -0.350958,-1.17675 -0.115117,-2.5621 -1.587592,-4.28696 -3.3969,-5.87528 -1.058476,-0.92948 -2.209924,-0.86109 -3.246007,-0.31153 -1.395315,0.74013 -2.64874,1.74725 -3.729603,2.48105 0.249954,0.6788 0.620383,1.17725 0.495041,1.42769 -0.70143,1.40164 0.143597,2.39733 0.931671,3.21777 2.312386,2.4073 5.081359,3.26158 8.110995,2.00426 z m -14.989981,51.89811 c -3.599887,0.85622 -4.798302,3.91799 -3.422701,6.47229 0.976942,1.81442 2.375665,2.91914 4.215647,3.67144 1.201337,0.49139 2.045878,0.94774 3.482328,-0.0791 1.893278,-1.35296 2.722972,-2.95662 3.054459,-5.06919 0.193249,-1.23176 -0.01217,-2.26541 -0.917066,-3.22775 -2.056838,-2.18704 -4.603845,-1.87405 -6.412667,-1.76769 M -69.951027,75.971421 c 0.207361,0.05014 0.19738,0.0477 0.404747,0.09808 0.844049,-1.394343 1.68178,-2.79258 2.565013,-4.163802 0.40499,-0.628662 0.797083,-1.264864 1.152907,-1.922487 1.010288,-1.868942 2.437485,-3.612299 3.116772,-5.604388 0.961608,-2.820085 1.632371,-5.757236 2.195563,-8.689033 0.352902,-1.836814 0.283293,-3.754432 0.429569,-6.04467 -0.6328,0.471434 -0.950897,0.60067 -1.098632,0.836753 -0.811194,1.295286 -1.571286,2.622456 -2.367876,3.927234 -0.388928,0.636934 -0.868392,1.221784 -1.219836,1.876729 -0.81704,1.52212 -1.644303,3.043997 -2.350599,4.618444 -0.887377,1.978217 -1.970189,3.945004 -2.398058,6.033718 -0.503316,2.45647 -0.406205,5.038038 -0.542014,7.566789 -0.02604,0.485309 0.07082,0.977428 0.112444,1.466631 m 3.460421,46.717441 c 5.141479,-3.9669 10.521222,-7.61376 14.497863,-12.83798 2.123524,-2.78967 4.255073,-5.57422 6.317507,-8.40866 0.403768,-0.55467 0.505259,-1.32887 0.746209,-2.002075 -1.972133,1.003715 -3.625925,2.277585 -5.385102,3.384495 -2.873379,1.80785 -5.23761,4.16575 -7.494015,6.64923 -1.463952,1.61096 -2.762642,3.38401 -4.31543,4.8998 -2.353029,2.29705 -3.319753,5.26755 -4.367032,8.31519 m 37.23547,-44.680323 c -0.04722,-0.150899 -0.08591,-0.387713 -0.190569,-0.589965 -2.513418,-4.860851 -6.666266,-8.307403 -10.889215,-11.411514 -3.506179,-2.577431 -7.780967,-4.109529 -11.716721,-6.102109 -0.33684,-0.170612 -0.68439,-0.320536 -1.027074,-0.480196 -0.172077,0.19422 -0.161123,0.182051 -0.333194,0.376271 5.689573,9.086235 13.18724,15.863244 24.156773,18.207513 M -43.033798,128.8837 c -0.177429,-0.10027 -0.354609,-0.2003 -0.531546,-0.30058 -0.484823,0.61162 -1.195749,1.15145 -1.415521,1.84655 -1.069672,3.37938 -3.76222,5.48172 -6.015223,7.93381 -0.01728,0.019 -0.03626,0.0363 -0.05695,0.0516 -1.691032,1.26146 -3.487686,2.39757 -5.098151,3.75443 -2.131312,1.79495 -4.020454,3.93016 -7.098035,4.08398 -0.386248,0.0192 -0.740371,0.40134 -1.13733,0.5296 -2.255433,0.72845 -4.257753,2.2328 -6.768984,2.18655 -0.740128,-0.0134 -1.618495,-0.17183 -2.198721,0.15431 -2.289508,1.28677 -4.720177,1.85141 -7.310998,1.93514 -0.325886,0.0107 -0.643018,0.30082 -0.964038,0.46145 0.02653,0.12413 0.0533,0.2485 0.08007,0.37287 0.669548,0.11804 1.411869,0.0898 1.995747,0.38017 2.25008,1.11883 4.623795,1.11737 7.019666,0.91585 1.870156,-0.15723 3.833286,-0.12413 5.568612,-0.71945 1.806386,-0.61965 3.929425,-0.66419 5.351513,-2.26784 0.155279,-0.17524 0.525951,-0.17524 0.802434,-0.22465 3.433655,-0.6138 5.736546,-2.82373 7.861286,-5.3868 1.171642,-1.41357 2.598116,-2.61588 3.909954,-3.91287 0.260421,-0.25726 0.602369,-0.46803 0.77201,-0.77494 1.169455,-2.11524 2.372014,-4.2171 3.424645,-6.39076 0.719686,-1.48634 1.214241,-3.08172 1.809558,-4.62842 m -0.401339,46.8036 c 0.189355,-0.52011 0.373837,-0.9032 0.468754,-1.30721 0.586313,-2.49517 -0.679037,-4.68854 -1.193306,-7.00214 -0.07326,-0.33051 -0.449776,-0.59361 -0.686097,-0.8881 -0.242657,0.2923 -0.593129,0.54639 -0.711897,0.88226 -1.923217,5.44327 -3.81771,10.89676 -5.717319,16.3483 -0.803655,2.30704 -1.454462,4.68173 -2.4426,6.9065 -1.434013,3.22848 -3.110678,6.34914 -4.789785,9.72851 2.959299,-1.82634 6.262746,-2.83395 7.760038,-6.27563 0.447096,-1.02708 1.525285,-1.76064 2.176092,-2.722 1.154121,-1.70442 2.558203,-3.35748 3.21339,-5.25465 1.016369,-2.94348 1.515547,-6.06852 2.171226,-9.13004 0.09151,-0.42714 -0.172807,-0.93046 -0.248496,-1.2858 m -3.216069,-45.35985 c -13.069444,1.54086 -22.223339,9.52652 -30.807469,18.5132 0.892243,-0.0589 1.6976,-0.32929 2.513418,-0.56367 1.020992,-0.29304 2.041012,-0.73478 3.078316,-0.78905 1.406025,-0.0733 2.739763,-0.11488 4.053308,-0.78394 1.574445,-0.8017 3.214605,-1.76428 4.908553,-1.96654 2.069,-0.24679 3.323404,-1.62726 4.820938,-2.61126 1.774997,-1.16654 3.259877,-2.77214 4.883974,-4.17159 1.082569,-0.93265 2.21479,-1.80883 3.277646,-2.76265 1.518712,-1.36295 2.971468,-2.78868 3.271316,-4.8645 m 32.140484,9.2067 c -0.18108,-1.52041 -0.249467,-2.81545 -0.51792,-4.06742 -0.151628,-0.70703 -0.669548,-1.32814 -0.958692,-2.01448 -1.758442,-4.17525 -4.790028,-7.24212 -8.488235,-9.70467 -1.988444,-1.32401 -3.983456,-2.66286 -6.08994,-3.77853 -2.824955,-1.49632 -5.975309,-1.48659 -9.36953,-1.77524 1.27241,1.76843 2.502707,3.15084 3.359174,4.73503 1.85385,3.42903 3.967636,6.62149 7.224597,8.85477 2.235962,1.53283 4.592399,2.89018 6.899428,4.31884 0.156743,0.0971 0.355344,0.12461 0.527901,0.19982 2.307764,1.00395 4.614063,2.01108 7.413217,3.23188 m -31.197861,24.96628 c -5.084767,1.8171 -12.638167,10.15395 -15.021377,16.5009 -2.544577,6.77653 -2.722978,13.75311 -1.785464,21.19553 1.815396,-1.76039 3.283485,-3.18345 4.749143,-4.60944 0.02799,-0.0273 0.01825,-0.0903 0.03578,-0.1324 1.007608,-2.43383 2.103318,-4.83578 3.004078,-7.30856 1.314031,-3.60645 2.463043,-7.27253 3.72888,-10.897 1.06237,-3.04278 2.196292,-6.06049 3.28835,-9.09305 0.647648,-1.79884 1.275818,-3.60499 2.000613,-5.65598 M -58.506409,91.067515 c 0.09711,0.01023 0.195193,0.0085 0.294247,-0.0083 0.465352,-0.07885 0.804142,-0.470461 1.100582,-0.837482 3.393249,-4.199578 6.844181,-8.79417 7.310019,-14.173185 0.672713,-7.76734 -4.97889,-14.557494 -6.91744,-22.108951 0.613323,11.131873 -5.089391,22.399547 -14.423145,28.497276 -0.320291,-7.283004 -0.580469,-14.890684 2.480806,-21.506818 2.482022,-5.363926 7.159363,-10.349635 6.351577,-16.204466 -0.450991,-3.268883 -2.580354,-6.023253 -4.633777,-8.606524 -5.274116,-6.634145 -10.547995,-13.268289 -15.822111,-19.902678 1.715369,0.522058 3.034016,1.870645 4.245092,3.192947 7.656111,8.358759 14.219435,17.717338 19.470429,27.762988 2.03809,3.899245 3.979562,8.030678 7.371839,10.832508 2.345241,1.937089 5.217898,3.092917 7.905579,4.516953 7.34288,3.890727 13.497313,9.989184 17.454975,17.296038 -7.621557,1.709525 -16.067199,-0.93605 -21.351296,-6.688415 2.338181,6.075092 4.103932,12.370449 5.267057,18.775322 0.498935,2.747801 0.91342,5.590519 2.324312,8.000503 2.01108,3.435109 5.714645,5.458599 9.264631,7.259149 0.477278,0.24216 0.979621,0.4892 1.514576,0.47825 0.659573,-0.0134 1.242229,-0.414 1.7638,-0.81777 1.64576,-1.27435 3.360152,-2.82617 5.440834,-2.7792 2.207731,0.0499 3.928939,1.89913 5.140015,3.74567 1.223979,1.86627 2.242292,4.21224 1.386068,6.27346 -0.967203,2.32893 -4.040404,3.17664 -6.449415,2.43066 -2.408768,-0.74596 -4.258968,-2.6575 -5.872112,-4.59605 -1.612657,-1.93879 -3.152541,-4.02361 -5.299431,-5.34664 -2.720778,-1.67692 -6.550177,-2.32359 -7.699675,-5.30552 l 0.262608,11.56388 c 0.06791,2.99361 1.489266,3.61668 4.111963,4.14311 2.870463,0.57633 5.651853,1.54208 8.262624,2.86754 5.214246,2.64753 9.732414,6.69597 12.818032,11.6734 1.6774,2.7057 2.970004,5.77014 2.932526,8.95359 -0.01363,1.15827 -0.372865,2.52876 -1.469795,2.90064 -0.497471,0.16867 -1.041678,0.0852 -1.557654,-0.0141 -3.078067,-0.59142 -6.060002,-1.67837 -8.796607,-3.20658 3.552429,5.09864 6.226478,10.80744 7.86956,16.80027 -4.678314,-1.77499 -9.509962,-3.69164 -13.266338,-7.10095 -3.729852,-3.38547 -5.017109,-7.88124 -5.811026,-12.71289 -0.748889,-4.56052 -1.442045,-9.45009 -4.527172,-12.89104 -0.781263,4.86401 -1.182358,9.78912 -1.197935,14.7152 -0.01655,5.17531 0.418623,10.46305 2.466694,15.21584 2.047823,4.7528 5.932225,8.9351 10.931078,10.27443 1.229812,0.32954 2.574509,0.5189 3.521513,1.37025 1.426954,1.28239 1.378523,3.52882 0.927047,5.39337 -0.531303,2.19557 -1.635051,4.4695 -3.69602,5.39412 -2.401952,1.07721 -5.317686,-0.10369 -7.108502,-2.03323 -1.368542,-1.47417 -2.286586,-3.41077 -2.334773,-5.42185 -0.04844,-2.01084 0.838696,-4.07059 2.468152,-5.25003 -2.514882,-4.51573 -5.106432,-8.98863 -7.674853,-13.47419 0.631822,1.03195 0.06888,5.06189 -0.268938,6.29097 -0.580712,2.1133 -1.847284,3.99247 -1.674478,6.27272 0.157466,2.0802 0.791481,4.09055 1.211076,6.134 2.417036,11.77172 -3.040104,24.76377 -13.137838,31.2789 -1.408461,0.90855 -2.907946,1.71074 -4.111963,2.87679 -1.203773,1.16605 -2.09748,2.80159 -1.892549,4.46487 -0.959658,-0.28233 -1.322548,-1.4272 -1.518469,-2.40828 -1.210347,-6.05757 -1.687619,-12.32761 -0.644477,-18.41633 1.043142,-6.08848 3.68531,-12.00367 8.0757,-16.34952 2.547499,-2.5217 5.627024,-4.47656 8.050883,-7.11727 2.424095,-2.64071 4.176948,-6.32091 3.224829,-9.77671 -2.361546,2.29584 -5.484399,3.79484 -8.752556,4.20153 -0.909034,0.11317 -1.860175,0.15333 -2.665532,0.59045 -1.338853,0.7265 -1.899122,2.31019 -2.609313,3.65781 -1.14171,2.16684 -3.027692,4.04162 -5.390454,4.68659 -2.362524,0.6452 -5.184557,-0.17767 -6.463291,-2.26663 -1.18163,-1.93028 -0.817525,-4.57415 0.585335,-6.35012 1.402618,-1.77597 3.674848,-2.72833 5.933446,-2.86925 3.557775,-0.22172 7.040109,1.37877 10.59837,1.16849 7.714037,-0.45586 10.193628,-7.83646 10.160288,-14.38226 -0.01947,-3.81528 -0.300091,-7.78388 1.194521,-11.2942 -3.50034,7.72888 -8.768126,14.86026 -15.970817,19.34435 -7.202933,4.48386 -16.489223,6.02326 -24.358053,2.85051 -0.338304,-0.1363 -0.697779,-0.30252 -0.871071,-0.62331 -0.335382,-0.62062 0.21004,-1.33568 0.715792,-1.82732 9.031961,-8.77689 18.937661,-17.33717 31.021646,-20.88424 3.462378,-1.01613 7.463841,-1.89376 9.258308,-5.02441 1.808093,-3.15473 0.527409,-6.9189 0.396958,-10.29901 -0.06888,-1.78522 0.137753,-3.56484 0.0847,-5.35565 -0.0297,-1.01467 -0.06888,-2.03809 -0.246794,-3.03986 -0.08713,-0.49188 -0.960387,-2.37859 -0.840647,-2.72006 -4.193497,11.96474 -14.961751,21.3861 -27.377709,23.95283 3.747858,-11.18444 11.496943,-20.98184 21.517522,-27.204909 1.948046,-1.209855 4.132898,-2.468882 4.887874,-4.63402 0.498449,-1.428662 0.266988,-2.998727 -0.01558,-4.485065 -0.961609,-5.057265 -2.454283,-10.013284 -4.445401,-14.760476 -2.382967,6.324317 -5.539895,12.356817 -9.377318,17.920077 -1.017099,1.474419 -2.116952,2.949561 -3.622517,3.919935 -1.505815,0.970126 -3.513482,1.348343 -5.100587,0.517677 -2.392457,-1.251967 -2.718835,-4.970379 -0.88762,-6.954924 1.831215,-1.984793 5.097665,-2.187045 7.465298,-0.888598 0.352909,0.193492 0.724066,0.422517 1.112265,0.463402"
       id="path1572"
       style="stroke-width:0.0623062" /></g></svg>
