<?xml version="1.0" encoding="UTF-8" standalone="no"?>
<!-- Created with Inkscape (http://www.inkscape.org/) -->

<svg
   width="187.83482mm"
   height="187.83482mm"
   viewBox="0 0 187.83482 187.83482"
   version="1.1"
   id="svg314"
   sodipodi:docname="favicon_leaves.svg"
   inkscape:version="1.2.2 (732a01da63, 2022-12-09)"
   xmlns:inkscape="http://www.inkscape.org/namespaces/inkscape"
   xmlns:sodipodi="http://sodipodi.sourceforge.net/DTD/sodipodi-0.dtd"
   xmlns="http://www.w3.org/2000/svg"
   xmlns:svg="http://www.w3.org/2000/svg">
  <sodipodi:namedview
     id="namedview316"
     pagecolor="#ffffff"
     bordercolor="#000000"
     borderopacity="0.25"
     inkscape:showpageshadow="2"
     inkscape:pageopacity="0.0"
     inkscape:pagecheckerboard="0"
     inkscape:deskcolor="#d1d1d1"
     inkscape:document-units="mm"
     showgrid="false"
     inkscape:zoom="0.89571167"
     inkscape:cx="502.95203"
     inkscape:cy="392.42539"
     inkscape:window-width="1600"
     inkscape:window-height="822"
     inkscape:window-x="1792"
     inkscape:window-y="-8"
     inkscape:window-maximized="1"
     inkscape:current-layer="layer1" />
  <defs
     id="defs311">
    <clipPath
       clipPathUnits="userSpaceOnUse"
       id="clipPath8228">
      <g
         id="g8232"
         transform="matrix(2.8346458,0,0,-2.8346457,-820.11068,1871.3793)">
        <path
           d="M -221.77512,-93.85702 H 2071.2803 V 1317.2541 H -221.77512 Z"
           id="path8230"
           style="stroke-width:0.352778" />
      </g>
    </clipPath>
    <clipPath
       clipPathUnits="userSpaceOnUse"
       id="clipPath8222">
      <g
         id="g8226"
         transform="matrix(2.8346458,0,0,-2.8346457,-4535.6156,1202.3129)">
        <path
           d="M -221.77512,-93.85702 H 2071.2803 V 1317.2541 H -221.77512 Z"
           id="path8224"
           style="stroke-width:0.352778" />
      </g>
    </clipPath>
  </defs>
  <g
     inkscape:label="레이어 1"
     inkscape:groupmode="layer"
     id="layer1"
     transform="translate(-10.60714,-57.45536)">
    <circle
       style="fill:#c8c8c8;fill-opacity:1;stroke-width:0"
       id="path413"
       cx="104.52455"
       cy="151.37277"
       r="93.917412" />
    <g
       id="g3971">
      <path
         style="fill:#006400;fill-opacity:1;stroke-width:0"
         d="m 45.084795,273.95724 c -2.988306,0.9616 -1.453617,4.87297 -1.454144,7.15435 0.293935,5.56304 2.187722,10.81687 4.948091,15.6158 5.281691,11.36261 14.107242,20.65895 24.250627,27.85162 8.580691,6.05053 17.304346,12.24504 27.136335,16.09557 8.027676,2.64878 16.618926,3.2529 24.983356,3.62025 2.77431,-1.42557 -0.0142,-4.37216 -1.14169,-5.96215 -5.67434,-6.87529 -9.63419,-14.87452 -14.50506,-22.28484 -6.01056,-9.44552 -14.658269,-16.8741 -24.2866,-22.45679 -9.577992,-6.43949 -19.969937,-11.4832 -30.621378,-15.87115 -3.119218,-1.13892 -6.085737,-3.05656 -9.309537,-3.76266 z"
         id="path3914"
         transform="matrix(0.26458333,0,0,0.26458333,10.60714,57.45536)" />
      <path
         style="fill:#006400;fill-opacity:1;stroke-width:0"
         d="m 50.503829,266.8022 c -3.45612,0.29041 -3.340559,5.60477 -0.528389,6.88649 9.6298,5.92967 20.123123,10.33514 29.930474,15.97163 7.852246,4.37822 16.087739,8.56677 22.013776,15.53898 5.89977,5.70406 10.1628,12.73993 13.9663,19.94244 1.45382,1.98176 2.53678,5.21753 5.17898,5.71601 2.8023,-0.42717 1.02606,-3.6637 0.37849,-5.22954 -4.34593,-9.91057 -8.16748,-20.22172 -14.29133,-29.20922 -6.06034,-6.89553 -14.448499,-11.0617 -22.24114,-15.65024 -7.863007,-4.00118 -15.993017,-7.25756 -23.753942,-11.45191 -3.370791,-1.4237 -6.987263,-2.37482 -10.653219,-2.51464 z"
         id="path3916"
         transform="matrix(0.26458333,0,0,0.26458333,10.60714,57.45536)" />
      <g
         id="g3950">
        <path
           style="fill:#006400;fill-opacity:1;stroke-width:0"
           d="m 219.59164,475.75283 c -3.12288,2.80657 -4.82916,6.96893 -7.23051,10.40116 -6.24134,11.05292 -14.59541,21.24313 -17.76418,33.7655 -3.7686,13.40486 -6.81752,27.25024 -6.22383,41.24743 1.66351,2.71002 4.43017,-0.31878 5.58394,-1.94211 4.23961,-5.97775 7.91595,-12.35077 11.75087,-18.59354 5.37427,-10.18422 10.94521,-20.40512 14.54289,-31.37895 2.28084,-9.46775 2.2939,-19.32452 2.37426,-29.0108 -0.0616,-1.82964 -0.31731,-5.15149 -3.03344,-4.48869 z"
           id="path3898"
           transform="matrix(0.26458333,0,0,0.26458333,10.60714,57.45536)" />
        <path
           style="fill:#006400;fill-opacity:1;stroke-width:0"
           d="m 219.38761,465.76577 c -6.10842,2.65533 -10.2477,8.35701 -14.08949,13.58551 -6.72337,9.81352 -15.57544,18.49617 -19.29838,30.07629 -5.17648,15.41289 -5.52601,32.27543 -2.24871,48.11213 0.93508,2.10362 3.71942,0.58227 3.40837,-1.38985 1.88567,-11.86241 1.91731,-24.11308 6.03919,-35.52982 3.563,-15.31128 13.27885,-28.02289 21.52793,-41.05668 2.16431,-3.99549 5.75337,-7.45801 6.62206,-12.01188 0.0897,-1.05496 -0.92633,-1.96115 -1.96097,-1.7857 z"
           id="path3900"
           transform="matrix(0.26458333,0,0,0.26458333,10.60714,57.45536)" />
        <path
           style="fill:#006400;fill-opacity:1;stroke-width:0"
           d="m 91.973609,469.82198 c -2.988139,0.32124 -1.452727,3.64436 -0.41591,5.16443 8.853591,15.99416 23.455641,27.80312 38.300081,37.99012 10.98871,6.69147 22.81435,11.90493 34.55145,17.12231 1.66086,0.98759 5.15839,1.35045 4.99684,-1.46182 -1.95172,-4.90702 -5.60154,-9.01411 -8.64517,-13.30213 -11.98976,-15.55275 -26.72222,-29.49319 -44.79314,-37.65516 -7.65085,-3.42437 -15.6771,-6.62213 -23.994151,-7.85775 z"
           id="path3902"
           transform="matrix(0.26458333,0,0,0.26458333,10.60714,57.45536)" />
        <path
           style="fill:#006400;fill-opacity:1;stroke-width:0"
           d="m 102.12896,466.27497 c -1.71623,-0.2193 -4.868502,0.52311 -3.672565,2.88957 2.468665,2.15353 6.142405,2.27234 8.990455,3.8548 16.45406,6.32423 31.43284,16.301 43.32524,29.29591 2.22812,1.74633 3.82324,4.96237 6.73478,5.50187 2.75257,-0.21758 2.11504,-3.62203 0.9565,-5.181 -2.59336,-5.7307 -6.54134,-10.67503 -11.33483,-14.72206 -10.13963,-9.20623 -21.51557,-18.26313 -35.22091,-21.14732 -3.23818,-0.42375 -6.51527,-0.54455 -9.77867,-0.49177 z"
           id="path3904"
           transform="matrix(0.26458333,0,0,0.26458333,10.60714,57.45536)" />
        <path
           style="fill:#006400;fill-opacity:1;stroke-width:0"
           d="m 202.16877,407.83398 c -3.93092,0.47794 -7.60722,2.82808 -10.2966,5.6562 -2.54286,4.00358 -0.50181,9.03341 0.57199,13.20361 0.54279,2.71433 2.96416,5.04575 5.87539,4.26235 7.94224,-0.5661 15.53822,-7.8634 14.98113,-16.05693 -0.60479,-4.72571 -6.14677,-6.03693 -10.01933,-7.01291 -0.36911,-0.0426 -0.74097,-0.0645 -1.11258,-0.0523 z"
           id="path3906"
           transform="matrix(0.26458333,0,0,0.26458333,10.60714,57.45536)" />
        <path
           style="fill:#006400;fill-opacity:1;stroke-width:0"
           d="m 62.761396,350.19516 c -4.178296,0.17241 -9.231144,0.8188 -11.278644,5.04743 -1.57911,2.09764 -2.32776,4.75854 -1.267302,7.26985 0.703639,6.39431 3.666868,12.35652 8.25269,16.85793 2.946025,3.49842 7.28735,6.61266 12.102246,5.47609 4.918925,-1.23045 8.762174,-4.92916 13.051479,-7.45465 1.760713,-0.82792 3.292372,-2.59177 2.093042,-4.54831 -1.791913,-2.7546 0.86543,-5.81843 -0.589423,-8.68266 -2.837018,-5.89577 -8.493698,-10.20638 -14.440004,-12.6883 -2.519406,-0.96576 -5.234515,-1.34112 -7.924084,-1.27738 z"
           id="path3908"
           transform="matrix(0.26458333,0,0,0.26458333,10.60714,57.45536)" />
        <path
           style="fill:#006400;fill-opacity:1;stroke-width:0"
           d="m 209.06747,327.68023 c -10.55364,7.35597 -20.62831,15.46773 -30.36141,23.89432 -11.78642,9.89899 -20.30003,22.84398 -29.57494,34.95909 -3.12928,4.77471 -7.53875,9.09644 -8.95557,14.76175 -0.48295,2.6244 2.81237,2.67289 4.22972,1.35149 8.66613,-5.43284 17.3809,-10.91802 25.31658,-17.38787 11.27583,-9.98919 20.5351,-21.96036 30.70549,-32.97371 5.12761,-6.73703 8.01696,-14.87626 10.74758,-22.79756 0.007,-1.28328 -0.81974,-2.05397 -2.10745,-1.80751 z"
           id="path3910"
           transform="matrix(0.26458333,0,0,0.26458333,10.60714,57.45536)" />
        <path
           style="fill:#006400;fill-opacity:1;stroke-width:0"
           d="m 200.45282,326.44209 c -4.68473,1.29312 -9.20029,3.31715 -13.88147,4.97094 -11.63824,4.53229 -21.45269,12.88412 -28.62067,23.0293 -8.94088,11.8704 -17.36864,24.55121 -21.92202,38.81039 -0.55161,2.89541 -1.16092,6.03498 -0.43946,8.89803 2.875,1.81853 3.27788,-2.5347 4.23409,-4.39539 5.81196,-10.67446 13.67569,-20.05673 21.67874,-29.17789 7.78485,-7.59822 13.48262,-17.00773 22.0091,-23.84715 6.13441,-5.24386 13.89339,-9.02589 18.82593,-15.62274 0.68408,-1.31304 -0.44628,-2.82184 -1.88424,-2.66549 z"
           id="path3912"
           transform="matrix(0.26458333,0,0,0.26458333,10.60714,57.45536)" />
        <path
           style="fill:#006400;fill-opacity:1;stroke-width:0"
           d="m 59.727958,232.79787 c -2.796272,1.14671 -0.603818,4.54921 -0.117711,6.56213 3.929175,8.84699 9.312558,16.98083 14.038914,25.4169 3.076335,5.19841 5.944385,11.24674 11.930598,13.63241 3.599995,1.45852 7.037506,3.86662 10.940083,4.30296 2.675625,-0.34011 2.633384,-3.67154 1.199774,-5.35625 -6.958607,-11.07245 -15.07351,-21.46561 -24.61796,-30.43823 -3.963957,-3.76641 -7.339253,-8.03903 -10.542547,-12.44233 -0.736189,-0.80128 -1.60702,-1.8589 -2.831151,-1.67759 z"
           id="path3918"
           transform="matrix(0.26458333,0,0,0.26458333,10.60714,57.45536)" />
        <path
           style="fill:#006400;fill-opacity:1;stroke-width:0"
           d="m 65.849766,230.03386 c -2.730669,-0.17274 -3.216593,3.19119 -1.613067,4.83484 8.350001,12.21757 21.220765,20.58155 28.852106,33.38875 4.244366,6.35904 7.131855,13.58225 11.567875,19.81283 2.89022,1.2027 3.24429,-2.75646 3.63245,-4.6779 0.80766,-4.96682 -2.00819,-9.63272 -3.19359,-14.32301 -2.67441,-6.79977 -4.33815,-14.31685 -9.016893,-20.10421 -6.383874,-6.67393 -14.660104,-11.13461 -22.439537,-15.95625 -2.448877,-1.25702 -4.961556,-2.85612 -7.789344,-2.97505 z"
           id="path3920"
           transform="matrix(0.26458333,0,0,0.26458333,10.60714,57.45536)" />
        <path
           style="fill:#006400;fill-opacity:1;stroke-width:0"
           d="m 242.68466,244.19048 c -6.62317,1.30966 -12.95622,4.20263 -19.81679,4.35268 -8.94857,0.29284 -15.73388,7.1222 -24.42485,8.39492 -7.7773,1.27236 -13.5711,7.05278 -19.75179,11.43708 -8.4421,7.17493 -16.98257,14.26864 -25.04178,21.87755 -3.65924,3.66971 -7.40475,8.04744 -8.12986,13.33265 0.59133,3.10439 4.47145,1.70749 6.58696,1.45271 22.75588,-3.51965 43.8166,-14.35518 61.59311,-28.74482 10.77946,-8.64655 20.86458,-18.16914 30.33213,-28.22268 1.4451,-1.3878 1.02838,-4.03209 -1.34713,-3.88009 z"
           id="path3922"
           transform="matrix(0.26458333,0,0,0.26458333,10.60714,57.45536)" />
        <path
           style="fill:#006400;fill-opacity:1;stroke-width:0"
           d="m 234.89835,229.81239 c -10.11207,0.22586 -20.30041,1.0694 -29.95859,4.27593 -4.02169,0.99946 -8.06729,2.37683 -11.08046,5.34318 -3.84427,1.64305 -8.22743,1.93711 -11.85038,4.22711 -9.51676,5.25525 -15.77328,14.49584 -23.6318,21.73824 -3.71116,3.99236 -8.44435,7.22749 -10.47097,12.48654 -5.38975,9.91535 -11.03716,19.93704 -13.78091,30.95883 0.18286,2.78333 3.89356,2.39704 5.13653,0.57111 4.07497,-4.02179 4.90023,-10.07117 8.6198,-14.3737 7.14966,-9.9781 16.66647,-17.51134 26.5186,-24.61446 7.01587,-4.87318 12.67937,-12.29318 21.19252,-14.64153 9.1766,-1.51123 16.96373,-7.36742 26.05583,-9.07764 4.23666,-0.2967 8.74187,0.4374 12.58856,-1.8627 6.57773,-3.27305 13.84972,-4.58199 21.09665,-5.25311 2.18015,-0.0313 5.41404,-2.25105 3.47986,-4.57501 -2.40292,-1.61813 -5.64532,-1.14242 -8.18043,-2.61491 -4.96653,-2.07184 -10.3914,-2.68756 -15.73481,-2.58788 z"
           id="path3924"
           transform="matrix(0.26458333,0,0,0.26458333,10.60714,57.45536)" />
        <path
           style="fill:#006400;fill-opacity:1;stroke-width:0"
           d="m 205.49169,192.56361 c -5.47655,2.93599 -10.8588,5.99982 -16.5396,8.41847 -3.1634,3.04448 -4.82341,7.52432 -5.44694,11.79719 0.0426,4.74629 3.91952,8.74639 8.56495,9.35492 13.70742,3.84848 29.96011,-7.38361 29.81929,-21.95167 0.36977,-3.1003 -1.73969,-5.8579 -4.72607,-6.58393 -3.71993,-1.28808 -7.81261,-1.4277 -11.67163,-1.03498 z"
           id="path3926"
           transform="matrix(0.26458333,0,0,0.26458333,10.60714,57.45536)" />
        <path
           style="fill:#006400;fill-opacity:1;stroke-width:0"
           d="m 89.737113,158.38751 c -5.394931,0.49177 -9.316282,5.06449 -12.323834,9.16658 -3.053953,5.26848 -5.069905,11.99983 -2.900034,17.94254 3.483369,6.58392 11.164571,10.46724 18.539756,9.74466 4.661469,0.1984 9.577349,-0.31936 13.273419,-3.46939 3.95128,-2.75942 6.60243,-7.41471 5.97417,-12.32207 0.25654,-7.3959 -5.63695,-13.22674 -11.35484,-17.04709 -3.427839,-1.91758 -7.191048,-3.95535 -11.208637,-4.01523 z"
           id="path3928"
           transform="matrix(0.26458333,0,0,0.26458333,10.60714,57.45536)" />
        <path
           style="fill:#006400;fill-opacity:1;stroke-width:0"
           d="m 183.44063,80.717015 c -5.43326,2.259277 -10.5617,5.403029 -15.49853,8.620755 -4.56545,3.330722 -7.80453,8.013119 -10.55524,12.85878 -7.07469,8.96525 -14.99524,17.99414 -17.7494,29.38291 -2.12516,8.68319 -4.5356,17.4123 -5.19571,26.35465 0.35953,4.66205 -2.38185,9.0844 -1.00708,13.74595 1.3332,5.85168 2.55857,11.96312 5.48181,17.24587 1.41067,2.72639 4.40288,0.87074 5.06503,-1.35411 9.28295,-23.37619 16.65319,-47.48914 25.28679,-71.06913 4.5387,-11.60165 10.88955,-22.382958 15.8691,-33.778496 0.18888,-0.96509 -0.64622,-2.127696 -1.69677,-2.007179 z"
           id="path3930"
           transform="matrix(0.26458333,0,0,0.26458333,10.60714,57.45536)" />
        <path
           style="fill:#006400;fill-opacity:1;stroke-width:0"
           d="m 196.85786,74.902125 c -3.57889,1.464527 -5.88179,5.030368 -8.81126,7.452871 -3.10434,3.343939 -7.32617,5.939912 -8.53656,10.605952 -10.81485,24.437932 -18.1919,50.188722 -27.52619,75.194182 -2.93939,8.65479 -6.52777,17.127 -9.04516,25.90558 -0.36741,2.61564 2.93373,2.90337 4.45468,1.51977 14.21524,-7.65624 25.37714,-19.91354 34.82274,-32.79068 11.50973,-15.61194 16.97501,-34.94314 17.76912,-54.16088 0.37198,-10.789119 0.38962,-21.692487 -1.18123,-32.386641 -0.20351,-0.85371 -1.0759,-1.454156 -1.94614,-1.340154 z"
           id="path3932"
           transform="matrix(0.26458333,0,0,0.26458333,10.60714,57.45536)" />
      </g>
    </g>
    <g
       id="g2870"
       transform="matrix(0.05248552,0,0,-0.05248553,63.715771,170.99114)"
       clip-path="url(#clipPath8228)">
      <path
         d="M 0,0 C 31.731,8.104 48.964,30.36 56.799,59.486 58.931,67.41 54.297,82.471 48.067,86.032 39.572,90.89 9.771,104.409 0.606,100.405 -11.867,94.955 -19.341,87.913 -31.768,82.179 -49.914,73.803 -42.499,40.454 -36.568,18.217 -30.861,-3.186 -18.628,-7.923 0,0 m -220.934,-391.623 c 2.586,2.21 5.172,4.42 7.758,6.631 -13.007,21.092 -22.344,46.049 -39.713,62.549 -51.106,48.548 -103.844,95.505 -172.695,119.598 -29.221,10.225 -57.393,11.026 -91.729,6.14 120.707,-37.331 218.877,-100.176 296.379,-194.918 M -525.716,743.851 c 3.268,3.927 3.056,3.674 6.324,7.601 -8.663,13.488 -16.505,27.598 -26.151,40.342 -24.829,32.802 -47.876,67.536 -76.532,96.683 -25.732,26.174 -56.899,46.848 -73.644,81.256 -2.182,4.484 -7.758,7.316 -16.842,15.479 5.267,-16.772 6.843,-27.516 11.75,-36.426 21.427,-38.909 44.134,-77.11 65.757,-115.913 15.031,-26.974 28.511,-54.93 59.542,-67.773 16.674,-6.901 33.204,-14.15 49.796,-21.249 M -76.802,-652.436 c 4.49,38.536 10.023,79.081 13.695,119.793 2.801,31.057 15.255,59.302 22.337,88.608 8.906,36.848 25.948,68.063 44.25,98.951 27.858,47.013 59.638,91.692 89.255,137.684 3.142,4.88 2.963,11.9 4.325,17.926 -19.258,-12.024 -35.45,-25.486 -48.323,-41.6 -22.025,-27.57 -39.984,-58.555 -63.257,-84.921 -35.183,-39.862 -55.84,-88.004 -65.551,-137.072 -13.074,-66.056 -13.003,-134.664 3.269,-199.369 M -761.514,811.049 c -7.295,-26.289 13.975,-27.116 26.16,-33.62 39.561,-21.115 79.855,-40.851 119.79,-61.268 6.305,-3.223 12.375,-6.873 18.394,-10.603 27.189,-16.849 57.377,-30.46 80.588,-51.685 37.051,-33.881 69.716,-72.442 91.076,-119.366 6.905,-15.17 19.38,-27.805 29.306,-41.599 -12.599,32.675 -26.02,64.406 -40.323,95.736 -9.68,21.202 -18.999,42.837 -31.295,62.52 -26.312,42.122 -72.721,59.658 -111.376,86.515 -12.767,8.87 -28.148,14.032 -42.457,20.622 -22.13,10.191 -45.952,17.717 -66.133,30.861 -22.664,14.761 -46.087,21.064 -73.73,21.887 m 78.781,186.619 c -1.879,-2.229 -3.757,-4.459 -5.636,-6.689 14.993,-18.879 27.806,-40.154 45.399,-56.178 47.588,-43.343 92.631,-88.269 122.755,-146.133 13.184,-25.323 27.178,-50.224 40.804,-75.316 5.406,14.77 10.201,29.994 6.339,42.559 -12.77,41.55 -27.06,82.827 -44.128,122.773 -7.08,16.568 -20.311,32.678 -34.855,43.446 -32.545,24.098 -67.395,45.161 -101.943,66.425 -8.302,5.111 -19.09,6.184 -28.735,9.113 M 2.729,506.375 c -1.995,3.165 -1.46,2.316 -3.456,5.481 -11.345,-4.653 -22.348,-10.459 -34.042,-13.947 -64.947,-19.375 -120.198,-54.726 -161.153,-107.979 -40.133,-52.182 -79.719,-105.201 -106.198,-166.71 -11.752,-27.3 -25.459,-53.031 -19.958,-84.285 6.718,13.308 8.9,29.12 17.043,40.761 26.183,37.432 53.608,74.105 82.426,109.548 20.682,25.437 47.162,46.443 66.062,72.981 29.891,41.969 66.008,75.196 110.154,101.454 18.348,10.913 32.873,28.253 49.122,42.696 m -51.167,638.696 c -0.625,0.774 -1.251,1.548 -1.877,2.322 -4.609,-3.965 -10.761,-7.083 -13.498,-12.074 -5.19,-9.465 -8.597,-19.908 -12.657,-29.992 -7.799,-19.374 0.807,-42.581 20.158,-50.435 71.238,-28.913 155.013,24.567 156.911,100.273 0.135,5.407 -1.788,12.358 -5.361,16.103 -13.812,14.471 -55.309,20.549 -73.782,11.092 -23.502,-12.031 -46.613,-24.824 -69.894,-37.289 m -707.437,-791.74 c 1.102,-3.509 5.282,-11.111 5.631,-18.886 1.851,-41.123 25.482,-68.806 54.52,-94.299 16.99,-14.916 35.472,-13.821 52.099,-5 22.393,11.879 42.512,28.042 59.858,39.821 -4.013,10.894 -9.955,18.894 -7.944,22.913 11.256,22.497 -2.305,38.479 -14.955,51.648 -37.113,38.635 -81.552,52.346 -130.176,32.168 z m 240.587,832.954 c 57.775,13.742 77.009,62.882 54.933,103.879 -15.681,29.121 -38.13,46.848 -67.661,58.925 -19.28,7.884 -32.835,15.209 -55.891,-1.27 -30.386,-21.716 -43.703,-47.451 -49.024,-81.359 -3.102,-19.768 0.195,-36.36 14.721,-51.806 33.012,-35.103 73.888,-30.075 102.922,-28.369 M 101.967,-243.261 c -3.328,0.808 -3.166,0.768 -6.494,1.575 -13.549,-22.378 -26.993,-44.821 -41.169,-66.826 -6.5,-10.089 -12.794,-20.3 -18.502,-30.857 -16.216,-29.996 -39.122,-57.975 -50.025,-89.947 -15.435,-45.263 -26.198,-92.403 -35.237,-139.458 -5.664,-29.48 -4.549,-60.26 -6.894,-97.015 10.154,7.566 15.261,9.64 17.631,13.426 13.018,20.793 25.221,42.094 38.006,63.035 6.24,10.22 13.935,19.608 19.577,30.121 13.111,24.428 26.39,48.854 37.725,74.122 14.243,31.752 31.621,63.317 38.489,96.84 8.078,39.429 6.517,80.86 8.7,121.446 0.419,7.791 -1.139,15.689 -1.807,23.538 M 46.431,506.545 c -82.52,-63.668 -168.866,-122.2 -232.688,-206.046 -34.081,-44.775 -68.295,-89.463 -101.396,-134.957 -6.477,-8.902 -8.109,-21.33 -11.976,-32.131 31.652,16.108 58.198,36.553 86.43,54.318 46.116,29.016 84.064,66.858 120.278,106.717 23.494,25.859 44.337,54.313 69.259,78.643 37.765,36.866 53.284,84.541 70.093,133.456 m -597.623,-717.11 c 0.761,-2.422 1.378,-6.22 3.058,-9.469 40.342,-78.013 106.995,-133.33 174.77,-183.152 56.274,-41.366 124.883,-65.958 188.049,-97.935 5.41,-2.738 10.987,-5.148 16.486,-7.709 2.763,3.118 2.588,2.921 5.35,6.039 -91.317,145.83 -211.655,254.6 -387.713,292.226 m 221.148,816.535 8.529,-4.824 c 7.779,9.815 19.188,18.481 22.72,29.64 17.166,54.234 60.38,87.98 96.54,127.336 0.279,0.303 0.585,0.58 0.915,0.827 27.139,20.247 55.974,38.481 81.826,60.256 34.205,28.81 64.523,63.081 113.92,65.548 6.198,0.309 11.885,6.442 18.253,8.499 36.201,11.691 68.339,35.836 108.641,35.096 11.878,-0.219 25.98,-2.76 35.291,2.474 36.744,20.653 75.758,29.716 117.337,31.06 5.233,0.17 10.321,4.827 15.477,7.405 -0.429,1.994 -0.859,3.989 -1.288,5.983 -10.746,1.897 -22.66,1.445 -32.033,6.105 -36.111,17.956 -74.21,17.933 -112.663,14.7 -30.015,-2.524 -61.522,-1.995 -89.373,-11.549 -28.996,-9.945 -63.066,-10.661 -85.892,-36.4 -2.493,-2.81 -8.44,-2.812 -12.877,-3.605 -55.11,-9.851 -92.071,-45.317 -126.174,-86.457 -18.805,-22.685 -41.697,-41.983 -62.755,-62.798 -4.178,-4.129 -9.668,-7.514 -12.39,-12.437 -18.77,-33.952 -38.07,-67.685 -54.963,-102.573 -11.552,-23.856 -19.489,-49.462 -29.041,-74.286 m 6.437,751.191 c -3.039,-8.348 -5.998,-14.498 -7.522,-20.984 -9.41,-40.048 10.9,-75.25 19.151,-112.381 1.18,-5.305 7.223,-9.529 11.014,-14.254 3.895,4.69 9.52,8.769 11.425,14.162 30.868,87.362 61.272,174.889 91.761,262.386 12.901,37.025 23.343,75.138 39.204,110.846 23.015,51.816 49.927,101.902 76.873,156.143 -47.496,-29.317 -100.513,-45.487 -124.548,-100.725 -7.172,-16.485 -24.476,-28.259 -34.924,-43.689 -18.523,-27.355 -41.058,-53.887 -51.572,-84.333 -16.314,-47.242 -24.324,-97.399 -34.85,-146.536 -1.468,-6.855 2.774,-14.932 3.988,-20.635 m 51.62,-728.017 c 209.761,24.729 356.677,152.898 494.453,297.132 -14.321,-0.944 -27.248,-5.285 -40.341,-9.045 -16.385,-4.705 -32.758,-11.796 -49.407,-12.665 -22.566,-1.177 -43.97,-1.844 -65.055,-12.582 -25.267,-12.866 -51.591,-28.318 -78.78,-31.563 -33.207,-3.962 -53.34,-26.119 -77.377,-41.913 -28.488,-18.72 -52.319,-44.489 -78.385,-66.95 -17.373,-14.971 -35.547,-29.031 -52.606,-44.34 -24.376,-21.875 -47.689,-44.76 -52.502,-78.074 m -515.848,147.765 c 2.906,-24.404 4.003,-45.187 8.312,-65.281 2.433,-11.349 10.747,-21.315 15.388,-32.334 28.221,-67.008 76.879,-116.232 136.234,-155.755 31.913,-21.251 63.931,-42.74 97.742,-60.647 45.34,-24.014 95.903,-23.857 150.379,-28.489 -20.425,28.38 -40.169,50.567 -53.917,75.996 -29.753,55.032 -63.678,106.269 -115.954,142.114 -35.884,24.604 -73.704,46.388 -110.731,69.317 -2.519,1.56 -5.703,2.002 -8.472,3.207 -37.038,16.116 -74.058,32.276 -118.981,51.872 m 500.717,400.703 c 81.609,29.166 202.839,162.97 241.091,264.837 40.841,108.761 43.701,220.734 28.656,340.181 -29.136,-28.252 -52.701,-51.093 -76.222,-73.979 -0.451,-0.439 -0.294,-1.447 -0.575,-2.126 -16.172,-39.064 -33.758,-77.612 -48.216,-117.299 -21.087,-57.884 -39.532,-116.723 -59.845,-174.896 -17.052,-48.835 -35.25,-97.269 -52.777,-145.94 -10.398,-28.872 -20.48,-57.859 -32.112,-90.778 M -81.714,-0.971 c -1.558,0.163 -3.133,0.139 -4.725,-0.131 -7.467,-1.265 -12.903,-7.553 -17.663,-13.444 -54.46,-67.401 -109.847,-141.143 -117.324,-227.474 -10.797,-124.665 79.909,-233.645 111.022,-354.846 -9.842,178.666 81.687,359.509 231.489,457.376 5.142,-116.89 9.317,-238.992 -39.817,-345.18 -39.836,-86.091 -114.904,-166.107 -101.94,-260.078 7.238,-52.466 41.414,-96.672 74.372,-138.13 84.647,-106.478 169.293,-212.957 253.94,-319.435 -27.529,8.379 -48.694,30.024 -68.131,51.244 -122.879,134.157 -228.218,284.361 -312.496,445.59 -32.712,62.583 -63.872,128.891 -118.317,173.861 -37.641,31.089 -83.748,49.639 -126.885,72.497 -117.849,62.445 -216.627,160.325 -280.146,277.598 122.325,27.435 257.873,-15.027 342.683,-107.35 -37.525,97.506 -65.869,198.543 -84.536,301.339 -8.009,44.102 -14.658,89.726 -37.305,128.409 -32.277,55.131 -91.717,87.61 -148.693,116.508 -7.66,3.885 -15.724,7.849 -24.311,7.675 -10.587,-0.215 -19.936,-6.645 -28.308,-13.128 -26.411,-20.45 -53.928,-45.355 -87.322,-44.603 -35.433,0.799 -63.059,30.482 -82.498,60.116 -19.647,29.953 -35.987,67.605 -22.248,100.687 15.524,37.38 64.848,50.988 103.511,39.013 38.663,-11.975 68.36,-42.653 94.247,-73.767 25.886,-31.114 50.602,-64.576 85.058,-85.812 43.665,-26.912 105.126,-37.293 123.574,-85.152 l -4.213,185.6 c -1.09,48.046 -23.901,58.043 -65.996,66.495 -46.068,9.249 -90.711,24.751 -132.611,46.024 -83.689,42.49 -156.204,107.467 -205.729,187.355 -26.921,43.427 -47.666,92.61 -47.066,143.7 0.218,18.59 5.983,40.587 23.589,46.557 7.986,2.708 16.72,1.366 25.001,-0.225 49.4,-9.492 97.263,-26.94 141.182,-51.466 -57.012,81.832 -99.93,173.456 -126.303,269.64 75.087,-28.488 152.631,-59.251 212.921,-113.969 59.865,-54.334 80.525,-126.492 93.265,-204.04 12.024,-73.194 23.146,-151.67 72.661,-206.898 12.541,78.066 18.976,157.112 19.227,236.179 0.265,83.06 -6.719,167.929 -39.588,244.209 -32.869,76.279 -95.212,143.406 -175.441,164.903 -19.74,5.289 -41.325,8.328 -56.523,21.989 -22.899,20.582 -22.122,56.641 -14.879,86.566 8.529,35.235 26.245,71.733 59.322,86.571 38.55,17.292 85.348,-1.663 114.091,-32.629 21.963,-23.662 36.697,-54.746 37.472,-87.021 0.775,-32.275 -13.461,-65.332 -39.614,-84.261 40.364,-72.477 81.956,-144.265 123.178,-216.259 -10.139,16.563 -1.105,81.243 4.317,100.969 9.322,33.919 29.651,64.08 26.878,100.675 -2.529,33.388 -12.706,65.651 -19.44,98.451 -38.792,188.932 48.794,397.453 210.863,502.018 22.604,14.584 46.669,27.459 65.992,46.173 19.323,18.715 33.665,44.962 30.375,71.661 15.404,-4.533 21.226,-22.909 24.372,-38.654 19.427,-97.224 27.085,-197.855 10.344,-295.577 -16.742,-97.722 -59.149,-192.657 -129.612,-262.405 -40.889,-40.474 -90.311,-71.849 -129.217,-114.232 -38.904,-42.384 -67.038,-101.448 -51.757,-156.914 37.9,36.847 88.022,60.907 140.478,67.433 14.59,1.815 29.856,2.463 42.779,9.475 21.491,11.66 30.48,37.078 41.879,58.708 18.326,34.778 48.592,64.867 86.515,75.221 37.922,10.353 83.212,-2.853 103.735,-36.381 18.963,-30.98 13.121,-73.413 -9.393,-101.917 -22.513,-28.504 -58.98,-43.79 -95.233,-46.05 -57.098,-3.559 -112.99,22.128 -170.1,18.753 -123.81,-7.316 -163.607,-125.774 -163.071,-230.835 0.312,-61.233 4.818,-124.925 -19.169,-181.266 56.178,124.045 140.725,238.504 256.328,310.47 115.602,71.965 264.646,96.673 390.94,45.753 5.429,-2.189 11.199,-4.855 13.982,-10.004 5.382,-9.96 -3.372,-21.439 -11.491,-29.329 C 155.798,812.762 -3.187,675.37 -197.134,618.44 c -55.569,-16.311 -119.791,-30.393 -148.59,-80.64 -29.021,-50.633 -8.466,-111.049 -6.375,-165.298 1.105,-28.651 -2.209,-57.215 -1.36,-85.958 0.481,-16.285 1.109,-32.71 3.961,-48.787 1.4,-7.894 15.416,-38.177 13.495,-43.658 67.305,192.033 240.132,343.241 439.405,384.438 C 43.25,399.028 -81.121,241.784 -241.95,141.905 c -31.265,-19.416 -66.33,-39.624 -78.45,-74.375 -7.999,-22.931 -4.285,-48.128 0.252,-71.986 15.433,-81.168 39.389,-160.712 71.346,-236.902 38.249,101.504 88.914,198.324 150.507,287.613 16.325,23.665 33.973,47.342 58.139,62.914 24.167,15.572 56.39,21.642 81.863,8.312 38.4,-20.094 43.638,-79.775 14.248,-111.628 -29.39,-31.854 -81.82,-35.102 -119.82,-14.26 -5.665,3.106 -11.618,6.781 -17.849,7.436"
         style="fill:#000000;fill-opacity:1;fill-rule:nonzero;stroke:none"
         id="path2872" />
    </g>
    <g
       id="g3991">
      <path
         style="fill:#006400;fill-opacity:1;stroke-width:0"
         d="m 524.78921,149.42409 c -3.34488,1.20566 -4.87474,5.01483 -6.91527,7.68779 -6.51824,10.2803 -12.82809,20.72189 -17.67017,31.91924 -4.03526,8.28171 -7.30241,17.15131 -7.3036,26.48688 -0.15419,6.10287 -0.9172,12.29852 -0.23803,18.36367 0.82578,2.32535 3.91781,1.86172 4.63953,-0.29209 6.60684,-10.10137 12.86107,-20.43123 18.9252,-30.86277 4.52071,-9.90081 6.84228,-20.67796 8.78746,-31.34256 1.11686,-6.81185 1.66171,-13.73274 1.65998,-20.62785 -0.32848,-0.82524 -0.93082,-1.44288 -1.8851,-1.33231 z"
         id="path3862"
         transform="matrix(0.26458333,0,0,0.26458333,10.60714,57.45536)" />
      <path
         style="fill:#006400;fill-opacity:1;stroke-width:0"
         d="m 528.68324,153.15245 c -1.89484,2.27103 -1.00202,5.74243 -1.77084,8.47413 -1.08954,10.44866 -2.25008,21.00549 -5.64578,30.99894 -4.2476,15.99958 -15.03134,29.36429 -23.63449,43.35925 -1.43299,2.9096 -4.42081,5.64134 -3.78766,9.13955 2.20441,1.87234 4.64487,-1.19567 6.50546,-2.4135 8.00552,-7.31563 13.26503,-16.99187 20.28628,-25.1717 11.02237,-14.59827 13.61891,-33.79326 12.241,-51.59286 -0.60306,-4.10197 -0.61476,-8.44488 -2.10396,-12.3343 -0.48823,-0.6702 -1.36195,-0.74451 -2.09001,-0.45951 z"
         id="path3864"
         transform="matrix(0.26458333,0,0,0.26458333,10.60714,57.45536)" />
      <path
         style="fill:#006400;fill-opacity:1;stroke-width:0"
         d="m 547.57182,180.44032 c -2.92533,0.25922 -2.20953,3.80636 -0.86495,5.41206 11.15299,17.47235 25.81025,33.09457 43.7198,43.72814 9.8861,5.48548 20.56654,9.74214 31.61829,12.11451 2.6563,0.0222 2.35928,-3.29821 1.04108,-4.75114 -8.37358,-15.3632 -22.14302,-26.78983 -36.14342,-36.83285 -11.96186,-7.98185 -25.45141,-13.28146 -38.32013,-19.53121 -0.34019,-0.10025 -0.6951,-0.15989 -1.05067,-0.13951 z"
         id="path3866"
         transform="matrix(0.26458333,0,0,0.26458333,10.60714,57.45536)" />
      <path
         style="fill:#006400;fill-opacity:1;stroke-width:0"
         d="m 556.9093,203.83328 c -3.07761,0.92348 -1.01566,4.64511 0.008,6.44704 4.04751,8.50097 11.7874,14.34579 18.78399,20.3035 9.08395,6.90433 19.34753,13.72024 31.06194,14.52076 2.8622,-0.0547 5.88287,0.1409 8.64214,-0.55225 1.98796,-1.67405 -0.50713,-3.55555 -2.21905,-3.85828 -17.8103,-6.25412 -34.85668,-15.89285 -47.81076,-29.88417 -2.6138,-2.27205 -4.59153,-5.63827 -7.87582,-6.97485 -0.19546,-0.0305 -0.39466,-0.0301 -0.59029,-0.002 z"
         id="path3868"
         transform="matrix(0.26458333,0,0,0.26458333,10.60714,57.45536)" />
      <path
         style="fill:#006400;fill-opacity:1;stroke-width:0"
         d="m 517.16419,279.86194 c -7.95033,0.54881 -15.35306,7.23659 -15.55607,15.38866 -0.17257,3.61255 3.08465,5.57597 6.06862,6.57173 2.75493,1.17609 6.03299,2.3566 8.71056,0.30604 3.15513,-1.98612 8.12202,-3.76051 7.72703,-8.32517 -0.20108,-4.35748 -0.64576,-9.23714 -3.46678,-12.74497 -0.92174,-0.88438 -2.22585,-1.25941 -3.48336,-1.19629 z"
         id="path3870"
         transform="matrix(0.26458333,0,0,0.26458333,10.60714,57.45536)" />
      <path
         style="fill:#006400;fill-opacity:1;stroke-width:0"
         d="m 572.31279,306.94229 c -9.6409,5.68087 -18.97472,11.9653 -27.72209,18.94613 -10.89876,9.55219 -19.71003,21.13907 -29.51756,31.7416 -5.51354,6.69168 -8.49193,15.03422 -11.08553,23.18203 0.1232,2.64029 3.17258,1.69467 4.34103,0.35299 12.23799,-9.32876 24.72504,-18.51327 35.53892,-29.51388 9.70448,-10.7453 18.09926,-22.59862 26.65339,-34.25814 1.92341,-2.92093 4.29189,-6.17297 3.89754,-9.82643 -0.63564,-0.6999 -1.18998,-0.84183 -2.1057,-0.6243 z"
         id="path3872"
         transform="matrix(0.26458333,0,0,0.26458333,10.60714,57.45536)" />
      <path
         style="fill:#006400;fill-opacity:1;stroke-width:0"
         d="m 577.20779,308.6626 c -2.41735,1.44865 -2.07554,5.05211 -3.83997,7.1411 -6.18235,9.37996 -12.9722,18.39223 -20.5034,26.69931 -8.65522,8.47554 -14.93958,19.35272 -25.17867,26.16134 -5.29739,3.7417 -11.08465,7.26845 -15.02681,12.51042 -1.07018,2.19765 1.89686,3.81149 3.58916,2.39255 9.20804,-3.47792 18.80058,-6.55188 26.5603,-12.86244 9.65675,-7.42315 16.35673,-17.85116 23.23958,-27.72318 5.67417,-9.17021 11.34971,-18.80534 13.31086,-29.5418 0.11223,-1.68609 0.55778,-5.13301 -2.15105,-4.7773 z"
         id="path3874"
         transform="matrix(0.26458333,0,0,0.26458333,10.60714,57.45536)" />
      <path
         style="fill:#006400;fill-opacity:1;stroke-width:0"
         d="m 645.63236,325.66346 c -6.54636,0.53411 -11.52251,5.5996 -16.7698,8.97127 -1.94857,2.29708 1.46994,5.01194 -0.0148,7.51341 -1.20464,4.99246 3.10605,9.15881 6.53074,12.12677 5.1536,4.2429 11.85309,7.1004 18.62613,5.81838 3.59897,-0.23396 7.25696,-1.7665 8.78936,-5.26296 1.69141,-1.93413 1.86408,-4.48648 0.92506,-6.80015 -0.99225,-8.966 -6.56654,-17.54211 -14.61204,-21.69708 -1.09873,-0.44963 -2.28578,-0.69294 -3.47463,-0.66964 z"
         id="path3876"
         transform="matrix(0.26458333,0,0,0.26458333,10.60714,57.45536)" />
      <path
         style="fill:#006400;fill-opacity:1;stroke-width:0"
         d="m 590.50382,366.27352 c -2.65329,-0.13776 -2.27746,3.01064 -0.85187,4.28204 4.9036,6.62743 9.3322,13.55288 13.48088,20.65772 5.97768,9.56882 13.77973,18.15103 23.65159,23.79042 9.79374,6.49741 20.06666,12.28214 31.03127,16.56805 3.95604,1.42666 7.6806,3.87956 11.75979,4.7266 2.47983,-0.88249 0.79001,-4.21436 0.88833,-6.16923 -0.37264,-5.44855 -1.71457,-10.78933 -4.512,-15.51873 -5.0012,-10.81607 -12.65742,-20.35612 -22.43665,-27.21535 -9.19283,-6.40015 -18.35139,-13.17634 -28.75687,-17.49077 -7.72614,-2.79245 -16.13903,-3.07239 -24.25447,-3.63075 z"
         id="path3878"
         transform="matrix(0.26458333,0,0,0.26458333,10.60714,57.45536)" />
      <path
         style="fill:#006400;fill-opacity:1;stroke-width:0"
         d="m 593.22685,379.86514 c -2.59629,1.44697 0.0508,4.51299 0.5021,6.51653 3.9949,9.05388 7.23829,18.63823 13.06927,26.72489 6.08999,7.31861 14.85096,11.6418 22.89887,16.42376 7.61917,3.97446 15.64503,6.92212 23.11821,11.16925 3.75326,1.60586 8.09049,2.97914 12.15468,2.04642 2.51389,-2.07496 0.5999,-6.39588 -2.22538,-7.26338 -14.87029,-8.3502 -30.70722,-15.00903 -44.63117,-24.93083 -8.56428,-7.07536 -14.82733,-16.27903 -20.04983,-26.02684 -1.32978,-1.56984 -2.30204,-4.95192 -4.83675,-4.6598 z"
         id="path3880"
         transform="matrix(0.26458333,0,0,0.26458333,10.60714,57.45536)" />
      <path
         style="fill:#006400;fill-opacity:1;stroke-width:0"
         d="m 617.86842,427.42272 c -2.90511,0.2274 -2.56795,3.93459 -1.11084,5.62219 7.17732,11.12647 15.32829,21.69737 24.98685,30.79738 3.48888,3.39729 6.69431,7.05871 9.40287,11.09616 1.04311,1.55322 4.18612,3.00253 4.63953,0.22757 -1.11768,-6.30679 -5.29388,-11.53397 -7.99853,-17.22168 -4.25821,-7.29755 -7.88742,-15.04567 -12.98616,-21.8067 -4.28999,-4.52742 -10.49735,-6.509 -16.18038,-8.64953 -0.24777,-0.0487 -0.50069,-0.0745 -0.75334,-0.0654 z"
         id="path3882"
         transform="matrix(0.26458333,0,0,0.26458333,10.60714,57.45536)" />
      <path
         style="fill:#006400;fill-opacity:1;stroke-width:0"
         d="m 607.99645,421.63137 c -3.88362,4.98039 -1.44206,11.62769 0.38719,16.94329 2.97579,7.47137 4.84559,15.64651 9.68532,22.20629 5.65289,6.00866 12.98599,10.13031 19.89452,14.52341 3.52293,1.84164 7.13222,4.64235 11.2743,4.44191 2.88557,-0.84421 1.53004,-4.29184 0.0793,-5.83931 -9.35378,-12.19166 -22.41159,-21.25876 -29.86084,-34.91212 -3.43705,-5.55437 -5.99066,-11.72116 -9.69895,-17.04845 -0.46346,-0.63826 -1.10917,-0.37101 -1.76089,-0.31502 z"
         id="path3884"
         transform="matrix(0.26458333,0,0,0.26458333,10.60714,57.45536)" />
      <path
         style="fill:#006400;fill-opacity:1;stroke-width:0"
         d="m 566.57637,404.67062 c -21.85674,2.65636 -42.59312,11.91163 -60.11898,25.09701 -13.10901,9.8722 -25.26134,21.05101 -36.32239,33.16263 -1.56137,1.70553 0.82178,3.73585 2.59573,2.72215 7.04598,-1.81117 13.99835,-4.17348 21.32998,-4.53315 8.35272,-0.98097 14.58889,-7.21614 22.89684,-8.21269 8.40269,-1.81422 14.77075,-8.07844 21.40789,-13.09972 7.73881,-6.95439 15.86561,-13.48105 23.44402,-20.61004 3.44142,-3.51241 6.89464,-7.85795 7.30858,-12.91835 -0.15624,-1.22936 -1.45172,-1.72895 -2.54167,-1.60784 z"
         id="path3886"
         transform="matrix(0.26458333,0,0,0.26458333,10.60714,57.45536)" />
      <path
         style="fill:#006400;fill-opacity:1;stroke-width:0"
         d="m 577.61062,399.21497 c -3.89749,1.74571 -5.6611,6.20306 -7.22131,9.93301 -3.86911,8.02427 -10.53806,14.03473 -16.77154,20.23309 -7.35193,6.19671 -15.46513,11.44287 -22.65602,17.85127 -4.39087,3.94771 -9.74176,7.15735 -15.72713,7.65612 -7.08941,2.36934 -13.5915,6.56501 -20.95942,8.10196 -4.86476,0.71326 -10.11622,-0.30888 -14.50975,2.49807 -6.15803,3.04881 -13.01955,3.94839 -19.74965,4.73694 -2.06745,0.18047 -5.5851,2.09614 -3.67296,4.50114 3.03104,1.77624 6.84829,1.61601 10.04897,3.11976 9.71628,3.82567 20.24728,1.62653 30.30694,1.0152 6.62764,-0.81874 13.0129,-3.09495 19.3485,-5.13506 3.30999,-1.64744 6.03244,-4.46143 9.87721,-4.90198 9.75391,-2.46523 17.14919,-9.73705 23.50216,-17.13685 6.0895,-6.91024 14.07009,-12.38491 18.01981,-20.96181 4.75376,-8.9193 9.82584,-17.85265 12.63175,-27.61421 0.60708,-1.75722 -0.24051,-4.21662 -2.46756,-3.89665 z"
         id="path3888"
         transform="matrix(0.26458333,0,0,0.26458333,10.60714,57.45536)" />
      <path
         style="fill:#006400;fill-opacity:1;stroke-width:0"
         d="m 516.71253,486.87079 c -12.28583,0.0844 -24.06217,10.78351 -23.65977,23.3764 0.56832,5.31492 6.76664,6.7985 11.22014,6.91165 6.14577,0.64418 11.08753,-3.91871 16.43,-6.14886 2.84117,-1.68131 6.64081,-2.39012 7.92628,-5.87055 2.19902,-4.13594 4.1274,-9.66339 0.79868,-13.76862 -2.76496,-3.85501 -8.34604,-4.42446 -12.71533,-4.50002 z"
         id="path3890"
         transform="matrix(0.26458333,0,0,0.26458333,10.60714,57.45536)" />
      <path
         style="fill:#006400;fill-opacity:1;stroke-width:0"
         d="m 619.54688,514.2659 c -5.44506,-0.24475 -10.96062,1.78576 -14.40861,6.12704 -4.52599,5.15832 -4.02276,13.33275 -0.0776,18.68107 4.01407,6.16946 10.89705,10.05319 17.90156,11.8059 5.73324,0.42329 10.40151,-4.2522 13.44514,-8.59721 3.4009,-5.59346 6.094,-13.24286 2.55736,-19.38907 -3.49855,-5.78701 -10.32636,-9.06722 -17.02788,-8.63034 -0.7967,-0.0101 -1.59329,-0.008 -2.38996,0.003 z"
         id="path3892"
         transform="matrix(0.26458333,0,0,0.26458333,10.60714,57.45536)" />
      <path
         style="fill:#006400;fill-opacity:1;stroke-width:0"
         d="m 573.55615,519.16876 c -3.39855,0.8889 -3.562,5.2681 -4.98014,7.9133 -8.29351,21.86916 -15.39904,44.24409 -23.37758,66.16746 -4.54774,11.1873 -10.60086,21.79475 -15.67727,32.79672 -0.53847,2.65539 2.81656,2.43479 4.14776,1.15007 8.3513,-4.52499 17.7914,-9.08181 22.07287,-18.13349 3.82611,-5.7934 8.80276,-10.74801 12.4168,-16.71132 5.85052,-7.84026 7.39001,-17.75021 9.7504,-26.99965 0.81577,-4.89524 2.62871,-9.90178 1.91109,-14.88785 -0.13354,-2.88358 1.67597,-5.60697 1.42561,-8.58413 0.18045,-6.91249 -2.47578,-13.49648 -4.64564,-19.94187 -0.51437,-1.27598 -1.51283,-2.75911 -3.0439,-2.76924 z"
         id="path3894"
         transform="matrix(0.26458333,0,0,0.26458333,10.60714,57.45536)" />
      <path
         style="fill:#006400;fill-opacity:1;stroke-width:0"
         d="m 569.94724,512.99638 c -5.61386,1.92298 -10.53547,5.61692 -15.13842,9.30696 -16.89823,14.4438 -31.18385,33.06364 -36.45841,54.99588 -2.89454,10.3755 -3.58849,21.16261 -3.45264,31.88741 0.0721,8.14006 -0.0716,16.42562 1.46257,24.41366 1.98837,2.70969 4.32347,-1.66968 6.01732,-2.84708 3.84024,-4.01137 8.35534,-7.52048 11.78219,-11.84086 10.91593,-24.44534 18.3372,-50.21475 27.63728,-75.27626 3.374,-9.56213 7.02989,-19.03971 10.09625,-28.70229 0.18129,-1.09949 -0.86402,-2.09628 -1.94614,-1.93742 z"
         id="path3896"
         transform="matrix(0.26458333,0,0,0.26458333,10.60714,57.45536)" />
    </g>
    <g
       id="g2874"
       transform="matrix(0.11868785,0,0,-0.11868786,143.13857,216.14193)"
       clip-path="url(#clipPath8222)">
      <path
         d="m 29.702854,708.53738 c -13.94195,-3.5607 -21.51422,-13.3395 -24.95676,-26.1374 -0.93632,-3.4816 1.09976,-10.0987 3.8371,-11.6637 3.73253,-2.1341 16.82649,-8.0741 20.8534,-6.3148 5.48038,2.3942 8.76475,5.4883 14.22448,8.0081 7.97299,3.6803 4.71498,18.3327 2.10902,28.1036 -2.50754,9.4041 -7.88247,11.4854 -16.06724,8.0042 m 97.073926,172.07124 c -1.13624,-0.97103 -2.27247,-1.94206 -3.40871,-2.91353 5.71501,-9.26784 9.8175,-20.233 17.44909,-27.48276 22.45494,-21.33145 45.62695,-41.96297 75.87868,-52.54894 12.83912,-4.49266 25.21776,-4.8446 40.30387,-2.6978 -53.03621,16.40249 -96.16968,44.01487 -130.22293,85.64303 M 260.69225,381.70388 c -1.43633,-1.7254 -1.34362,-1.6138 -2.77907,-3.3397 3.80634,-5.9259 7.25152,-12.126 11.49022,-17.7255 10.90936,-14.4125 21.03574,-29.6735 33.62661,-42.4805 11.30656,-11.4999 25.00027,-20.5836 32.35768,-35.7018 0.95873,-1.9702 3.40871,-3.215 7.40047,-6.8012 -2.31465,7.3693 -3.00711,12.09 -5.16315,16.0049 -9.41459,17.0954 -19.39158,33.8805 -28.89229,50.9298 -6.60432,11.8518 -12.52716,24.1351 -26.16155,29.7776 -7.32622,3.0326 -14.58873,6.2177 -21.87892,9.3364 M 63.448104,995.20412 c -1.97282,-16.93149 -4.40435,-34.74615 -6.01775,-52.63417 -1.23026,-13.64626 -6.7023,-26.05654 -9.81398,-38.93256 -3.91312,-16.19027 -11.40103,-29.90551 -19.44256,-43.47707 -12.24024,-20.65656 -26.20373,-40.28804 -39.2164,-60.49556 -1.38097,-2.14417 -1.30232,-5.22862 -1.90075,-7.87676 8.46113,5.28354 15.57601,11.19847 21.23258,18.27864 9.6769,12.11326 17.56728,25.72744 27.79341,37.31256 15.4587,17.51456 24.53452,38.66718 28.80178,60.22666 5.74445,29.02367 5.71325,59.16864 -1.43633,87.59826 M 364.29668,352.17888 c 3.20527,11.5504 -6.14033,11.9142 -11.49417,14.7715 -17.38231,9.2775 -35.08667,17.9496 -52.6333,26.9199 -2.76985,1.4166 -5.43733,3.0199 -8.08195,4.6588 -11.9463,7.4035 -25.2103,13.3839 -35.40874,22.7098 -16.2799,14.8866 -30.6318,31.8295 -40.01651,52.4465 -3.03392,6.6659 -8.51518,12.217 -12.87734,18.2782 5.53618,-14.3567 11.4331,-28.2987 17.71755,-42.0644 4.25319,-9.3158 8.34777,-18.8217 13.75039,-27.47 11.56096,-18.508 31.95169,-26.2126 48.93636,-38.013 5.61,-3.8977 12.36766,-6.1654 18.65474,-9.0609 9.72304,-4.4781 20.19082,-7.7845 29.0575,-13.5597 9.95766,-6.4861 20.2497,-9.2551 32.39547,-9.6167 m -34.61478,-81.997 c 0.8256,0.9798 1.65075,1.9596 2.47635,2.9394 -6.58762,8.2951 -12.21739,17.6429 -19.9474,24.6835 -20.90921,19.044 -40.70019,38.7836 -53.93606,64.2074 -5.79279,11.1265 -11.94147,22.0679 -17.92845,33.0928 -2.37529,-6.4896 -4.48168,-13.1792 -2.78523,-18.6996 5.61088,-18.2566 11.88961,-36.3925 19.38895,-53.9444 3.11037,-7.2796 8.92468,-14.3576 15.31458,-19.0888 14.30005,-10.5886 29.61156,-19.8428 44.79125,-29.1863 3.64817,-2.2452 8.3882,-2.7166 12.62601,-4.004 M 28.503794,486.04648 c 0.877,-1.3906 0.64149,-1.0176 1.51849,-2.4087 4.98477,2.0449 9.81882,4.5959 14.95737,6.1285 28.53683,8.513 52.81257,24.0455 70.807356,47.4433 17.63407,22.9282 35.02736,46.2237 46.66125,73.2495 5.16359,11.9946 11.18617,23.3007 8.76914,37.0331 -2.95175,-5.8477 -3.91004,-12.7947 -7.48835,-17.91 -11.50428,-16.4464 -23.55426,-32.5598 -36.21631,-48.1327 -9.08725,-11.1765 -20.72203,-20.4061 -29.026296,-32.0668 -13.1335,-18.4404 -29.00302,-33.0392 -48.39944,-44.5764 -8.06174,-4.7954 -14.44373,-12.4143 -21.58321,-18.7598 m 22.48174,-280.6301 c 0.27461,-0.3405 0.54966,-0.6801 0.82472,-1.0202 2.0251,1.7417 4.72816,3.1117 5.93074,5.3051 2.28038,4.1587 3.77735,8.7471 5.56123,13.1778 3.42673,8.5126 -0.35458,18.7088 -8.85701,22.1597 -31.30054,12.7042 -68.10958,-10.7942 -68.94352,-44.0575 -0.0593,-2.3757 0.78517,-5.4298 2.35596,-7.0753 6.06783,-6.3583 24.30121,-9.0288 32.41787,-4.874 10.32631,5.2866 20.48081,10.9076 30.71001,16.3844 m 310.833486,347.8745 c -0.4842,1.5414 -2.32037,4.882 -2.47459,8.2982 -0.81285,18.0686 -11.1954,30.2319 -23.95454,41.433 -7.46507,6.5538 -15.58524,6.0723 -22.89125,2.1969 -9.83903,-5.2194 -18.67891,-12.3215 -26.30039,-17.4969 1.76279,-4.7866 4.37402,-8.3012 3.49043,-10.0676 -4.94566,-9.8842 1.01277,-16.9064 6.57093,-22.6926 16.3067,-16.9754 35.83229,-22.9998 57.19713,-14.134 z M 256.10996,187.30778 c -25.38516,-6.0384 -33.83663,-27.6291 -24.13688,-45.6423 6.89035,-12.7952 16.75355,-20.5845 29.72931,-25.8905 8.47124,-3.4645 14.42703,-6.6825 24.55737,0.5576 13.35099,9.542 19.20221,20.8495 21.54015,35.748 1.36252,8.6856 -0.0857,15.9754 -6.46767,22.7625 -14.50524,15.4231 -32.46533,13.2143 -45.22228,12.4647 M -15.099376,815.42092 c 1.46226,-0.35458 1.39108,-0.33701 2.85333,-0.69202 5.95272,9.83288 11.86018005,19.69344 18.08839,29.36199 2.85597,4.43334 5.62186,8.91984 8.12984,13.55838 7.12498,13.17963 17.18942,25.4726 21.98041,39.52089 6.78139,19.88764 11.51043,40.59956 15.48243,61.27502 2.4882,12.95247 1.9983,26.47702 3.02864,42.62642 -4.46146,-3.32435 -6.70537,-4.23562 -7.7467,-5.89955 -5.71985,-9.13558 -11.08116,-18.49481 -16.69907,-27.69586 -2.74129,-4.49046 -6.12276,-8.61536 -8.60174,-13.23456 -5.76071,-10.73317 -11.59523,-21.46546 -16.5756,-32.56814 -6.25808,-13.95075 -13.89362,-27.82021 -16.91129,-42.5491 -3.5493,-17.3243 -2.86387,-35.52825 -3.8226,-53.36135 -0.1841,-3.42321 0.50045,-6.89299 0.79396,-10.34212 M 9.302014,485.97138 c 36.25806,27.9748 74.1963,53.6926 102.238396,90.5328 14.9745,19.6728 30.00744,39.3083 44.55135,59.297 2.8463,3.9113 3.56337,9.372 5.26201,14.1181 -13.90725,-7.0775 -25.57059,-16.0611 -37.97603,-23.8662 -20.262,-12.749 -36.935576,-29.376 -52.847276,-46.8897 -10.32279,-11.3615 -19.48078,-23.8641 -30.43144,-34.5537 -16.59318,-16.1982 -23.41147,-37.1461 -30.79701,-58.6383 M 271.88545,801.0554 c -0.33393,1.06418 -0.6059,2.73294 -1.34362,4.16049 -17.72546,34.27689 -47.01144,58.5825 -76.79084,80.47327 -24.72521,18.17539 -54.87062,28.98017 -82.62492,43.03066 -2.3766,1.20302 -4.82702,2.26149 -7.24361,3.38718 -1.21357,-1.37043 -1.13668,-1.28343 -2.35024,-2.65386 C 141.65506,865.3784 194.52913,817.58706 271.88545,801.0554 M 174.71794,442.28598 c -1.24959,0.707 -2.49919,1.4131 -3.74791,2.12 -3.41793,-4.3129 -8.43126,-8.1201 -9.98271,-13.0232 -7.54239,-23.8297 -26.52974,-38.6566 -42.41772,-55.9488 -0.12258,-0.1336 -0.25703,-0.2549 -0.40203,-0.3634 -11.92476,-8.8961 -24.594276,-16.9078 -35.952676,-26.4753 -15.02899,-12.6589 -28.35054,-27.7165 -50.05415,-28.8004 -2.72327,-0.1358 -5.22158,-2.8305 -8.01999,-3.7343 -15.90555,-5.1368 -30.02678,-15.7461 -47.7351,-15.4205 -5.21851,0.096 -11.4142,1.2123 -15.50571,-1.087 -16.14501,-9.0745 -33.28653,-13.0566 -51.5555,-13.6476 -2.29927,-0.074 -4.53484,-2.1204 -6.79984,-3.2531 0.18805,-0.8762 0.37699,-1.7527 0.56548,-2.6293 4.72158,-0.8331 9.95635,-0.6345 14.07465,-2.682 15.86644,-7.8895 32.60637,-7.8794 49.5014,-6.4589 13.18886,1.109 27.03196,0.8766 39.26913,5.074 12.73981,4.3701 27.70992,4.6847 37.73964,15.9934 1.09494,1.2351 3.70793,1.236 5.65746,1.5844 24.21421,4.3279 40.45413,19.9114 55.438296,37.9875 8.26253,9.9673 18.32081,18.446 27.57327,27.5922 1.83573,1.8142 4.24792,3.301 5.44392,5.4645 8.24715,14.9174 16.72718,29.7394 24.14963,45.0681 5.07571,10.4823 8.56263,21.733 12.76046,32.6397 m -2.82873,-330.0576 c 1.33528,3.6679 2.6354,6.3701 3.30546,9.2195 4.13368,17.5963 -4.78968,33.0637 -8.415,49.3784 -0.51803,2.3309 -3.1732,4.1868 -4.83933,6.2629 -1.71138,-2.0607 -4.1829,-3.8534 -5.01991,-6.2225 C 143.35765,132.48108 129.99875,94.023583 116.6025,55.579583 110.93406,39.311483 106.34606,22.564983 99.377064,6.8756834 89.265174,-15.891217 77.440154,-37.898017 65.600184,-61.730017 c 20.86878,12.8809 44.163806,19.9861 54.723866,44.2565 3.15167,7.2432 10.7547,12.4160004 15.34534,19.1961004 8.13863,12.0191996 18.04005,23.6763996 22.65969,37.0541996 7.16848,20.7572 10.68747,42.7952 15.31238,64.384997 0.64501,3.0119 -1.21928,6.5608 -1.75225,9.0666 m -22.68078,319.8759 c -92.164726,-10.8654 -156.716646,-67.1807 -217.252626,-130.5538 6.29192,0.4148 11.97222,2.3221 17.72502,3.9742 7.19968,2.0673 14.3932,5.1829 21.70843,5.5647 9.91549,0.5172 19.31953,0.8103 28.58385005,5.5283 11.10180995,5.6531 22.66803995,12.4424 34.61433995,13.8677 14.59004,1.7413 23.43651,11.4762 33.99745,18.4157 12.51749,8.2257 22.9879,19.5476 34.441216,29.417 7.63334,6.5775 15.61863,12.7556 23.11401,19.4821 10.70988,9.611 20.95358,19.6662 23.06831,34.3041 m 226.65316,-64.925 c -1.27683,10.7227 -1.75883,19.8539 -3.65212,28.6828 -1.06901,4.9869 -4.72201,9.3658 -6.76118,14.2073 -12.39973,29.442 -33.77907,51.07 -59.85846,68.4356 -14.02192,9.3368 -28.08998,18.7786 -42.94585,26.6471 -19.92148,10.5512 -42.1374,10.4822 -66.07349,12.5174 8.97389,-12.4696 17.64945,-22.2181 23.69004,-33.3911 13.07287,-24.1799 27.97882,-46.6928 50.9474,-62.442 15.76714,-10.8105 32.38448,-20.3819 48.6534,-30.4565 1.10636,-0.6854 2.50578,-0.8796 3.72242,-1.409 16.27419,-7.0811 32.53959,-14.1819 52.27784,-22.7916 m -220.0049,-176.0607 c -35.85734,-12.815 -89.123346,-71.6058 -105.930496,-116.363997 -17.94471,-47.7879 -19.20134,-96.9865 -12.59087,-149.4691 12.80177,12.4138 23.15531,22.4496 33.4904,32.5053 0.19816,0.1929 0.12918,0.6358 0.25265,0.9341 7.10565,17.1635 14.83258,34.1011004 21.18513,51.5388 9.265196,25.4326 17.369556,51.2857 26.294676,76.8458 7.4923,21.457097 15.48814,42.737997 23.18958,64.122597 4.56824,12.6862 8.99806,25.4225 14.10893,39.8865 m -90.250356,517.8455 c 0.68455,-0.072 1.37702,-0.061 2.07607,0.058 3.28085,0.5558 5.66932,3.3187 7.76076,5.9066 23.92863,29.6151 48.264546,62.01582 51.550226,99.94791 4.74399,54.77527 -35.110826,102.65888 -48.781246,155.91214 4.32437,-78.50222 -35.89162,-157.96097 -101.71158,-200.96175 -2.25929,51.3591 -4.0937,105.00825 17.49478,151.66466 17.50269,37.82664 50.48649,72.98449 44.79037,114.27306 -3.18023,23.0525 -18.19603,42.4757 -32.67755,60.6919 -37.19217,46.7843 -74.38391,93.5686 -111.576094,140.3533 12.096124,-3.682 21.395604,-13.192 29.935384,-22.5156 53.99055,-58.9459 100.27481,-124.9429 137.30441,-195.7837 14.37299,-27.49722 28.06363,-56.63205 51.986536,-76.39052 16.53781,-13.65987 36.79673,-21.81037 55.75026,-31.85371 51.78046,-27.43707 95.18151,-70.44356 123.09091,-121.97094 -53.74756,-12.05482 -113.30461,6.60212 -150.56841,47.16742 16.48817,-42.84216 28.94151,-87.23577 37.14341,-132.40227 3.51855,-19.3779 6.44043,-39.4242 16.39106,-56.4203 14.18186,-24.2234 40.29903,-38.4941 65.33269,-51.1913 3.36565,-1.7074 6.90837,-3.4491 10.68176,-3.3722 4.65172,0.094 8.75948,2.9192 12.43841,5.7677 11.60445,8.9858 23.69443,19.9286 38.36751,19.5977 15.56855,-0.3506 27.70641,-13.3927 36.24751,-26.4138 8.63206,-13.1607 15.81196,-29.7042 9.77532,-44.2398 -6.82093,-16.4236 -28.49333,-22.4026 -45.48107,-17.1415 -16.9873,5.2616 -30.03556,18.7413 -41.40978,32.4122 -11.37379,13.6708 -22.23306,28.3733 -37.37277,37.704 -19.18551,11.8242 -46.19023,16.3858 -54.29635,37.4141 l 1.85111,-81.5489 c 0.47936,-21.1104 10.50249,-25.5034 28.99774,-29.2166 20.24179,-4.0638 39.85658,-10.875 58.26659,-20.222 36.77081,-18.6692 68.63287,-47.2188 90.39272,-82.3204 11.82898,-19.0805 20.94391,-40.6905 20.68072,-63.1389 -0.0962,-8.168 -2.62925,-17.8326 -10.36497,-20.4562 -3.50888,-1.1898 -7.34643,-0.5997 -10.98493,0.099 -21.7058,4.1706 -42.73539,11.8365 -62.03295,22.6131 25.05036,-35.9553 43.90766,-76.213 55.49542,-118.4743 -32.99171,12.517 -67.06341,26.0332 -93.55274,50.0757 -26.30346,23.8732 -35.38149,55.578 -40.97919,89.651 -5.28266,32.1595 -10.16988,66.6407 -31.92577,90.9064 -5.51026,-34.3007 -8.33767,-69.0319 -8.44795,-103.7719 -0.11644,-36.4949 2.95219,-73.7846 17.3946,-107.3005 14.44154,-33.5158 41.83335,-63.0097 77.08522,-72.4554 8.67292,-2.3239 18.15649,-3.6592 24.83463,-9.6616 10.06135,-9.0433 9.71995,-24.8864 6.53709,-38.0349 -3.74703,-15.482 -11.53108,-31.5184 -26.06489,-38.0379 -16.93765,-7.597797 -37.49974,0.7311 -50.12883,14.3369 -9.6501,10.3962 -16.12392,24.0539 -16.46444,38.2353 -0.34052,14.1805 5.91449,28.7055 17.40559,37.0226 -17.73512,31.8449 -36.00981,63.3871 -54.12192,95.0193 4.45487,-7.277 0.48552,-35.6965 -1.8968,-44.3633 -4.0959,-14.9033 -13.02805,-28.1554 -11.80965,-44.2345 1.11119,-14.67 5.58276,-28.8462 8.54154,-43.2574 17.04442,-83.012897 -21.43909,-174.632797 -92.648486,-220.576497 -9.93218,-6.4079 -20.50541,-12.065 -28.99599,-20.2879 -8.49013,-8.2226 -14.79172,-19.755403 -13.34616,-31.486003 -6.7682,1.9913 -9.32627,10.0653 -10.70856,16.983303 -8.53539,42.7183 -11.9006,86.9340004 -4.5445,129.871 7.35565,42.9367 25.98843,84.649597 56.94844,115.295497 17.965796,17.783 39.681266,31.5685 56.775336,50.1912 17.09363,18.6227 29.45514,44.5742 22.74097,68.9448 -16.65293,-16.1898 -38.67508,-26.7613 -61.72318,-29.6287 -6.410546,-0.7974 -13.118126,-1.0822 -18.796666,-4.1635 -9.44227,-5.1232 -13.39185,-16.2913 -18.40034,-25.7951 -8.05164,-15.2803 -21.35078,-28.5008 -38.01294,-33.0502 -16.66172,-4.5489 -36.56123,1.2536 -45.57906,15.9847 -8.3324,13.6119 -5.7651,32.2561 4.12709,44.7802 9.89176,12.5241 25.91462,19.2409 41.84302,20.2339 25.08858,1.5638 49.64595,-9.723 74.738926,-8.2401 54.39961,3.2149 71.8856,55.263 71.65009,101.4242 -0.13708,26.905 -2.11693,54.89 8.42247,79.645 -24.68347,-54.5028 -61.83171,-104.7938 -112.625326,-136.4142 -50.79361,-31.6204 -116.28009,-42.4761 -171.771554,-20.1029 -2.38496,0.9618 -4.92018,2.1332 -6.14297,4.3955 -2.36474,4.3763 1.48159,9.4199 5.04891,12.8866 63.692054,61.8937 133.546844,122.2609 218.76322,147.2748 24.41589,7.1663 52.63374,13.3541 65.28788,35.4312 12.7508,22.2475 3.71935,48.7926 2.8006,72.6286 -0.48551,12.5886 0.97059,25.1395 0.59756,37.7686 -0.2109,7.1549 -0.48727,14.3717 -1.74038,21.436 -0.61514,3.468 -6.77348,16.7742 -5.92943,19.1825 -29.57246,-84.3759 -105.509136,-150.8136 -193.065216,-168.9143 26.42869,78.8722 81.07523,147.9624 151.739786,191.8468 13.73765,8.5314 29.1445,17.4104 34.46978,32.6789 3.51416,10.0758 1.88275,21.1464 -0.11072,31.6296 -6.78095,35.6631 -17.30673,70.61316 -31.34799,104.08994 -16.80583,-44.59924 -39.067006,-87.13954 -66.129716,-126.37134 -7.17244,-10.3979 -14.92705,-20.8011 -25.54554,-27.6431 -10.61805,-6.842 -24.77619,-9.5091 -35.96807,-3.6521 -16.87262,8.8288 -19.17409,35.0515 -6.26072,49.047 12.91381,13.996 35.95005,15.4231 52.64648,6.2656 2.48865,-1.3652 5.10472,-2.9799 7.84249,-3.2672"
         style="fill:#000000;fill-opacity:1;fill-rule:nonzero;stroke:none;stroke-width:0.43938"
         id="path2876" />
    </g>
  </g>
</svg>
