<?xml version="1.0" encoding="UTF-8" standalone="no"?>
<!-- Created with Inkscape (http://www.inkscape.org/) -->

<svg
   width="187.83482mm"
   height="187.83482mm"
   viewBox="0 0 187.83482 187.83482"
   version="1.1"
   id="svg314"
   sodipodi:docname="plate_leaves.svg"
   inkscape:version="1.2.2 (732a01da63, 2022-12-09)"
   xmlns:inkscape="http://www.inkscape.org/namespaces/inkscape"
   xmlns:sodipodi="http://sodipodi.sourceforge.net/DTD/sodipodi-0.dtd"
   xmlns="http://www.w3.org/2000/svg"
   xmlns:svg="http://www.w3.org/2000/svg">
  <sodipodi:namedview
     id="namedview316"
     pagecolor="#ffffff"
     bordercolor="#000000"
     borderopacity="0.25"
     inkscape:showpageshadow="2"
     inkscape:pageopacity="0.0"
     inkscape:pagecheckerboard="0"
     inkscape:deskcolor="#d1d1d1"
     inkscape:document-units="mm"
     showgrid="false"
     inkscape:zoom="0.96459612"
     inkscape:cx="253.47396"
     inkscape:cy="376.84166"
     inkscape:window-width="1600"
     inkscape:window-height="822"
     inkscape:window-x="1792"
     inkscape:window-y="-8"
     inkscape:window-maximized="1"
     inkscape:current-layer="layer1" />
  <defs
     id="defs311">
    <clipPath
       clipPathUnits="userSpaceOnUse"
       id="clipPath8228">
      <g
         id="g8232"
         transform="matrix(2.8346458,0,0,-2.8346457,-820.11068,1871.3793)">
        <path
           d="M -221.77512,-93.85702 H 2071.2803 V 1317.2541 H -221.77512 Z"
           id="path8230"
           style="stroke-width:0.352778" />
      </g>
    </clipPath>
    <clipPath
       clipPathUnits="userSpaceOnUse"
       id="clipPath8222">
      <g
         id="g8226"
         transform="matrix(2.8346458,0,0,-2.8346457,-4535.6156,1202.3129)">
        <path
           d="M -221.77512,-93.85702 H 2071.2803 V 1317.2541 H -221.77512 Z"
           id="path8224"
           style="stroke-width:0.352778" />
      </g>
    </clipPath>
  </defs>
  <g
     inkscape:label="레이어 1"
     inkscape:groupmode="layer"
     id="layer1"
     transform="translate(-10.60714,-57.45536)">
    <circle
       style="fill:#c8c8c8;fill-opacity:1;stroke-width:0"
       id="path413"
       cx="104.52455"
       cy="151.37277"
       r="93.917412" />
    <g
       id="g3971">
      <path
         style="fill:#006400;fill-opacity:1;stroke-width:0"
         d="m 45.084795,273.95724 c -2.988306,0.9616 -1.453617,4.87297 -1.454144,7.15435 0.293935,5.56304 2.187722,10.81687 4.948091,15.6158 5.281691,11.36261 14.107242,20.65895 24.250627,27.85162 8.580691,6.05053 17.304346,12.24504 27.136335,16.09557 8.027676,2.64878 16.618926,3.2529 24.983356,3.62025 2.77431,-1.42557 -0.0142,-4.37216 -1.14169,-5.96215 -5.67434,-6.87529 -9.63419,-14.87452 -14.50506,-22.28484 -6.01056,-9.44552 -14.658269,-16.8741 -24.2866,-22.45679 -9.577992,-6.43949 -19.969937,-11.4832 -30.621378,-15.87115 -3.119218,-1.13892 -6.085737,-3.05656 -9.309537,-3.76266 z"
         id="path3914"
         transform="matrix(0.26458333,0,0,0.26458333,10.60714,57.45536)" />
      <path
         style="fill:#006400;fill-opacity:1;stroke-width:0"
         d="m 50.503829,266.8022 c -3.45612,0.29041 -3.340559,5.60477 -0.528389,6.88649 9.6298,5.92967 20.123123,10.33514 29.930474,15.97163 7.852246,4.37822 16.087739,8.56677 22.013776,15.53898 5.89977,5.70406 10.1628,12.73993 13.9663,19.94244 1.45382,1.98176 2.53678,5.21753 5.17898,5.71601 2.8023,-0.42717 1.02606,-3.6637 0.37849,-5.22954 -4.34593,-9.91057 -8.16748,-20.22172 -14.29133,-29.20922 -6.06034,-6.89553 -14.448499,-11.0617 -22.24114,-15.65024 -7.863007,-4.00118 -15.993017,-7.25756 -23.753942,-11.45191 -3.370791,-1.4237 -6.987263,-2.37482 -10.653219,-2.51464 z"
         id="path3916"
         transform="matrix(0.26458333,0,0,0.26458333,10.60714,57.45536)" />
      <g
         id="g3950">
        <path
           style="fill:#006400;fill-opacity:1;stroke-width:0"
           d="m 219.59164,475.75283 c -3.12288,2.80657 -4.82916,6.96893 -7.23051,10.40116 -6.24134,11.05292 -14.59541,21.24313 -17.76418,33.7655 -3.7686,13.40486 -6.81752,27.25024 -6.22383,41.24743 1.66351,2.71002 4.43017,-0.31878 5.58394,-1.94211 4.23961,-5.97775 7.91595,-12.35077 11.75087,-18.59354 5.37427,-10.18422 10.94521,-20.40512 14.54289,-31.37895 2.28084,-9.46775 2.2939,-19.32452 2.37426,-29.0108 -0.0616,-1.82964 -0.31731,-5.15149 -3.03344,-4.48869 z"
           id="path3898"
           transform="matrix(0.26458333,0,0,0.26458333,10.60714,57.45536)" />
        <path
           style="fill:#006400;fill-opacity:1;stroke-width:0"
           d="m 219.38761,465.76577 c -6.10842,2.65533 -10.2477,8.35701 -14.08949,13.58551 -6.72337,9.81352 -15.57544,18.49617 -19.29838,30.07629 -5.17648,15.41289 -5.52601,32.27543 -2.24871,48.11213 0.93508,2.10362 3.71942,0.58227 3.40837,-1.38985 1.88567,-11.86241 1.91731,-24.11308 6.03919,-35.52982 3.563,-15.31128 13.27885,-28.02289 21.52793,-41.05668 2.16431,-3.99549 5.75337,-7.45801 6.62206,-12.01188 0.0897,-1.05496 -0.92633,-1.96115 -1.96097,-1.7857 z"
           id="path3900"
           transform="matrix(0.26458333,0,0,0.26458333,10.60714,57.45536)" />
        <path
           style="fill:#006400;fill-opacity:1;stroke-width:0"
           d="m 91.973609,469.82198 c -2.988139,0.32124 -1.452727,3.64436 -0.41591,5.16443 8.853591,15.99416 23.455641,27.80312 38.300081,37.99012 10.98871,6.69147 22.81435,11.90493 34.55145,17.12231 1.66086,0.98759 5.15839,1.35045 4.99684,-1.46182 -1.95172,-4.90702 -5.60154,-9.01411 -8.64517,-13.30213 -11.98976,-15.55275 -26.72222,-29.49319 -44.79314,-37.65516 -7.65085,-3.42437 -15.6771,-6.62213 -23.994151,-7.85775 z"
           id="path3902"
           transform="matrix(0.26458333,0,0,0.26458333,10.60714,57.45536)" />
        <path
           style="fill:#006400;fill-opacity:1;stroke-width:0"
           d="m 102.12896,466.27497 c -1.71623,-0.2193 -4.868502,0.52311 -3.672565,2.88957 2.468665,2.15353 6.142405,2.27234 8.990455,3.8548 16.45406,6.32423 31.43284,16.301 43.32524,29.29591 2.22812,1.74633 3.82324,4.96237 6.73478,5.50187 2.75257,-0.21758 2.11504,-3.62203 0.9565,-5.181 -2.59336,-5.7307 -6.54134,-10.67503 -11.33483,-14.72206 -10.13963,-9.20623 -21.51557,-18.26313 -35.22091,-21.14732 -3.23818,-0.42375 -6.51527,-0.54455 -9.77867,-0.49177 z"
           id="path3904"
           transform="matrix(0.26458333,0,0,0.26458333,10.60714,57.45536)" />
        <path
           style="fill:#006400;fill-opacity:1;stroke-width:0"
           d="m 202.16877,407.83398 c -3.93092,0.47794 -7.60722,2.82808 -10.2966,5.6562 -2.54286,4.00358 -0.50181,9.03341 0.57199,13.20361 0.54279,2.71433 2.96416,5.04575 5.87539,4.26235 7.94224,-0.5661 15.53822,-7.8634 14.98113,-16.05693 -0.60479,-4.72571 -6.14677,-6.03693 -10.01933,-7.01291 -0.36911,-0.0426 -0.74097,-0.0645 -1.11258,-0.0523 z"
           id="path3906"
           transform="matrix(0.26458333,0,0,0.26458333,10.60714,57.45536)" />
        <path
           style="fill:#006400;fill-opacity:1;stroke-width:0"
           d="m 62.761396,350.19516 c -4.178296,0.17241 -9.231144,0.8188 -11.278644,5.04743 -1.57911,2.09764 -2.32776,4.75854 -1.267302,7.26985 0.703639,6.39431 3.666868,12.35652 8.25269,16.85793 2.946025,3.49842 7.28735,6.61266 12.102246,5.47609 4.918925,-1.23045 8.762174,-4.92916 13.051479,-7.45465 1.760713,-0.82792 3.292372,-2.59177 2.093042,-4.54831 -1.791913,-2.7546 0.86543,-5.81843 -0.589423,-8.68266 -2.837018,-5.89577 -8.493698,-10.20638 -14.440004,-12.6883 -2.519406,-0.96576 -5.234515,-1.34112 -7.924084,-1.27738 z"
           id="path3908"
           transform="matrix(0.26458333,0,0,0.26458333,10.60714,57.45536)" />
        <path
           style="fill:#006400;fill-opacity:1;stroke-width:0"
           d="m 209.06747,327.68023 c -10.55364,7.35597 -20.62831,15.46773 -30.36141,23.89432 -11.78642,9.89899 -20.30003,22.84398 -29.57494,34.95909 -3.12928,4.77471 -7.53875,9.09644 -8.95557,14.76175 -0.48295,2.6244 2.81237,2.67289 4.22972,1.35149 8.66613,-5.43284 17.3809,-10.91802 25.31658,-17.38787 11.27583,-9.98919 20.5351,-21.96036 30.70549,-32.97371 5.12761,-6.73703 8.01696,-14.87626 10.74758,-22.79756 0.007,-1.28328 -0.81974,-2.05397 -2.10745,-1.80751 z"
           id="path3910"
           transform="matrix(0.26458333,0,0,0.26458333,10.60714,57.45536)" />
        <path
           style="fill:#006400;fill-opacity:1;stroke-width:0"
           d="m 200.45282,326.44209 c -4.68473,1.29312 -9.20029,3.31715 -13.88147,4.97094 -11.63824,4.53229 -21.45269,12.88412 -28.62067,23.0293 -8.94088,11.8704 -17.36864,24.55121 -21.92202,38.81039 -0.55161,2.89541 -1.16092,6.03498 -0.43946,8.89803 2.875,1.81853 3.27788,-2.5347 4.23409,-4.39539 5.81196,-10.67446 13.67569,-20.05673 21.67874,-29.17789 7.78485,-7.59822 13.48262,-17.00773 22.0091,-23.84715 6.13441,-5.24386 13.89339,-9.02589 18.82593,-15.62274 0.68408,-1.31304 -0.44628,-2.82184 -1.88424,-2.66549 z"
           id="path3912"
           transform="matrix(0.26458333,0,0,0.26458333,10.60714,57.45536)" />
        <path
           style="fill:#006400;fill-opacity:1;stroke-width:0"
           d="m 59.727958,232.79787 c -2.796272,1.14671 -0.603818,4.54921 -0.117711,6.56213 3.929175,8.84699 9.312558,16.98083 14.038914,25.4169 3.076335,5.19841 5.944385,11.24674 11.930598,13.63241 3.599995,1.45852 7.037506,3.86662 10.940083,4.30296 2.675625,-0.34011 2.633384,-3.67154 1.199774,-5.35625 -6.958607,-11.07245 -15.07351,-21.46561 -24.61796,-30.43823 -3.963957,-3.76641 -7.339253,-8.03903 -10.542547,-12.44233 -0.736189,-0.80128 -1.60702,-1.8589 -2.831151,-1.67759 z"
           id="path3918"
           transform="matrix(0.26458333,0,0,0.26458333,10.60714,57.45536)" />
        <path
           style="fill:#006400;fill-opacity:1;stroke-width:0"
           d="m 65.849766,230.03386 c -2.730669,-0.17274 -3.216593,3.19119 -1.613067,4.83484 8.350001,12.21757 21.220765,20.58155 28.852106,33.38875 4.244366,6.35904 7.131855,13.58225 11.567875,19.81283 2.89022,1.2027 3.24429,-2.75646 3.63245,-4.6779 0.80766,-4.96682 -2.00819,-9.63272 -3.19359,-14.32301 -2.67441,-6.79977 -4.33815,-14.31685 -9.016893,-20.10421 -6.383874,-6.67393 -14.660104,-11.13461 -22.439537,-15.95625 -2.448877,-1.25702 -4.961556,-2.85612 -7.789344,-2.97505 z"
           id="path3920"
           transform="matrix(0.26458333,0,0,0.26458333,10.60714,57.45536)" />
        <path
           style="fill:#006400;fill-opacity:1;stroke-width:0"
           d="m 242.68466,244.19048 c -6.62317,1.30966 -12.95622,4.20263 -19.81679,4.35268 -8.94857,0.29284 -15.73388,7.1222 -24.42485,8.39492 -7.7773,1.27236 -13.5711,7.05278 -19.75179,11.43708 -8.4421,7.17493 -16.98257,14.26864 -25.04178,21.87755 -3.65924,3.66971 -7.40475,8.04744 -8.12986,13.33265 0.59133,3.10439 4.47145,1.70749 6.58696,1.45271 22.75588,-3.51965 43.8166,-14.35518 61.59311,-28.74482 10.77946,-8.64655 20.86458,-18.16914 30.33213,-28.22268 1.4451,-1.3878 1.02838,-4.03209 -1.34713,-3.88009 z"
           id="path3922"
           transform="matrix(0.26458333,0,0,0.26458333,10.60714,57.45536)" />
        <path
           style="fill:#006400;fill-opacity:1;stroke-width:0"
           d="m 234.89835,229.81239 c -10.11207,0.22586 -20.30041,1.0694 -29.95859,4.27593 -4.02169,0.99946 -8.06729,2.37683 -11.08046,5.34318 -3.84427,1.64305 -8.22743,1.93711 -11.85038,4.22711 -9.51676,5.25525 -15.77328,14.49584 -23.6318,21.73824 -3.71116,3.99236 -8.44435,7.22749 -10.47097,12.48654 -5.38975,9.91535 -11.03716,19.93704 -13.78091,30.95883 0.18286,2.78333 3.89356,2.39704 5.13653,0.57111 4.07497,-4.02179 4.90023,-10.07117 8.6198,-14.3737 7.14966,-9.9781 16.66647,-17.51134 26.5186,-24.61446 7.01587,-4.87318 12.67937,-12.29318 21.19252,-14.64153 9.1766,-1.51123 16.96373,-7.36742 26.05583,-9.07764 4.23666,-0.2967 8.74187,0.4374 12.58856,-1.8627 6.57773,-3.27305 13.84972,-4.58199 21.09665,-5.25311 2.18015,-0.0313 5.41404,-2.25105 3.47986,-4.57501 -2.40292,-1.61813 -5.64532,-1.14242 -8.18043,-2.61491 -4.96653,-2.07184 -10.3914,-2.68756 -15.73481,-2.58788 z"
           id="path3924"
           transform="matrix(0.26458333,0,0,0.26458333,10.60714,57.45536)" />
        <path
           style="fill:#006400;fill-opacity:1;stroke-width:0"
           d="m 205.49169,192.56361 c -5.47655,2.93599 -10.8588,5.99982 -16.5396,8.41847 -3.1634,3.04448 -4.82341,7.52432 -5.44694,11.79719 0.0426,4.74629 3.91952,8.74639 8.56495,9.35492 13.70742,3.84848 29.96011,-7.38361 29.81929,-21.95167 0.36977,-3.1003 -1.73969,-5.8579 -4.72607,-6.58393 -3.71993,-1.28808 -7.81261,-1.4277 -11.67163,-1.03498 z"
           id="path3926"
           transform="matrix(0.26458333,0,0,0.26458333,10.60714,57.45536)" />
        <path
           style="fill:#006400;fill-opacity:1;stroke-width:0"
           d="m 89.737113,158.38751 c -5.394931,0.49177 -9.316282,5.06449 -12.323834,9.16658 -3.053953,5.26848 -5.069905,11.99983 -2.900034,17.94254 3.483369,6.58392 11.164571,10.46724 18.539756,9.74466 4.661469,0.1984 9.577349,-0.31936 13.273419,-3.46939 3.95128,-2.75942 6.60243,-7.41471 5.97417,-12.32207 0.25654,-7.3959 -5.63695,-13.22674 -11.35484,-17.04709 -3.427839,-1.91758 -7.191048,-3.95535 -11.208637,-4.01523 z"
           id="path3928"
           transform="matrix(0.26458333,0,0,0.26458333,10.60714,57.45536)" />
        <path
           style="fill:#006400;fill-opacity:1;stroke-width:0"
           d="m 183.44063,80.717015 c -5.43326,2.259277 -10.5617,5.403029 -15.49853,8.620755 -4.56545,3.330722 -7.80453,8.013119 -10.55524,12.85878 -7.07469,8.96525 -14.99524,17.99414 -17.7494,29.38291 -2.12516,8.68319 -4.5356,17.4123 -5.19571,26.35465 0.35953,4.66205 -2.38185,9.0844 -1.00708,13.74595 1.3332,5.85168 2.55857,11.96312 5.48181,17.24587 1.41067,2.72639 4.40288,0.87074 5.06503,-1.35411 9.28295,-23.37619 16.65319,-47.48914 25.28679,-71.06913 4.5387,-11.60165 10.88955,-22.382958 15.8691,-33.778496 0.18888,-0.96509 -0.64622,-2.127696 -1.69677,-2.007179 z"
           id="path3930"
           transform="matrix(0.26458333,0,0,0.26458333,10.60714,57.45536)" />
        <path
           style="fill:#006400;fill-opacity:1;stroke-width:0"
           d="m 196.85786,74.902125 c -3.57889,1.464527 -5.88179,5.030368 -8.81126,7.452871 -3.10434,3.343939 -7.32617,5.939912 -8.53656,10.605952 -10.81485,24.437932 -18.1919,50.188722 -27.52619,75.194182 -2.93939,8.65479 -6.52777,17.127 -9.04516,25.90558 -0.36741,2.61564 2.93373,2.90337 4.45468,1.51977 14.21524,-7.65624 25.37714,-19.91354 34.82274,-32.79068 11.50973,-15.61194 16.97501,-34.94314 17.76912,-54.16088 0.37198,-10.789119 0.38962,-21.692487 -1.18123,-32.386641 -0.20351,-0.85371 -1.0759,-1.454156 -1.94614,-1.340154 z"
           id="path3932"
           transform="matrix(0.26458333,0,0,0.26458333,10.60714,57.45536)" />
      </g>
    </g>
    <g
       id="g3991">
      <path
         style="fill:#006400;fill-opacity:1;stroke-width:0"
         d="m 524.78921,149.42409 c -3.34488,1.20566 -4.87474,5.01483 -6.91527,7.68779 -6.51824,10.2803 -12.82809,20.72189 -17.67017,31.91924 -4.03526,8.28171 -7.30241,17.15131 -7.3036,26.48688 -0.15419,6.10287 -0.9172,12.29852 -0.23803,18.36367 0.82578,2.32535 3.91781,1.86172 4.63953,-0.29209 6.60684,-10.10137 12.86107,-20.43123 18.9252,-30.86277 4.52071,-9.90081 6.84228,-20.67796 8.78746,-31.34256 1.11686,-6.81185 1.66171,-13.73274 1.65998,-20.62785 -0.32848,-0.82524 -0.93082,-1.44288 -1.8851,-1.33231 z"
         id="path3862"
         transform="matrix(0.26458333,0,0,0.26458333,10.60714,57.45536)" />
      <path
         style="fill:#006400;fill-opacity:1;stroke-width:0"
         d="m 528.68324,153.15245 c -1.89484,2.27103 -1.00202,5.74243 -1.77084,8.47413 -1.08954,10.44866 -2.25008,21.00549 -5.64578,30.99894 -4.2476,15.99958 -15.03134,29.36429 -23.63449,43.35925 -1.43299,2.9096 -4.42081,5.64134 -3.78766,9.13955 2.20441,1.87234 4.64487,-1.19567 6.50546,-2.4135 8.00552,-7.31563 13.26503,-16.99187 20.28628,-25.1717 11.02237,-14.59827 13.61891,-33.79326 12.241,-51.59286 -0.60306,-4.10197 -0.61476,-8.44488 -2.10396,-12.3343 -0.48823,-0.6702 -1.36195,-0.74451 -2.09001,-0.45951 z"
         id="path3864"
         transform="matrix(0.26458333,0,0,0.26458333,10.60714,57.45536)" />
      <path
         style="fill:#006400;fill-opacity:1;stroke-width:0"
         d="m 547.57182,180.44032 c -2.92533,0.25922 -2.20953,3.80636 -0.86495,5.41206 11.15299,17.47235 25.81025,33.09457 43.7198,43.72814 9.8861,5.48548 20.56654,9.74214 31.61829,12.11451 2.6563,0.0222 2.35928,-3.29821 1.04108,-4.75114 -8.37358,-15.3632 -22.14302,-26.78983 -36.14342,-36.83285 -11.96186,-7.98185 -25.45141,-13.28146 -38.32013,-19.53121 -0.34019,-0.10025 -0.6951,-0.15989 -1.05067,-0.13951 z"
         id="path3866"
         transform="matrix(0.26458333,0,0,0.26458333,10.60714,57.45536)" />
      <path
         style="fill:#006400;fill-opacity:1;stroke-width:0"
         d="m 556.9093,203.83328 c -3.07761,0.92348 -1.01566,4.64511 0.008,6.44704 4.04751,8.50097 11.7874,14.34579 18.78399,20.3035 9.08395,6.90433 19.34753,13.72024 31.06194,14.52076 2.8622,-0.0547 5.88287,0.1409 8.64214,-0.55225 1.98796,-1.67405 -0.50713,-3.55555 -2.21905,-3.85828 -17.8103,-6.25412 -34.85668,-15.89285 -47.81076,-29.88417 -2.6138,-2.27205 -4.59153,-5.63827 -7.87582,-6.97485 -0.19546,-0.0305 -0.39466,-0.0301 -0.59029,-0.002 z"
         id="path3868"
         transform="matrix(0.26458333,0,0,0.26458333,10.60714,57.45536)" />
      <path
         style="fill:#006400;fill-opacity:1;stroke-width:0"
         d="m 517.16419,279.86194 c -7.95033,0.54881 -15.35306,7.23659 -15.55607,15.38866 -0.17257,3.61255 3.08465,5.57597 6.06862,6.57173 2.75493,1.17609 6.03299,2.3566 8.71056,0.30604 3.15513,-1.98612 8.12202,-3.76051 7.72703,-8.32517 -0.20108,-4.35748 -0.64576,-9.23714 -3.46678,-12.74497 -0.92174,-0.88438 -2.22585,-1.25941 -3.48336,-1.19629 z"
         id="path3870"
         transform="matrix(0.26458333,0,0,0.26458333,10.60714,57.45536)" />
      <path
         style="fill:#006400;fill-opacity:1;stroke-width:0"
         d="m 572.31279,306.94229 c -9.6409,5.68087 -18.97472,11.9653 -27.72209,18.94613 -10.89876,9.55219 -19.71003,21.13907 -29.51756,31.7416 -5.51354,6.69168 -8.49193,15.03422 -11.08553,23.18203 0.1232,2.64029 3.17258,1.69467 4.34103,0.35299 12.23799,-9.32876 24.72504,-18.51327 35.53892,-29.51388 9.70448,-10.7453 18.09926,-22.59862 26.65339,-34.25814 1.92341,-2.92093 4.29189,-6.17297 3.89754,-9.82643 -0.63564,-0.6999 -1.18998,-0.84183 -2.1057,-0.6243 z"
         id="path3872"
         transform="matrix(0.26458333,0,0,0.26458333,10.60714,57.45536)" />
      <path
         style="fill:#006400;fill-opacity:1;stroke-width:0"
         d="m 577.20779,308.6626 c -2.41735,1.44865 -2.07554,5.05211 -3.83997,7.1411 -6.18235,9.37996 -12.9722,18.39223 -20.5034,26.69931 -8.65522,8.47554 -14.93958,19.35272 -25.17867,26.16134 -5.29739,3.7417 -11.08465,7.26845 -15.02681,12.51042 -1.07018,2.19765 1.89686,3.81149 3.58916,2.39255 9.20804,-3.47792 18.80058,-6.55188 26.5603,-12.86244 9.65675,-7.42315 16.35673,-17.85116 23.23958,-27.72318 5.67417,-9.17021 11.34971,-18.80534 13.31086,-29.5418 0.11223,-1.68609 0.55778,-5.13301 -2.15105,-4.7773 z"
         id="path3874"
         transform="matrix(0.26458333,0,0,0.26458333,10.60714,57.45536)" />
      <path
         style="fill:#006400;fill-opacity:1;stroke-width:0"
         d="m 645.63236,325.66346 c -6.54636,0.53411 -11.52251,5.5996 -16.7698,8.97127 -1.94857,2.29708 1.46994,5.01194 -0.0148,7.51341 -1.20464,4.99246 3.10605,9.15881 6.53074,12.12677 5.1536,4.2429 11.85309,7.1004 18.62613,5.81838 3.59897,-0.23396 7.25696,-1.7665 8.78936,-5.26296 1.69141,-1.93413 1.86408,-4.48648 0.92506,-6.80015 -0.99225,-8.966 -6.56654,-17.54211 -14.61204,-21.69708 -1.09873,-0.44963 -2.28578,-0.69294 -3.47463,-0.66964 z"
         id="path3876"
         transform="matrix(0.26458333,0,0,0.26458333,10.60714,57.45536)" />
      <path
         style="fill:#006400;fill-opacity:1;stroke-width:0"
         d="m 590.50382,366.27352 c -2.65329,-0.13776 -2.27746,3.01064 -0.85187,4.28204 4.9036,6.62743 9.3322,13.55288 13.48088,20.65772 5.97768,9.56882 13.77973,18.15103 23.65159,23.79042 9.79374,6.49741 20.06666,12.28214 31.03127,16.56805 3.95604,1.42666 7.6806,3.87956 11.75979,4.7266 2.47983,-0.88249 0.79001,-4.21436 0.88833,-6.16923 -0.37264,-5.44855 -1.71457,-10.78933 -4.512,-15.51873 -5.0012,-10.81607 -12.65742,-20.35612 -22.43665,-27.21535 -9.19283,-6.40015 -18.35139,-13.17634 -28.75687,-17.49077 -7.72614,-2.79245 -16.13903,-3.07239 -24.25447,-3.63075 z"
         id="path3878"
         transform="matrix(0.26458333,0,0,0.26458333,10.60714,57.45536)" />
      <path
         style="fill:#006400;fill-opacity:1;stroke-width:0"
         d="m 593.22685,379.86514 c -2.59629,1.44697 0.0508,4.51299 0.5021,6.51653 3.9949,9.05388 7.23829,18.63823 13.06927,26.72489 6.08999,7.31861 14.85096,11.6418 22.89887,16.42376 7.61917,3.97446 15.64503,6.92212 23.11821,11.16925 3.75326,1.60586 8.09049,2.97914 12.15468,2.04642 2.51389,-2.07496 0.5999,-6.39588 -2.22538,-7.26338 -14.87029,-8.3502 -30.70722,-15.00903 -44.63117,-24.93083 -8.56428,-7.07536 -14.82733,-16.27903 -20.04983,-26.02684 -1.32978,-1.56984 -2.30204,-4.95192 -4.83675,-4.6598 z"
         id="path3880"
         transform="matrix(0.26458333,0,0,0.26458333,10.60714,57.45536)" />
      <path
         style="fill:#006400;fill-opacity:1;stroke-width:0"
         d="m 617.86842,427.42272 c -2.90511,0.2274 -2.56795,3.93459 -1.11084,5.62219 7.17732,11.12647 15.32829,21.69737 24.98685,30.79738 3.48888,3.39729 6.69431,7.05871 9.40287,11.09616 1.04311,1.55322 4.18612,3.00253 4.63953,0.22757 -1.11768,-6.30679 -5.29388,-11.53397 -7.99853,-17.22168 -4.25821,-7.29755 -7.88742,-15.04567 -12.98616,-21.8067 -4.28999,-4.52742 -10.49735,-6.509 -16.18038,-8.64953 -0.24777,-0.0487 -0.50069,-0.0745 -0.75334,-0.0654 z"
         id="path3882"
         transform="matrix(0.26458333,0,0,0.26458333,10.60714,57.45536)" />
      <path
         style="fill:#006400;fill-opacity:1;stroke-width:0"
         d="m 607.99645,421.63137 c -3.88362,4.98039 -1.44206,11.62769 0.38719,16.94329 2.97579,7.47137 4.84559,15.64651 9.68532,22.20629 5.65289,6.00866 12.98599,10.13031 19.89452,14.52341 3.52293,1.84164 7.13222,4.64235 11.2743,4.44191 2.88557,-0.84421 1.53004,-4.29184 0.0793,-5.83931 -9.35378,-12.19166 -22.41159,-21.25876 -29.86084,-34.91212 -3.43705,-5.55437 -5.99066,-11.72116 -9.69895,-17.04845 -0.46346,-0.63826 -1.10917,-0.37101 -1.76089,-0.31502 z"
         id="path3884"
         transform="matrix(0.26458333,0,0,0.26458333,10.60714,57.45536)" />
      <path
         style="fill:#006400;fill-opacity:1;stroke-width:0"
         d="m 566.57637,404.67062 c -21.85674,2.65636 -42.59312,11.91163 -60.11898,25.09701 -13.10901,9.8722 -25.26134,21.05101 -36.32239,33.16263 -1.56137,1.70553 0.82178,3.73585 2.59573,2.72215 7.04598,-1.81117 13.99835,-4.17348 21.32998,-4.53315 8.35272,-0.98097 14.58889,-7.21614 22.89684,-8.21269 8.40269,-1.81422 14.77075,-8.07844 21.40789,-13.09972 7.73881,-6.95439 15.86561,-13.48105 23.44402,-20.61004 3.44142,-3.51241 6.89464,-7.85795 7.30858,-12.91835 -0.15624,-1.22936 -1.45172,-1.72895 -2.54167,-1.60784 z"
         id="path3886"
         transform="matrix(0.26458333,0,0,0.26458333,10.60714,57.45536)" />
      <path
         style="fill:#006400;fill-opacity:1;stroke-width:0"
         d="m 577.61062,399.21497 c -3.89749,1.74571 -5.6611,6.20306 -7.22131,9.93301 -3.86911,8.02427 -10.53806,14.03473 -16.77154,20.23309 -7.35193,6.19671 -15.46513,11.44287 -22.65602,17.85127 -4.39087,3.94771 -9.74176,7.15735 -15.72713,7.65612 -7.08941,2.36934 -13.5915,6.56501 -20.95942,8.10196 -4.86476,0.71326 -10.11622,-0.30888 -14.50975,2.49807 -6.15803,3.04881 -13.01955,3.94839 -19.74965,4.73694 -2.06745,0.18047 -5.5851,2.09614 -3.67296,4.50114 3.03104,1.77624 6.84829,1.61601 10.04897,3.11976 9.71628,3.82567 20.24728,1.62653 30.30694,1.0152 6.62764,-0.81874 13.0129,-3.09495 19.3485,-5.13506 3.30999,-1.64744 6.03244,-4.46143 9.87721,-4.90198 9.75391,-2.46523 17.14919,-9.73705 23.50216,-17.13685 6.0895,-6.91024 14.07009,-12.38491 18.01981,-20.96181 4.75376,-8.9193 9.82584,-17.85265 12.63175,-27.61421 0.60708,-1.75722 -0.24051,-4.21662 -2.46756,-3.89665 z"
         id="path3888"
         transform="matrix(0.26458333,0,0,0.26458333,10.60714,57.45536)" />
      <path
         style="fill:#006400;fill-opacity:1;stroke-width:0"
         d="m 516.71253,486.87079 c -12.28583,0.0844 -24.06217,10.78351 -23.65977,23.3764 0.56832,5.31492 6.76664,6.7985 11.22014,6.91165 6.14577,0.64418 11.08753,-3.91871 16.43,-6.14886 2.84117,-1.68131 6.64081,-2.39012 7.92628,-5.87055 2.19902,-4.13594 4.1274,-9.66339 0.79868,-13.76862 -2.76496,-3.85501 -8.34604,-4.42446 -12.71533,-4.50002 z"
         id="path3890"
         transform="matrix(0.26458333,0,0,0.26458333,10.60714,57.45536)" />
      <path
         style="fill:#006400;fill-opacity:1;stroke-width:0"
         d="m 619.54688,514.2659 c -5.44506,-0.24475 -10.96062,1.78576 -14.40861,6.12704 -4.52599,5.15832 -4.02276,13.33275 -0.0776,18.68107 4.01407,6.16946 10.89705,10.05319 17.90156,11.8059 5.73324,0.42329 10.40151,-4.2522 13.44514,-8.59721 3.4009,-5.59346 6.094,-13.24286 2.55736,-19.38907 -3.49855,-5.78701 -10.32636,-9.06722 -17.02788,-8.63034 -0.7967,-0.0101 -1.59329,-0.008 -2.38996,0.003 z"
         id="path3892"
         transform="matrix(0.26458333,0,0,0.26458333,10.60714,57.45536)" />
      <path
         style="fill:#006400;fill-opacity:1;stroke-width:0"
         d="m 573.55615,519.16876 c -3.39855,0.8889 -3.562,5.2681 -4.98014,7.9133 -8.29351,21.86916 -15.39904,44.24409 -23.37758,66.16746 -4.54774,11.1873 -10.60086,21.79475 -15.67727,32.79672 -0.53847,2.65539 2.81656,2.43479 4.14776,1.15007 8.3513,-4.52499 17.7914,-9.08181 22.07287,-18.13349 3.82611,-5.7934 8.80276,-10.74801 12.4168,-16.71132 5.85052,-7.84026 7.39001,-17.75021 9.7504,-26.99965 0.81577,-4.89524 2.62871,-9.90178 1.91109,-14.88785 -0.13354,-2.88358 1.67597,-5.60697 1.42561,-8.58413 0.18045,-6.91249 -2.47578,-13.49648 -4.64564,-19.94187 -0.51437,-1.27598 -1.51283,-2.75911 -3.0439,-2.76924 z"
         id="path3894"
         transform="matrix(0.26458333,0,0,0.26458333,10.60714,57.45536)" />
      <path
         style="fill:#006400;fill-opacity:1;stroke-width:0"
         d="m 569.94724,512.99638 c -5.61386,1.92298 -10.53547,5.61692 -15.13842,9.30696 -16.89823,14.4438 -31.18385,33.06364 -36.45841,54.99588 -2.89454,10.3755 -3.58849,21.16261 -3.45264,31.88741 0.0721,8.14006 -0.0716,16.42562 1.46257,24.41366 1.98837,2.70969 4.32347,-1.66968 6.01732,-2.84708 3.84024,-4.01137 8.35534,-7.52048 11.78219,-11.84086 10.91593,-24.44534 18.3372,-50.21475 27.63728,-75.27626 3.374,-9.56213 7.02989,-19.03971 10.09625,-28.70229 0.18129,-1.09949 -0.86402,-2.09628 -1.94614,-1.93742 z"
         id="path3896"
         transform="matrix(0.26458333,0,0,0.26458333,10.60714,57.45536)" />
    </g>
    <path
       fill-rule="nonzero"
       fill="#000000"
       fill-opacity="1"
       d="m 63.465943,171.10154 c 1.668695,-0.42607 2.575054,-1.59659 2.986938,-3.12828 0.112169,-0.41682 -0.131473,-1.20874 -0.459136,-1.3961 -0.446806,-0.25554 -2.014028,-0.96635 -2.495962,-0.75578 -0.655937,0.2866 -1.049124,0.65696 -1.702596,0.95834 -0.954217,0.44064 -0.56431,2.19439 -0.252478,3.36389 0.300132,1.12556 0.943535,1.37475 1.923234,0.95793 m -11.618878,20.59553 c 0.135999,-0.11629 0.271992,-0.23257 0.407976,-0.34883 -0.684069,-1.10912 -1.175046,-2.4216 -2.088588,-3.28934 -2.687639,-2.55328 -5.46113,-5.02275 -9.082027,-6.28963 -1.536618,-0.53781 -3.018168,-0.57992 -4.82389,-0.32293 6.347968,1.96308 11.510611,5.26823 15.586529,10.25073 M 35.81845,131.98246 c 0.17194,-0.20645 0.160851,-0.19309 0.332583,-0.39955 -0.455432,-0.70936 -0.867934,-1.45156 -1.375135,-2.12168 -1.305711,-1.72499 -2.517947,-3.55167 -4.024773,-5.08457 -1.353365,-1.37639 -2.992492,-2.46373 -3.87296,-4.27316 -0.114834,-0.23582 -0.407984,-0.38474 -0.885811,-0.8141 0.276916,0.88211 0.359913,1.44704 0.617932,1.91563 1.126782,2.04628 2.320946,4.05517 3.458199,6.09591 0.790492,1.41849 1.499427,2.88875 3.131356,3.56419 0.876774,0.36279 1.746151,0.74408 2.618609,1.11733 m 23.608334,73.4307 c 0.236245,-2.02656 0.527141,-4.15891 0.720248,-6.2999 0.147283,-1.63336 0.8024,-3.11863 1.174846,-4.65995 0.468373,-1.93783 1.364462,-3.57942 2.327095,-5.20375 1.464924,-2.47254 3.136297,-4.82204 4.69386,-7.24076 0.165167,-0.25679 0.155707,-0.62593 0.227402,-0.9427 -1.012751,0.6323 -1.864266,1.34022 -2.541354,2.18761 -1.15821,1.44992 -2.102572,3.07938 -3.326524,4.46603 -1.850297,2.09641 -2.936604,4.62811 -3.447312,7.20852 -0.687567,3.47402 -0.683868,7.08196 0.171739,10.4849 m -36.00887,-76.96449 c -0.38354,1.38254 0.735029,1.42588 1.375761,1.76792 2.08059,1.11056 4.199592,2.14839 6.299701,3.22215 0.331563,0.16949 0.650793,0.36157 0.967359,0.55754 1.429994,0.88623 3.01755,1.60193 4.238213,2.71826 1.948495,1.78167 3.66629,3.80968 4.789579,6.27729 0.363202,0.79788 1.019138,1.46245 1.541338,2.18782 -0.662717,-1.71841 -1.368571,-3.38711 -2.120651,-5.03487 -0.509048,-1.11486 -0.999199,-2.25274 -1.645892,-3.28789 -1.383768,-2.21515 -3.824274,-3.13732 -5.857199,-4.54986 -0.67135,-0.46631 -1.480322,-0.73789 -2.232818,-1.08446 -1.163749,-0.53595 -2.416668,-0.93161 -3.477916,-1.62289 -1.191899,-0.77631 -2.423647,-1.10787 -3.877475,-1.15101 m 4.1431,-9.81438 c -0.09881,0.1173 -0.197627,0.23459 -0.296432,0.35189 0.788433,0.99285 1.462446,2.11161 2.387494,2.95428 2.50275,2.27944 4.871553,4.64209 6.455819,7.68511 0.69332,1.33179 1.429168,2.64141 2.145918,3.96088 0.284109,-0.77672 0.53637,-1.57729 0.333209,-2.23815 -0.671559,-2.18514 -1.423015,-4.35593 -2.320532,-6.45664 -0.372446,-0.87122 -1.068236,-1.71842 -1.833044,-2.28479 -1.711632,-1.2673 -3.544274,-2.37497 -5.361294,-3.49332 -0.436535,-0.26871 -1.003935,-0.3252 -1.511138,-0.47926 m 36.04832,25.83704 c -0.104778,-0.1664 -0.07665,-0.12182 -0.181601,-0.28822 -0.596775,0.24467 -1.175262,0.55015 -1.790316,0.73358 -3.415673,1.01894 -6.32127,2.87788 -8.47499,5.67849 -2.110572,2.74432 -4.192395,5.53262 -5.585005,8.76731 -0.617926,1.43575 -1.338777,2.7889 -1.049534,4.43254 0.35334,-0.6999 0.467972,-1.53146 0.896282,-2.14365 1.376995,-1.96863 2.819106,-3.89719 4.334773,-5.76105 1.087529,-1.33775 2.480139,-2.44256 3.474218,-3.83804 1.571948,-2.20714 3.471344,-3.95473 5.792894,-5.33561 0.96491,-0.57377 1.728898,-1.48568 2.583279,-2.24535 M 60.918612,110.8824 c -0.03282,-0.0407 -0.06594,-0.0814 -0.0988,-0.12203 -0.242415,0.20852 -0.565954,0.37245 -0.709761,0.635 -0.273019,0.49774 -0.452148,1.04687 -0.665798,1.57728 -0.410038,1.01872 0.04257,2.23919 1.06022,2.6523 3.746418,1.52059 8.152046,-1.29194 8.251889,-5.27337 0.0076,-0.28432 -0.09409,-0.64999 -0.281846,-0.8468 -0.726402,-0.76111 -2.908679,-1.08076 -3.880355,-0.58342 -1.23586,0.63273 -2.451186,1.30551 -3.675548,1.96104 m -37.204055,41.63765 c 0.05791,0.18447 0.277737,0.58424 0.296019,0.99304 0.09738,2.16276 1.340225,3.61864 2.867175,4.95927 0.89362,0.78433 1.86551,0.72681 2.740014,0.26295 1.177532,-0.62471 2.235692,-1.47477 3.147804,-2.09415 -0.210984,-0.57294 -0.523434,-0.99365 -0.417644,-1.20504 0.591847,-1.18307 -0.121204,-2.02368 -0.786592,-2.71619 -1.951777,-2.03169 -4.288741,-2.75275 -6.845927,-1.69171 z M 36.366944,108.7149 c 3.038299,-0.7227 4.049831,-3.30681 2.888948,-5.463 -0.824587,-1.53149 -2.005185,-2.46373 -3.558238,-3.09892 -1.013994,-0.414558 -1.726837,-0.799738 -2.939283,0.067 -1.598035,1.14198 -2.298344,2.49536 -2.578344,4.27849 -0.163105,1.03969 0.01027,1.91235 0.774266,2.72462 1.736081,1.846 3.885693,1.58162 5.412651,1.49183 m 32.46132,75.17975 c -0.175029,-0.0426 -0.166403,-0.0405 -0.341424,-0.0827 -0.712642,1.1769 -1.419523,2.3571 -2.165024,3.51429 -0.341834,0.53061 -0.672988,1.06761 -0.973113,1.62288 -0.852734,1.57749 -2.05738,3.04878 -2.630733,4.73021 -0.811851,2.38031 -1.377807,4.85943 -1.853176,7.33403 -0.29787,1.55039 -0.239319,3.16916 -0.362577,5.10205 0.534107,-0.39792 0.802609,-0.507 0.927303,-0.70606 0.684487,-1.09349 1.326251,-2.21372 1.998628,-3.315 0.328266,-0.53742 0.732968,-1.03106 1.029603,-1.58407 0.689428,-1.28456 1.387883,-2.5691 1.983832,-3.89802 0.749208,-1.66974 1.662957,-3.3298 2.024298,-5.09281 0.424834,-2.07359 0.34266,-4.25237 0.457493,-6.3868 0.02195,-0.40982 -0.05998,-0.8252 -0.0951,-1.2379 m -2.920595,-39.43215 c -4.339686,3.34828 -8.880703,6.42643 -12.237006,10.83597 -1.79237,2.35463 -3.591729,4.70476 -5.332327,7.09737 -0.340815,0.46798 -0.42648,1.12165 -0.62985,1.68965 1.664594,-0.84718 3.060487,-1.9224 4.545333,-2.85648 2.425093,-1.52593 4.420842,-3.51613 6.325372,-5.61232 1.235451,-1.35994 2.33162,-2.85629 3.642257,-4.13592 1.986088,-1.93863 2.802257,-4.4459 3.686221,-7.01828 m -31.428831,37.7127 c 0.03982,0.12737 0.07234,0.32704 0.16065,0.49796 2.12167,4.10262 5.626908,7.01173 9.191314,9.63196 2.959417,2.1755 6.567578,3.46869 9.889369,5.15032 0.284519,0.14401 0.577871,0.27075 0.867115,0.40552 0.145243,-0.16394 0.135999,-0.15367 0.281236,-0.31758 -4.802322,-7.66931 -11.130983,-13.38947 -20.389684,-15.36818 m 11.629976,-42.9415 0.448658,0.25371 c 0.409003,-0.51623 1.009066,-0.97189 1.194777,-1.5588 0.902853,-2.85217 3.175319,-4.62687 5.07697,-6.69659 0.01474,-0.016 0.03081,-0.0304 0.0483,-0.0435 1.427114,-1.06474 2.9436,-2.02368 4.303128,-3.16874 1.798941,-1.51525 3.393277,-3.31747 5.991136,-3.4473 0.325809,-0.0163 0.624922,-0.33876 0.959768,-0.44681 1.90392,-0.61485 3.593983,-1.88461 5.7136,-1.84579 0.624513,0.0116 1.366107,0.14525 1.855855,-0.13004 1.932271,-1.0861 3.984099,-1.5627 6.170684,-1.63357 0.275267,-0.009 0.542741,-0.25371 0.813914,-0.38929 -0.0224,-0.10497 -0.04502,-0.20974 -0.06757,-0.31472 -0.565137,-0.0996 -1.191689,-0.076 -1.68472,-0.32108 -1.898993,-0.94415 -3.902757,-0.94313 -5.924793,-0.77303 -1.578512,0.13271 -3.235508,0.10497 -4.700223,0.60745 -1.524896,0.52302 -3.316647,0.56062 -4.51697,1.91419 -0.131273,0.14771 -0.443932,0.14792 -0.677311,0.18961 -2.898192,0.51809 -4.841961,2.38319 -6.635358,4.54677 -0.988943,1.19293 -2.192964,2.20796 -3.300431,3.30249 -0.219604,0.21712 -0.50843,0.39524 -0.651619,0.65408 -0.98709,1.78559 -2.001904,3.55948 -2.890393,5.39437 -0.607455,1.25456 -1.024891,2.60114 -1.527367,3.90664 M 46.44741,99.728683 c -0.159831,0.438997 -0.315337,0.762547 -0.39545,1.103567 -0.494884,2.10607 0.573144,3.95741 1.007014,5.91002 0.06207,0.27919 0.379836,0.50125 0.579314,0.74982 0.204806,-0.24671 0.500623,-0.46119 0.600883,-0.74488 1.623295,-4.59445 3.222148,-9.197515 4.825727,-13.798925 0.678324,-1.947059 1.227444,-3.951433 2.061691,-5.829261 1.210384,-2.725019 2.62559,-5.359033 4.042643,-8.211624 -2.497816,1.541746 -5.285901,2.392223 -6.54991,5.297198 -0.377157,0.866912 -1.287214,1.486076 -1.836743,2.297522 -0.973939,1.438621 -2.159055,2.833896 -2.712081,4.435013 -0.857863,2.484461 -1.2792,5.122174 -1.83283,7.706268 -0.07707,0.360528 0.146056,0.785356 0.209742,1.085282 m 2.714739,38.286327 c 11.031355,-1.30038 18.757546,-8.04072 26.003247,-15.62599 -0.7531,0.0495 -1.432868,0.27794 -2.121478,0.47557 -0.86177,0.24754 -1.722721,0.6204 -2.59826,0.66601 -1.186762,0.0621 -2.312523,0.0969 -3.421426,0.66168 -1.328715,0.67668 -2.713101,1.48936 -4.142895,1.65987 -1.746352,0.20852 -2.805137,1.3737 -4.069346,2.20426 -1.498192,0.98462 -2.751319,2.33964 -4.122137,3.52086 -0.91375,0.7874 -1.869417,1.52674 -2.766517,2.33182 -1.282094,1.1504 -2.508093,2.35401 -2.761188,4.10592 m -27.128427,-7.77084 c 0.152844,1.28331 0.210568,2.3762 0.437155,3.43293 0.127983,0.59698 0.565137,1.12102 0.809188,1.70055 1.48423,3.52393 4.043055,6.11255 7.164553,8.19107 1.678356,1.11775 3.362048,2.24781 5.140247,3.1895 2.38442,1.26277 5.043501,1.25456 7.908418,1.49819 -1.074192,-1.49244 -2.112435,-2.65929 -2.835541,-3.99662 -1.56455,-2.89408 -3.348704,-5.58871 -6.097961,-7.47372 -1.887078,-1.294 -3.876045,-2.43948 -5.823305,-3.64534 -0.132501,-0.0821 -0.299931,-0.10539 -0.445578,-0.16866 -1.94788,-0.84761 -3.894738,-1.69746 -6.257176,-2.7279 m 26.332742,-21.07296 c 4.291621,-1.53396 10.667119,-8.57077 12.678891,-13.927957 2.147757,-5.719767 2.298135,-11.608397 1.507026,-17.890014 -1.532301,1.485665 -2.771652,2.687015 -4.00854,3.890624 -0.02382,0.02301 -0.01548,0.07601 -0.03021,0.111754 -0.85048,2.054293 -1.775333,4.081675 -2.535824,6.16863 -1.108905,3.044257 -2.078943,6.138433 -3.147172,9.197891 -0.896706,2.568277 -1.853794,5.115412 -2.775567,7.674862 -0.546842,1.51854 -1.077064,3.04283 -1.688628,4.77421 m 10.802095,61.9815 c -0.08196,-0.008 -0.164751,-0.007 -0.248571,0.006 -0.392577,0.0666 -0.678531,0.3973 -0.928746,0.70709 -2.86409,3.54467 -5.776871,7.42277 -6.170066,11.96276 -0.567807,6.55628 4.202258,12.28735 5.838503,18.6614 -0.517473,-9.39612 4.295946,-18.90648 12.173952,-24.05331 0.270548,6.14728 0.490151,12.56858 -2.093946,18.15298 -2.094974,4.52745 -6.042708,8.73547 -5.360879,13.67747 0.380655,2.75911 2.177953,5.08397 3.91116,7.2642 4.451661,5.59959 8.903099,11.19938 13.354752,16.79896 -1.447857,-0.44064 -2.560884,-1.57892 -3.583096,-2.69481 -6.46219,-7.05527 -12.001996,-14.95443 -16.434134,-23.43353 -1.720266,-3.29118 -3.358975,-6.77834 -6.222247,-9.14344 -1.979515,-1.63482 -4.404407,-2.61039 -6.672958,-3.81257 -6.197588,-3.28399 -11.392287,-8.43143 -14.732774,-14.59884 6.433015,-1.44273 13.561419,0.7903 18.021698,5.64561 -1.973561,-5.12791 -3.464154,-10.44135 -4.445699,-15.84743 -0.421328,-2.31929 -0.77097,-4.7187 -1.961854,-6.75307 -1.697454,-2.89923 -4.823473,-4.60736 -7.819864,-6.12714 -0.402842,-0.20418 -0.826857,-0.41271 -1.278388,-0.40367 -0.55692,0.0113 -1.048506,0.34965 -1.48874,0.69045 -1.389119,1.07543 -2.836157,2.38524 -4.592379,2.3458 -1.863448,-0.0421 -3.316245,-1.60318 -4.338456,-3.16155 -1.033311,-1.57524 -1.892619,-3.55537 -1.170132,-5.29516 0.816379,-1.96574 3.410333,-2.68146 5.443674,-2.05161 2.03334,0.62963 3.595011,2.24308 4.956391,3.87933 1.361375,1.63625 2.661129,3.39596 4.473231,4.51287 2.296281,1.4152 5.528507,1.96123 6.498747,4.47814 l -0.221456,-9.76076 c -0.05731,-2.52679 -1.25702,-3.05248 -3.470726,-3.49702 -2.42283,-0.48625 -4.770474,-1.3016 -6.974111,-2.42036 -4.401125,-2.23447 -8.214712,-5.65157 -10.819141,-9.85301 -1.415819,-2.28375 -2.506856,-4.87032 -2.475221,-7.55712 0.01131,-0.97765 0.314514,-2.13442 1.240383,-2.44831 0.420105,-0.14258 0.87944,-0.0719 1.314956,0.0116 2.597853,0.4992 5.114981,1.41685 7.424623,2.70675 -2.99824,-4.30355 -5.255289,-9.1221 -6.642149,-14.18038 3.948764,1.49819 8.026736,3.11595 11.197337,5.9936 3.148414,2.85732 4.234922,6.65221 4.904821,10.7304 0.632321,3.84933 1.217381,7.9764 3.821401,10.88077 0.659428,-4.10551 0.997771,-8.26258 1.011122,-12.42068 0.01377,-4.36804 -0.353331,-8.83139 -2.082015,-12.84282 -1.72849,-4.01162 -5.007136,-7.54173 -9.226452,-8.67241 -1.038034,-0.27815 -2.17324,-0.43798 -2.972559,-1.15637 -1.20423,-1.08241 -1.163347,-2.97873 -0.782484,-4.55254 0.448659,-1.85298 1.380278,-3.772318 3.119858,-4.552745 2.027379,-0.909433 4.488419,0.08751 5.999963,1.715955 1.155138,1.2445 1.929814,2.87911 1.970689,4.57658 0.04071,1.69726 -0.707909,3.43582 -2.083259,4.43112 2.122705,3.81156 4.309908,7.58694 6.477805,11.37321 -0.533088,-0.87103 -0.05812,-4.27272 0.227001,-5.30994 0.490351,-1.78395 1.559407,-3.37007 1.413554,-5.29453 -0.132912,-1.75604 -0.668261,-3.45268 -1.022219,-5.17768 -2.040115,-9.935815 2.566019,-20.902041 11.08908,-26.400972 1.188816,-0.767074 2.454461,-1.444168 3.470518,-2.42838 1.016265,-0.984211 1.7706,-2.36449 1.597409,-3.7686 0.810223,0.238505 1.116309,1.204843 1.281886,2.032928 1.021602,5.112929 1.424249,10.405198 0.543984,15.544218 -0.880474,5.139224 -3.110613,10.131976 -6.816356,13.799946 -2.150428,2.12846 -4.749524,3.77847 -6.795599,6.00739 -2.045867,2.22913 -3.52537,5.33522 -2.721727,8.25211 1.993069,-1.93761 4.62893,-3.20305 7.387647,-3.54612 0.767278,-0.0956 1.570095,-0.12963 2.249654,-0.49837 1.130264,-0.61321 1.602963,-1.94994 2.202617,-3.08741 0.963668,-1.82894 2.555324,-3.41137 4.549636,-3.95596 1.994312,-0.5444 4.376252,0.15016 5.455586,1.91336 0.997152,1.62928 0.689837,3.86066 -0.494059,5.35968 -1.183888,1.49902 -3.101771,2.30306 -5.008363,2.4218 -3.002762,0.18714 -5.942045,-1.16376 -8.945418,-0.98627 -6.511289,0.38478 -8.604201,6.61463 -8.57606,12.13964 0.01645,3.22032 0.253504,6.56984 -1.008041,9.53274 2.954488,-6.52341 7.400798,-12.54289 13.480264,-16.32751 6.079482,-3.78463 13.917841,-5.08397 20.559577,-2.4062 0.285538,0.11525 0.58896,0.25535 0.735231,0.52611 0.283082,0.52384 -0.177284,1.1276 -0.604173,1.54236 -7.623474,7.40819 -15.98445,14.63375 -26.184215,17.62768 -2.922232,0.85766 -6.299701,1.59823 -7.814327,4.24068 -1.526139,2.66297 -0.445167,5.84014 -0.335254,8.69315 0.05813,1.50661 -0.116075,3.00891 -0.07153,4.52047 0.02523,0.85644 0.05835,1.72026 0.208305,2.56561 0.07375,0.41516 0.810826,2.00787 0.709762,2.29607 3.539541,-10.09911 12.628557,-18.05107 23.108323,-20.21752 -3.163406,9.44029 -9.70407,17.70985 -18.162001,22.96247 -1.644261,1.02098 -3.488395,2.08367 -4.125843,3.91137 -0.42051,1.20588 -0.225357,2.53088 0.01333,3.78566 0.811652,4.2686 2.071352,8.45177 3.751955,12.45866 2.011564,-5.33808 4.67599,-10.42984 7.915197,-15.12554 0.858489,-1.2445 1.786617,-2.4898 3.057614,-3.30865 1.270983,-0.81884 2.965571,-1.13808 4.305182,-0.43716 2.019363,1.05674 2.294846,4.19549 0.7492,5.87057 -1.545662,1.67526 -4.302927,1.84597 -6.301339,0.74981 -0.297869,-0.16333 -0.610945,-0.35642 -0.938608,-0.39094"
       id="path1570"
       style="stroke-width:0.0525899" />
    <path
       fill-rule="nonzero"
       fill="#000000"
       fill-opacity="1"
       d="m 146.92171,131.84514 c -1.65963,0.42393 -2.56105,1.5879 -2.97089,3.11145 -0.11137,0.41434 0.13095,1.20216 0.45683,1.38849 0.44438,0.25397 2.00307,0.96109 2.48239,0.75167 0.65236,-0.28502 1.04342,-0.6534 1.69334,-0.95332 0.94902,-0.43804 0.56123,-2.18225 0.25088,-3.3454 -0.29849,-1.11941 -0.93819,-1.36725 -1.91255,-0.95289 m 11.55564,-20.48325 c -0.13525,0.11564 -0.2705,0.23108 -0.40576,0.34672 0.68036,1.10328 1.16867,2.40863 2.07724,3.27164 2.673,2.53918 5.43141,4.99521 9.03239,6.2554 1.52845,0.53488 3.00195,0.57677 4.79785,0.32117 -6.31343,-1.9526 -11.44797,-5.23955 -15.50172,-10.19493 m 15.9414,59.38943 c -0.17101,0.20554 -0.15998,0.19227 -0.33099,0.3976 0.45316,0.70548 0.86322,1.44345 1.36787,2.11012 1.2986,1.7156 2.50404,3.53234 4.00286,5.05692 1.34601,1.36888 2.97601,2.4501 3.85189,4.24987 0.11421,0.23454 0.40576,0.38267 0.88098,0.80969 -0.2756,-0.87732 -0.35795,-1.43937 -0.61456,-1.90542 -1.12086,-2.03493 -2.30852,-4.0331 -3.43939,-6.06252 -0.78617,-1.41098 -1.49126,-2.87303 -3.11431,-3.5448 -0.87199,-0.36103 -1.73665,-0.74023 -2.60435,-1.11146 M 150.93868,97.720426 c -0.23477,2.015538 -0.52427,4.136084 -0.71633,6.265614 -0.14649,1.62449 -0.79783,3.10165 -1.16824,4.6344 -0.46584,1.92727 -1.35724,3.55993 -2.31444,5.17561 -1.45715,2.4589 -3.11924,4.79581 -4.66831,7.20136 -0.16447,0.25519 -0.15508,0.62234 -0.22618,0.93759 1.00705,-0.62886 1.85413,-1.33292 2.52754,-2.1759 1.1519,-1.44183 2.09112,-3.06264 3.30842,-4.44154 1.84023,-2.08499 2.92062,-4.60292 3.42854,-7.16948 0.68383,-3.45491 0.68016,-7.04343 -0.171,-10.427654 m 35.81312,76.545664 c 0.38144,-1.37501 -0.73103,-1.41833 -1.36828,-1.75851 -2.06926,-1.1043 -4.17674,-2.13669 -6.26561,-3.20442 -0.32955,-0.16875 -0.64726,-0.35958 -0.96191,-0.5547 -1.42221,-0.8812 -3.00112,-1.59322 -4.21514,-2.70325 -1.93789,-1.77219 -3.64635,-3.78895 -4.76353,-6.24334 -0.36121,-0.79334 -1.01357,-1.45429 -1.53293,-2.17571 0.65911,1.70906 1.36091,3.36868 2.10911,5.00726 0.50628,1.109 0.99377,2.24048 1.63673,3.27 1.37624,2.2033 3.80366,3.12045 5.82553,4.52509 0.66769,0.46398 1.47227,0.73389 2.22067,1.07856 1.15742,0.53305 2.40351,0.92675 3.45898,1.61426 1.18521,0.7721 2.41046,1.10164 3.85638,1.14476 m -4.12056,9.76098 c 0.0983,-0.11666 0.19635,-0.23333 0.29462,-0.34998 -0.78414,-0.98745 -1.45429,-2.10033 -2.3745,-2.93841 -2.48893,-2.26684 -4.84484,-4.61683 -6.42048,-7.64309 -0.68956,-1.32455 -1.42161,-2.62703 -2.13425,-3.93953 -0.28277,0.7725 -0.53345,1.5689 -0.33159,2.22597 0.6681,2.17347 1.41546,4.33222 2.3081,6.42171 0.37022,0.86649 1.06242,1.70908 1.82307,2.27235 1.70232,1.2604 3.52499,2.36206 5.33192,3.47432 0.43437,0.26724 0.99867,0.32322 1.50311,0.47666 m -35.85235,-25.69665 c 0.10443,0.1657 0.0764,0.12115 0.18082,0.28686 0.59332,-0.24355 1.16886,-0.54715 1.78057,-0.7296 3.39708,-1.01339 6.28687,-2.86241 8.42886,-5.64758 2.0991,-2.7294 4.1696,-5.50251 5.55463,-8.7196 0.61455,-1.42793 1.33149,-2.77374 1.04383,-4.40843 -0.35143,0.6961 -0.46543,1.52294 -0.89142,2.13199 -1.3695,1.95771 -2.80398,3.87579 -4.31118,5.72971 -1.08183,1.33048 -2.46686,2.42906 -3.4553,3.81715 -1.5634,2.19511 -3.45247,3.933 -5.76139,5.30638 -0.95965,0.57084 -1.71948,1.47779 -2.56942,2.23312 m 2.67627,33.40612 c 0.0327,0.0407 0.0653,0.0811 0.0983,0.12157 0.24109,-0.20737 0.56267,-0.3704 0.70589,-0.63152 0.27154,-0.49504 0.4497,-1.04138 0.66198,-1.5687 0.408,-1.01339 -0.0421,-2.2272 -1.05425,-2.63787 -3.72603,-1.51231 -8.10769,1.28491 -8.20698,5.24469 -0.008,0.28275 0.0933,0.64623 0.28031,0.84216 0.72244,0.75677 2.89284,1.07468 3.85903,0.58024 1.22934,-0.62947 2.43806,-1.29861 3.65574,-1.95057 m 37.00161,-41.41084 c -0.0576,-0.18346 -0.27623,-0.58106 -0.29461,-0.98784 -0.0967,-2.15079 -1.33274,-3.59874 -2.85159,-4.93208 -0.88853,-0.78026 -1.85514,-0.72285 -2.72489,-0.26152 -1.17132,0.62131 -2.22353,1.46675 -3.13087,2.08275 0.20983,0.56983 0.52079,0.98826 0.41557,1.1985 -0.58882,1.17662 0.12055,2.01247 0.78211,2.7012 1.94115,2.02083 4.26561,2.73797 6.80887,1.6825 z m -12.58354,43.56654 c -3.02197,0.71877 -4.02799,3.28901 -2.87323,5.43325 0.82011,1.52315 1.99428,2.45051 3.53888,3.08204 1.00848,0.4125 1.71744,0.7956 2.92328,-0.0664 1.58935,-1.13575 2.28585,-2.48198 2.56412,-4.25539 0.16221,-1.03403 -0.0101,-1.90174 -0.76984,-2.70958 -1.72665,-1.83595 -3.86476,-1.5732 -5.38321,-1.48392 m -32.28487,-74.77041 c 0.17408,0.0421 0.1657,0.04 0.33978,0.0824 0.70854,-1.1705 1.41178,-2.34428 2.15322,-3.49537 0.33998,-0.52773 0.66913,-1.0618 0.96783,-1.61385 0.8481,-1.56891 2.04617,-3.03239 2.61642,-4.70467 0.80722,-2.36737 1.37031,-4.833 1.84309,-7.29413 0.29624,-1.54193 0.23781,-3.151708 0.36061,-5.074273 -0.53122,0.395749 -0.79824,0.504241 -0.92226,0.702412 -0.68098,1.087348 -1.31905,2.201463 -1.98776,3.296781 -0.32648,0.53467 -0.72897,1.02563 -1.02399,1.57544 -0.68589,1.27776 -1.38035,2.55532 -1.97325,3.87701 -0.74492,1.66064 -1.65389,3.31169 -2.01308,5.06508 -0.42252,2.06213 -0.34099,4.22925 -0.455,6.35205 -0.0219,0.4074 0.0595,0.8205 0.0943,1.23118 m 2.9049,39.21757 c 4.31609,-3.33007 8.83218,-6.39147 12.17043,-10.77701 1.78262,-2.34183 3.57196,-4.67936 5.3033,-7.05876 0.33896,-0.46563 0.42416,-1.11554 0.62643,-1.68068 -1.65554,0.84259 -3.04384,1.91196 -4.52061,2.84116 -2.41209,1.51763 -4.39677,3.497 -6.29095,5.58179 -1.22892,1.35234 -2.31913,2.84075 -3.62264,4.11319 -1.97528,1.92829 -2.7868,4.42192 -3.66596,6.98031 m 31.2578,-37.50749 c -0.0397,-0.12668 -0.0722,-0.32546 -0.15997,-0.49524 -2.10993,-4.08051 -5.59608,-6.97377 -9.14109,-9.57956 -2.94332,-2.16365 -6.53184,-3.4498 -9.83576,-5.12248 -0.28276,-0.14323 -0.57452,-0.26909 -0.8622,-0.40311 -0.14444,0.16303 -0.13524,0.15282 -0.2797,0.31586 4.77619,7.62756 11.07021,13.31661 20.27872,15.28453 m -11.56667,42.70782 c -0.14895,-0.0841 -0.29769,-0.16814 -0.44622,-0.25232 -0.40699,0.51343 -1.00378,0.9666 -1.18827,1.55011 -0.89796,2.83686 -3.15825,4.6017 -5.04956,6.66014 -0.0145,0.016 -0.0305,0.0305 -0.0479,0.0433 -1.41954,1.05894 -2.92777,2.01267 -4.2797,3.1517 -1.78915,1.50681 -3.37503,3.29922 -5.95854,3.42835 -0.32424,0.0161 -0.62151,0.33692 -0.95474,0.44459 -1.89336,0.6115 -3.57423,1.87436 -5.68232,1.83553 -0.6213,-0.0113 -1.35866,-0.14425 -1.84573,0.12954 -1.92196,1.0802 -3.96242,1.55418 -6.13733,1.62447 -0.27357,0.009 -0.53978,0.25252 -0.80927,0.38737 0.0223,0.1042 0.0447,0.20861 0.0672,0.31301 0.56205,0.0991 1.18522,0.0754 1.67536,0.31915 1.88885,0.9392 3.8815,0.93798 5.89275,0.76881 1.56992,-0.13199 3.2179,-0.1042 4.67464,-0.60395 1.5164,-0.52017 3.29861,-0.55756 4.4924,-1.90377 0.13035,-0.14711 0.44151,-0.14711 0.67361,-0.18858 2.88243,-0.51526 4.81562,-2.37041 6.59926,-4.52203 0.98355,-1.18664 2.18102,-2.19592 3.28226,-3.2847 0.21862,-0.21596 0.50567,-0.3929 0.64807,-0.65053 0.98172,-1.77568 1.99122,-3.5401 2.87487,-5.36481 0.60415,-1.24773 1.01931,-2.58699 1.51905,-3.88539 m -0.33691,39.28989 c 0.15896,-0.43661 0.31383,-0.7582 0.39351,-1.09735 0.49219,-2.09461 -0.57003,-3.93585 -1.00175,-5.87804 -0.0615,-0.27745 -0.37756,-0.49831 -0.57594,-0.74552 -0.20371,0.24537 -0.49791,0.45867 -0.59761,0.74061 -1.61447,4.56943 -3.20483,9.14743 -4.79948,13.7238 -0.67464,1.93668 -1.22096,3.93014 -2.05048,5.79775 -1.20379,2.71019 -2.61129,5.32987 -4.02083,8.16672 2.48421,-1.53313 5.25733,-2.37899 6.51425,-5.26816 0.37532,-0.86219 1.28042,-1.47798 1.82676,-2.28501 0.96884,-1.4308 2.14751,-2.81848 2.69752,-4.41108 0.8532,-2.47094 1.27224,-5.09431 1.82266,-7.66434 0.0769,-0.35857 -0.14507,-0.78109 -0.20861,-1.07938 m -2.69976,-38.07791 c -10.97132,1.29349 -18.65567,7.99716 -25.86174,15.54114 0.749,-0.0494 1.42507,-0.27642 2.10993,-0.47318 0.85708,-0.24599 1.71335,-0.61682 2.58413,-0.66238 1.1803,-0.0615 2.29993,-0.0965 3.40259,-0.65809 1.3217,-0.673 2.69855,-1.48104 4.12056,-1.65083 1.73684,-0.20717 2.78988,-1.36603 4.047,-2.19205 1.49004,-0.97928 2.73655,-2.32711 4.09991,-3.5019 0.90878,-0.78293 1.85924,-1.51845 2.75147,-2.31914 1.27489,-1.14416 2.49443,-2.34099 2.74615,-4.08357 m 26.98075,7.72868 c -0.15201,-1.27632 -0.20942,-2.36347 -0.43479,-3.41445 -0.12728,-0.59353 -0.56205,-1.11492 -0.80478,-1.69107 -1.47614,-3.50498 -4.02105,-6.0795 -7.12555,-8.14673 -1.66923,-1.11144 -3.34397,-2.23536 -5.11229,-3.17192 -2.37144,-1.25611 -5.01605,-1.24794 -7.86537,-1.49026 1.06814,1.48453 2.10093,2.64502 2.8199,3.97489 1.55625,2.87854 3.33069,5.5585 6.06479,7.43325 1.877,1.28675 3.85514,2.4262 5.7918,3.6255 0.13159,0.0816 0.29831,0.10465 0.44316,0.16774 1.93729,0.84278 3.87333,1.68823 6.22313,2.71305 m -26.18946,20.95828 c -4.26847,1.52538 -10.60927,8.52386 -12.60989,13.85188 -2.13608,5.68865 -2.28584,11.54523 -1.49883,17.79286 1.52396,-1.47777 2.75637,-2.67238 3.98673,-3.86945 0.0234,-0.023 0.0154,-0.0759 0.03,-0.11115 0.84585,-2.04311 1.76566,-4.05946 2.52181,-6.13527 1.10308,-3.02747 2.06764,-6.10502 3.13025,-9.14762 0.89183,-2.55432 1.84371,-5.08756 2.76045,-7.63328 0.54368,-1.51006 1.071,-3.02626 1.67944,-4.74799 m -10.7433,-61.64422 c 0.0816,0.009 0.16386,0.008 0.24702,-0.007 0.39063,-0.0662 0.67505,-0.39493 0.92389,-0.70304 2.84851,-3.52539 5.74544,-7.38237 6.13649,-11.89786 0.56472,-6.52039 -4.17959,-12.22048 -5.80693,-18.55965 0.51486,9.3448 -4.27235,18.80359 -12.1077,23.92241 -0.26887,-6.11381 -0.48729,-12.50017 2.08254,-18.05418 2.08357,-4.50281 6.01002,-8.68813 5.33192,-13.603051 -0.37859,-2.744124 -2.16611,-5.05632 -3.88988,-7.224898 -4.42744,-5.569118 -8.85465,-11.138237 -13.28208,-16.707562 1.43999,0.438249 2.54694,1.570338 3.56359,2.680361 6.42703,7.01687 11.9367,14.873061 16.34471,23.306046 1.71091,3.273271 3.34069,6.741454 6.18839,9.093484 1.96874,1.62612 4.38024,2.59639 6.63644,3.79182 6.16407,3.26612 11.33049,8.38556 14.65281,14.51939 -6.39802,1.43508 -13.48782,-0.78579 -17.92364,-5.61468 1.96283,5.09981 3.44512,10.38453 4.42151,15.76119 0.41884,2.30667 0.76678,4.69303 1.95118,6.71612 1.68823,2.88365 4.79723,4.58229 7.77731,6.09378 0.40066,0.20329 0.82235,0.41068 1.27143,0.40149 0.55369,-0.0112 1.0428,-0.34754 1.48064,-0.68649 1.38157,-1.06977 2.82073,-2.37247 4.56739,-2.33304 1.8533,0.0419 3.29819,1.59425 4.31485,3.14434 1.02748,1.56667 1.88232,3.53603 1.16355,5.26635 -0.81194,1.95506 -3.39177,2.66667 -5.41404,2.04045 -2.02209,-0.6262 -3.57525,-2.23088 -4.92942,-3.85822 -1.35377,-1.62753 -2.64645,-3.37766 -4.44869,-4.48831 -2.28399,-1.4077 -5.49862,-1.95056 -6.46358,-4.45378 l 0.22044,9.70746 c 0.057,2.51302 1.25018,3.03606 3.45185,3.47797 2.40964,0.48382 4.74451,1.29453 6.93616,2.4072 4.37717,2.22251 8.17001,5.62102 10.76027,9.79939 1.40811,2.27133 2.49321,4.84382 2.46174,7.51621 -0.0114,0.97232 -0.313,2.1228 -1.23383,2.43497 -0.41761,0.14159 -0.87445,0.0715 -1.30759,-0.0119 -2.58394,-0.49648 -5.08716,-1.40893 -7.38443,-2.6918 2.98213,4.28011 5.2269,9.07245 6.6062,14.1032 -3.92727,-1.49004 -7.98326,-3.099 -11.1366,-5.96098 -3.13107,-2.84198 -4.21168,-6.61601 -4.87813,-10.67201 -0.62867,-3.82839 -1.21056,-7.933 -3.80041,-10.82155 -0.65583,4.08316 -0.99253,8.21761 -1.00562,12.35287 -0.0139,4.34448 0.35142,8.78335 2.0707,12.77314 1.71907,3.9898 4.97988,7.50068 9.17623,8.625 1.03238,0.27664 2.16121,0.43559 2.95618,1.15027 1.19788,1.07652 1.15723,2.96231 0.77823,4.52753 -0.44601,1.84311 -1.37256,3.75199 -3.10267,4.52817 -2.01636,0.90427 -4.464,-0.0871 -5.96734,-1.70682 -1.14882,-1.23751 -1.91949,-2.86322 -1.95995,-4.55144 -0.0407,-1.68803 0.70406,-3.41712 2.07192,-4.40721 -2.11115,-3.79079 -4.28665,-7.54562 -6.44275,-11.31108 0.5304,0.86628 0.0578,4.24926 -0.22576,5.28102 -0.48749,1.77404 -1.55073,3.35154 -1.40567,5.26573 0.13219,1.74626 0.66443,3.43387 1.01666,5.14926 2.02901,9.88193 -2.55206,20.78828 -11.02873,26.25749 -1.18235,0.76269 -2.44111,1.43609 -3.45183,2.41495 -1.01053,0.97886 -1.76076,2.35184 -1.58873,3.7481 -0.80559,-0.23701 -1.11023,-1.19809 -1.2747,-2.02167 -1.01604,-5.0851 -1.4167,-10.34857 -0.54102,-15.45982 0.87568,-5.11105 3.09369,-10.07664 6.77925,-13.72482 2.13853,-2.11687 4.72368,-3.7579 6.75842,-5.97468 2.03493,-2.21678 3.5064,-5.30618 2.70713,-8.20719 -1.98243,1.92727 -4.60395,3.18562 -7.34744,3.52703 -0.76311,0.095 -1.56156,0.12871 -2.23762,0.49566 -1.12392,0.60987 -1.59425,1.93932 -2.19043,3.07059 -0.95842,1.81898 -2.54164,3.39279 -4.52509,3.93422 -1.98325,0.54163 -4.35224,-0.14914 -5.42568,-1.90275 -0.99194,-1.6204 -0.68629,-3.83983 0.49136,-5.33069 1.17745,-1.49086 3.0849,-2.29033 4.98091,-2.40863 2.98662,-0.18613 5.90991,1.15743 8.89693,0.98091 6.47566,-0.38269 8.55718,-6.57842 8.5292,-12.07338 -0.0164,-3.20278 -0.25192,-6.53429 1.00276,-9.48106 -2.93841,6.4881 -7.36053,12.47464 -13.40692,16.23886 -6.0466,3.76403 -13.84209,5.05631 -20.44769,2.3929 -0.28398,-0.11442 -0.58576,-0.25396 -0.73123,-0.52324 -0.28153,-0.52099 0.17633,-1.12127 0.60088,-1.53398 7.582,-7.36787 15.89747,-14.55391 26.04153,-17.53154 2.90653,-0.853 6.26562,-1.58974 7.77201,-4.21781 1.51783,-2.64828 0.44274,-5.80815 0.33323,-8.64564 -0.0578,-1.49862 0.11564,-2.99255 0.0711,-4.49587 -0.025,-0.85177 -0.0578,-1.7109 -0.20717,-2.55184 -0.0732,-0.41292 -0.80621,-1.99674 -0.7057,-2.28339 -3.52029,10.04395 -12.55983,17.95283 -22.98257,20.10752 3.14619,-9.38893 9.65125,-17.61349 18.06316,-22.83752 1.63531,-1.01563 3.46941,-2.07253 4.10319,-3.89009 0.41842,-1.1993 0.22413,-2.51731 -0.0131,-3.76505 -0.80724,-4.24539 -2.06028,-8.40578 -3.73175,-12.39087 -2.00042,5.30903 -4.65054,10.37309 -7.87191,15.04324 -0.85381,1.23772 -1.77711,2.47605 -3.04097,3.29065 -1.26409,0.81437 -2.94944,1.13188 -4.28175,0.43456 -2.00838,-1.05098 -2.28237,-4.17244 -0.74512,-5.8384 1.53723,-1.66616 4.27929,-1.83594 6.26683,-0.74595 0.29626,0.16243 0.60783,0.3547 0.93371,0.38902"
       id="path1572"
       style="stroke-width:0.0523038" />
  </g>
</svg>
